<svg width="32" height="32" viewBox="0 0 32 32" fill="none" xmlns="http://www.w3.org/2000/svg">
<path d="M26.6663 15.9997V10.6663H7.99967C7.29243 10.6663 6.61415 10.3854 6.11406 9.88529C5.61396 9.3852 5.33301 8.70692 5.33301 7.99967C5.33301 6.53301 6.53301 5.33301 7.99967 5.33301H23.9997V10.6663" stroke="white" stroke-width="2" stroke-linecap="round" stroke-linejoin="round"/>
<path d="M5.33301 8V24C5.33301 25.4667 6.53301 26.6667 7.99967 26.6667H26.6663V21.3333" stroke="white" stroke-width="2" stroke-linecap="round" stroke-linejoin="round"/>
<path d="M23.9997 16C23.2924 16 22.6142 16.281 22.1141 16.781C21.614 17.2811 21.333 17.9594 21.333 18.6667C21.333 20.1333 22.533 21.3333 23.9997 21.3333H29.333V16H23.9997Z" stroke="white" stroke-width="2" stroke-linecap="round" stroke-linejoin="round"/>
</svg>
