<svg width="32" height="32" viewBox="0 0 32 32" fill="none" xmlns="http://www.w3.org/2000/svg">
<g id="WAX@eosio.token">
<circle id="Ellipse 4" cx="16" cy="16" r="16" fill="#F89022"/>
<path id="Vector" fill-rule="evenodd" clip-rule="evenodd" d="M28.001 18.462H25.637L23.96 17.026L22.289 18.456H20.291L19.336 17.296H16.044L16.877 16.267H18.496L17.263 14.759L12.958 20H10.961L12.207 18.478H10.126L9.00098 15.324L7.88498 18.454H5.77398L4.00098 13.541H5.62098L6.81298 16.887L8.00098 13.556H10.001L11.186 16.88L12.37 13.555H13.995L12.207 18.478L12.605 17.992L16.257 13.547H18.267L21.306 17.255L22.768 15.998L18.141 12H20.516L28.001 18.462ZM25.656 15.49L24.541 14.534L25.654 13.586L27.904 13.588L25.656 15.49Z" fill="white"/>
</g>
</svg>
