<svg width="32" height="32" fill="none" xmlns="http://www.w3.org/2000/svg"><g clip-path="url(#prefix__clip0_3494_26390)"><mask id="prefix__a" style="mask-type:alpha" maskUnits="userSpaceOnUse" x="0" y="0" width="32" height="32"><path d="M32 0H0v32h32V0z" fill="#C4C4C4"/></mask><g mask="url(#prefix__a)"><path d="M32.547 0H-.843v32h33.39V0z" fill="#2980FE"/><path d="M12.712 13.708h.004c-.004-.025-.004-.054-.004-.078v.078z" fill="#29AEFF"/><path d="M20.863 14.485h-4.511v8.142c0 .385.31.696.695.696h3.12a.695.695 0 00.696-.696v-8.142zM14.174 8.656H5.946a.695.695 0 00-.696.696v2.825c0 .385.311.696.696.696h2.648V22.648c0 .385.312.696.696.696h2.964a.695.695 0 00.696-.696V12.873h1.212a2.11 2.11 0 002.108-2.109 2.092 2.092 0 00-2.096-2.108z" fill="#fff"/><path d="M20.867 14.485v5.682a5.828 5.828 0 001.183.147h.041v-4.519a1.312 1.312 0 01-1.224-1.31z" fill="url(#prefix__paint0_linear_3494_26390)"/><path d="M22.18 8.656a5.831 5.831 0 00-1.313 11.511v-5.682c0-.724.59-1.314 1.314-1.314.724 0 1.314.59 1.314 1.314A1.31 1.31 0 0122.18 15.8v4.516c.114 0 .225-.005.335-.009a5.833 5.833 0 005.494-5.82 5.826 5.826 0 00-5.83-5.83z" fill="#fff"/><path d="M22.181 20.314V15.8c-.033 0-.061 0-.094-.004v4.52h.094z" fill="#fff"/></g></g><defs><linearGradient id="prefix__paint0_linear_3494_26390" x1="22.183" y1="17.401" x2="20.868" y2="17.401" gradientUnits="userSpaceOnUse"><stop stop-color="#fff"/><stop offset=".967" stop-color="#fff" stop-opacity=".323"/><stop offset="1" stop-color="#fff" stop-opacity=".3"/></linearGradient><clipPath id="prefix__clip0_3494_26390"><rect width="32" height="32" rx="8" fill="#fff"/></clipPath></defs></svg>