<svg width="32" height="32" viewBox="0 0 32 32" fill="none" xmlns="http://www.w3.org/2000/svg">
<g clip-path="url(#clip0_5792_15693)">
<path d="M14.9611 4.95312C13.3518 4.95312 11.7869 5.21373 10.2975 5.72892C10.2898 5.79125 10.2943 5.85613 10.313 5.92046C10.3776 6.14334 10.5912 6.28968 10.8241 6.28968C10.8707 6.28968 10.9179 6.28385 10.9648 6.27164C12.2246 5.94397 13.5686 5.77795 14.9594 5.77795C16.3502 5.77795 17.6879 5.94324 18.9451 6.26945C19.2277 6.34271 19.5194 6.18525 19.5968 5.91791C19.6157 5.85303 19.6199 5.78761 19.6118 5.72455C18.1261 5.21245 16.5657 4.95331 14.9611 4.95331V4.95312Z" fill="#FEDC9E"/>
<path d="M28.3052 5.41572C28.1173 3.81328 27.6797 2.60102 27.0607 1.90723C27.5794 3.66512 28.6789 6.68831 27.2575 10.9493C27.2575 10.9496 27.2573 10.95 27.2571 10.9506C27.1618 11.2361 27.0553 11.5272 26.9365 11.8239C26.9365 11.8239 26.9438 11.8359 26.9567 11.8579C27.0309 11.9831 27.2994 12.4411 27.5636 12.9567L27.5303 12.8776L27.5959 12.6663C27.5992 12.6556 27.6025 12.6447 27.6057 12.6339C27.6776 12.4012 27.7449 12.1621 27.8079 11.9181L27.8083 11.9166C28.0426 11.0087 28.2151 10.0311 28.3121 9.0476C28.4375 7.77774 28.435 6.52211 28.3052 5.41609V5.41572Z" fill="#FEDC9E"/>
<path d="M28.5317 16.8164C28.5196 16.8248 28.5074 16.8332 28.4951 16.8417C28.5074 16.8335 28.5198 16.8252 28.5319 16.8171V16.8164H28.5317Z" fill="#FFC165"/>
<path d="M27.2567 10.9503C27.2567 10.9503 27.2569 10.9496 27.2571 10.949C28.6785 6.68804 27.5792 3.66485 27.0603 1.90696C26.7884 1.60225 26.4816 1.39741 26.1452 1.30392C25.1543 1.02819 23.1761 2.84459 21.3234 5.72672C21.3234 5.72672 21.3234 5.72709 21.3232 5.72709C21.3108 5.74622 21.2985 5.76517 21.2862 5.78449L21.2238 5.88217L21.2063 5.90969C21.0671 6.13804 20.9341 6.36657 20.8066 6.5951C20.6705 6.8393 20.5413 7.08314 20.4194 7.32643C20.3609 7.4447 20.298 7.57737 20.2327 7.72043C20.2073 7.77602 20.1516 7.80955 20.091 7.80955C20.0766 7.80955 20.0617 7.80754 20.0469 7.80354C19.9707 7.78276 19.9241 7.71387 19.936 7.6397C20.0257 7.11521 20.1505 6.56794 20.313 5.98733C20.0812 5.89329 19.8473 5.80545 19.6114 5.72417C19.6195 5.78704 19.6153 5.85247 19.5964 5.91753C19.519 6.18506 19.2273 6.34233 18.9447 6.26907C17.6875 5.94304 16.3463 5.77757 14.959 5.77757C13.5716 5.77757 12.2243 5.94359 10.9644 6.27126C10.9174 6.28347 10.8701 6.2893 10.8237 6.2893C10.5907 6.2893 10.3772 6.14296 10.3125 5.92008C10.2938 5.85575 10.2894 5.79087 10.2971 5.72854C10.0613 5.81019 9.82735 5.89821 9.59555 5.99243C9.75727 6.57086 9.88164 7.11612 9.97097 7.63843C9.9831 7.71369 9.93651 7.78258 9.86027 7.80335C9.84564 7.80736 9.83081 7.80937 9.81618 7.80937C9.75554 7.80937 9.6999 7.77583 9.67448 7.72043C9.60921 7.57737 9.54626 7.44452 9.48754 7.32606C9.39493 7.14109 9.29771 6.95557 9.19682 6.76987C9.04992 6.4996 8.89436 6.22898 8.73052 5.95853L8.68585 5.88873L8.6227 5.78978C8.61115 5.77173 8.59883 5.7526 8.58593 5.73255C8.58593 5.73255 8.58593 5.73237 8.58593 5.73219C8.2261 5.17289 7.36184 3.89083 6.36359 2.83821C5.40826 1.83078 4.55363 1.27695 3.96989 1.27695C3.89558 1.27695 3.82569 1.28588 3.76061 1.30411C3.25215 1.44552 2.81184 1.83461 2.452 2.46006C1.85209 3.50302 1.51459 5.14647 1.50188 7.08751C1.49803 7.65701 1.5219 8.23526 1.57158 8.8126C1.85324 10.0334 2.0785 10.7418 2.41408 11.364C2.41408 11.3643 2.41446 11.3645 2.41446 11.3649C2.53248 11.5838 2.66417 11.7921 2.81684 12.0082C2.97645 11.8393 3.1478 11.6871 3.32935 11.5657C3.28026 11.6738 3.2327 11.7826 3.18688 11.8923C3.18553 11.8956 3.18419 11.8987 3.18284 11.9019C3.14818 11.985 3.11468 12.0689 3.08195 12.1529C3.07907 12.1605 3.07599 12.168 3.0731 12.1757C3.06578 12.1946 3.05866 12.2136 3.05153 12.2325C3.04114 12.2597 3.03074 12.2867 3.02073 12.3138C3.02054 12.3144 3.02035 12.3151 3.01996 12.3156C3.00302 12.3612 2.98646 12.4068 2.9701 12.4525C2.94988 12.5088 2.93024 12.5655 2.91099 12.6222C2.85323 12.7924 2.79932 12.9644 2.74927 13.1377C2.74734 13.1443 2.74542 13.1508 2.74349 13.1576C2.73232 13.1966 2.72154 13.2358 2.71076 13.2749C2.70845 13.2835 2.70595 13.2921 2.70364 13.3008C2.69132 13.3462 2.67938 13.3916 2.66744 13.4371C2.66686 13.4397 2.66609 13.4421 2.66552 13.4446C2.65358 13.4907 2.64203 13.5368 2.63086 13.5831C2.63028 13.5851 2.6299 13.5871 2.62932 13.5891C2.61912 13.631 2.6093 13.673 2.59948 13.7151C2.59794 13.7214 2.5964 13.728 2.59486 13.7344C2.58928 13.7588 2.58389 13.7836 2.57849 13.808C2.5731 13.8321 2.56752 13.8561 2.56232 13.8802C2.5448 13.9611 2.52844 14.0424 2.51265 14.124C2.50495 14.1641 2.49744 14.2044 2.49012 14.2446C2.47838 14.3095 2.46702 14.3746 2.45624 14.4398C2.45451 14.45 2.45277 14.4601 2.45104 14.4703C2.44892 14.4839 2.44681 14.4976 2.44469 14.5113C2.43294 14.5853 2.42197 14.6594 2.41177 14.7338C2.40637 14.7724 2.40137 14.8112 2.39656 14.8499C2.39213 14.8847 2.38789 14.9195 2.38366 14.9543C2.37634 15.0164 2.3696 15.0786 2.36325 15.1411C2.35574 15.216 2.34862 15.2911 2.34265 15.3663C2.33629 15.4438 2.3311 15.5216 2.32648 15.5994C2.31415 15.8041 2.30722 16.01 2.30588 16.2172C2.30588 16.2431 2.3053 16.2688 2.3053 16.2947C2.3053 16.3421 2.30568 16.3894 2.30626 16.4368C2.30645 16.4549 2.30684 16.4727 2.30722 16.4908C2.3078 16.5194 2.30819 16.548 2.30896 16.5766C2.30953 16.5996 2.31011 16.6227 2.31088 16.6457C2.31165 16.6679 2.31223 16.6901 2.31319 16.7126C2.31415 16.7395 2.31512 16.7667 2.31646 16.7936C2.31723 16.8093 2.318 16.825 2.31858 16.8407C2.32628 17.0007 2.33706 17.1598 2.35112 17.3181C1.98281 17.0812 1.65937 16.8609 1.40369 16.6745C1.40331 16.679 1.40292 16.6836 1.40234 16.6883C1.65725 16.8747 1.9807 17.094 2.35208 17.3303C3.99704 18.3771 6.58095 19.7585 8.30388 20.1055C10.7307 20.5945 11.5649 18.1493 14.9613 18.1493C18.3577 18.1493 18.947 20.6285 21.3659 20.1055C23.3116 19.6847 25.913 18.3926 27.5616 17.4229C27.5655 17.3839 27.5693 17.3447 27.5728 17.3056C27.5728 17.3052 27.5728 17.3047 27.5728 17.3043C27.5768 17.2578 27.5807 17.2113 27.5844 17.1647C27.5845 17.1621 27.5847 17.1596 27.5849 17.157C27.5882 17.1126 27.5915 17.0679 27.5942 17.0233C27.5946 17.0176 27.5949 17.012 27.5951 17.0061C27.5976 16.9644 27.6001 16.9227 27.6023 16.8809C27.6028 16.8707 27.6032 16.8603 27.6038 16.85C27.6055 16.8124 27.6073 16.7749 27.6088 16.7372C27.6094 16.7208 27.61 16.7044 27.6105 16.6879C27.6117 16.6559 27.6129 16.6238 27.6136 16.5917C27.6142 16.5664 27.6146 16.5409 27.6152 16.5156C27.6155 16.4919 27.6161 16.4682 27.6165 16.4445C27.6171 16.3947 27.6175 16.3448 27.6175 16.2949C27.6175 16.1398 27.6144 15.9854 27.6082 15.8318C27.608 15.8265 27.6077 15.8214 27.6075 15.8161C27.6055 15.7702 27.6034 15.7243 27.6011 15.6783C27.6009 15.6747 27.6007 15.6709 27.6003 15.6672C27.5978 15.6198 27.5949 15.5726 27.5919 15.5254C27.5911 15.5152 27.5903 15.5052 27.5896 15.495C27.5867 15.4544 27.5838 15.4137 27.5805 15.3733C27.579 15.3552 27.5772 15.3372 27.5759 15.3191C27.5732 15.2865 27.5705 15.2539 27.5674 15.2215C27.5659 15.2049 27.5641 15.1885 27.5624 15.1719C27.5591 15.138 27.5559 15.1039 27.5522 15.0702C27.5509 15.0574 27.5493 15.0445 27.5478 15.0317C27.5435 14.9944 27.5395 14.9568 27.5351 14.9195C27.5328 14.9005 27.5303 14.8818 27.5278 14.8628C27.5239 14.8316 27.5201 14.8005 27.5158 14.7693C27.5129 14.7482 27.5098 14.727 27.507 14.7059C27.5029 14.6771 27.4991 14.6485 27.4948 14.6197C27.4912 14.5955 27.4873 14.5714 27.4837 14.5472C27.4798 14.5217 27.476 14.4961 27.4719 14.4706C27.4683 14.4477 27.4642 14.4247 27.4604 14.4017C27.4559 14.3753 27.4517 14.3487 27.4471 14.3223C27.4428 14.2979 27.4382 14.2734 27.4338 14.249C27.4294 14.2242 27.4249 14.1993 27.4203 14.1745C27.4159 14.1513 27.4113 14.1284 27.4068 14.1054C27.4018 14.0794 27.3968 14.0533 27.3916 14.0272C27.3874 14.0061 27.3828 13.9851 27.3784 13.9642C27.3726 13.9363 27.3668 13.9086 27.3608 13.8807C27.3558 13.8576 27.3506 13.8346 27.3454 13.8115C27.3397 13.7859 27.3343 13.7603 27.3283 13.7349C27.3227 13.7109 27.3169 13.6868 27.3112 13.6628C27.3054 13.6383 27.2998 13.6141 27.2938 13.5897C27.2877 13.5647 27.2813 13.5397 27.275 13.5148C27.2692 13.4916 27.2634 13.4683 27.2574 13.4452C27.2511 13.4202 27.2442 13.3952 27.2376 13.3704C27.2315 13.3475 27.2255 13.3243 27.2193 13.3014C27.2126 13.2768 27.2057 13.2522 27.1987 13.2276C27.1922 13.2044 27.186 13.1813 27.1793 13.1581C27.172 13.1328 27.1645 13.1075 27.1571 13.0823C27.1506 13.0601 27.1442 13.0379 27.1377 13.0158C27.1302 12.9907 27.1223 12.9655 27.1146 12.9405C27.1078 12.9185 27.1011 12.8963 27.0942 12.8742C27.0861 12.8485 27.0778 12.823 27.0695 12.7975C27.0626 12.7762 27.0559 12.7546 27.0489 12.7333C27.0401 12.7065 27.031 12.6797 27.022 12.6531C27.0152 12.6331 27.0087 12.613 27.0018 12.5932C26.9921 12.5653 26.9823 12.5374 26.9725 12.5097C26.966 12.4911 26.9596 12.4724 26.9529 12.4538C26.9425 12.4244 26.9315 12.3953 26.9209 12.3659C26.9147 12.349 26.9086 12.332 26.9024 12.3151C26.8914 12.2856 26.8801 12.256 26.8689 12.2265C26.8626 12.2101 26.8564 12.1935 26.8501 12.1769C26.8393 12.1489 26.8281 12.121 26.8169 12.0931C26.8098 12.0753 26.8031 12.0574 26.796 12.0397C26.7848 12.012 26.7734 11.9845 26.7621 11.957C26.7548 11.9391 26.7476 11.9213 26.7401 11.9034C26.7282 11.8748 26.7159 11.8462 26.7037 11.8178C26.6966 11.8012 26.6897 11.7844 26.6826 11.768C26.6699 11.7387 26.657 11.7095 26.6441 11.6803C26.6371 11.6647 26.6304 11.6488 26.6233 11.6331C26.6129 11.61 26.6025 11.587 26.5919 11.5641C26.7186 11.6486 26.8404 11.7481 26.9567 11.8578C26.9436 11.836 26.9365 11.8238 26.9365 11.8238C27.0553 11.5271 27.1618 11.236 27.2571 10.9505L27.2567 10.9503ZM5.09367 10.732C5.00415 10.7522 4.91443 10.742 4.83627 10.7092C4.83126 10.7072 4.82625 10.7052 4.82144 10.703C4.82144 10.703 4.39884 10.5056 3.99145 10.3155C3.66031 10.161 3.54575 10.1074 3.31684 10.0006C3.31664 10.0006 3.31645 10.0004 3.31626 10.0003C3.17552 9.93448 2.90079 9.80636 2.90079 9.80636C2.79124 9.75533 2.74638 9.62977 2.80029 9.52626C2.81588 9.49619 2.83821 9.4714 2.86459 9.45245C2.70691 8.65879 2.14627 5.11075 4.38902 3.73009C4.6214 3.58703 4.93426 3.68471 5.03457 3.92928L5.60946 5.17891C5.67722 5.12332 5.79428 5.12296 5.84992 5.2221C5.84992 5.2221 6.27387 6.03161 6.68357 6.81397C6.68357 6.81415 6.68357 6.81415 6.68376 6.81433C6.75923 6.95867 6.76943 6.97799 6.83759 7.10792C7.05303 7.51942 7.32468 8.03808 7.32468 8.03808C7.47851 8.32894 7.19607 8.66061 6.8657 8.58371C6.86531 8.58316 6.18704 8.42917 5.54996 8.28465C5.3507 8.23945 5.15548 8.19517 4.98624 8.15672C4.98605 8.15672 4.98586 8.15672 4.98547 8.15672C4.93946 8.14633 4.89556 8.13631 4.85398 8.12683C4.8638 8.16583 4.87419 8.20702 4.88497 8.25039C4.88497 8.25075 4.88497 8.25094 4.88517 8.2513C4.93022 8.43026 4.98316 8.64148 5.03784 8.85889C5.19283 9.47614 5.35994 10.142 5.38882 10.255C5.39132 10.2652 5.39286 10.2711 5.39325 10.2718C5.44484 10.4772 5.31084 10.6833 5.09387 10.7323L5.09367 10.732ZM11.3435 16.4027L11.3133 16.4049C11.0582 16.4166 10.7985 16.4031 10.5385 16.3668C10.5464 16.4467 10.5509 16.5281 10.5509 16.6109C10.5509 17.7327 9.79366 18.6416 8.86067 18.6416C7.92768 18.6416 7.17047 17.7327 7.17047 16.6109C7.17047 15.9799 7.41055 15.4154 7.78694 15.043C7.44251 14.7152 7.15892 14.3407 6.96543 13.9332L6.95388 13.9064C6.93867 13.8752 6.97833 13.8417 7.00932 13.8583L7.57285 14.136C8.87068 14.8065 10.1641 15.5136 11.3637 16.334C11.3939 16.3532 11.3795 16.4011 11.3435 16.4029V16.4027ZM9.83216 13.9994C8.81196 13.4442 8.11097 12.8857 8.45135 12.2837C8.79174 11.6818 9.89493 11.6439 10.9151 12.199C11.9353 12.7541 12.4865 13.6919 12.146 14.2939C11.8056 14.8958 10.8524 14.5545 9.83197 13.9994H9.83216ZM17.6676 15.6031C17.5926 15.6825 17.5138 15.7563 17.4335 15.8283C17.2745 15.9719 17.1049 16.105 16.9326 16.2338C16.5706 16.4939 16.1709 16.7443 15.748 16.9611C16.1867 17.1534 16.6276 17.3517 16.9799 17.533C17.0321 17.5594 17.0161 17.6383 16.9545 17.6414C16.73 17.6542 16.5063 17.6436 16.2838 17.6203C15.8321 17.5671 15.3818 17.4639 14.9453 17.317C14.4417 17.5046 13.9193 17.6301 13.3987 17.6591C13.2574 17.6633 13.1155 17.6613 12.975 17.6447C12.9155 17.638 12.9014 17.5589 12.9567 17.535C13.0183 17.5048 13.0803 17.4781 13.1425 17.4515C13.2027 17.4235 13.2642 17.3961 13.325 17.3703C13.5924 17.25 13.8652 17.1213 14.1409 16.989C13.521 16.69 12.95 16.3012 12.4709 15.8427C12.3943 15.7658 12.3192 15.6874 12.249 15.6038C12.2118 15.5601 12.2594 15.4934 12.3167 15.5132C12.4708 15.5595 12.6307 15.6251 12.7798 15.6813C13.4178 15.9344 14.0443 16.2161 14.6686 16.4889C14.753 16.5268 14.8417 16.566 14.9336 16.6063C15.5181 16.3247 16.1064 16.0483 16.679 15.8227C16.9838 15.7035 17.2832 15.5916 17.6064 15.5089C17.6392 15.5005 17.673 15.5192 17.6815 15.5502C17.6869 15.5695 17.6809 15.5894 17.6678 15.6034L17.6676 15.6031ZM17.7801 14.2939C17.4397 13.6919 17.9907 12.7541 19.0109 12.199C20.0311 11.6439 21.1343 11.6818 21.4747 12.2837C21.8151 12.8857 21.1143 13.4442 20.0939 13.9994C19.0735 14.5545 18.1205 14.8958 17.7799 14.2939H17.7801ZM22.9722 13.9064L22.9606 13.9332C22.7671 14.3409 22.4837 14.7154 22.1391 15.043C22.5155 15.4154 22.7556 15.9799 22.7556 16.6109C22.7556 17.7327 21.9995 18.6416 21.0654 18.6416C20.1312 18.6416 19.3752 17.7327 19.3752 16.6109C19.3752 16.5281 19.3794 16.4468 19.3875 16.3668C19.1276 16.4031 18.8679 16.4168 18.6128 16.4049L18.5825 16.4027C18.5465 16.4009 18.5319 16.353 18.5623 16.3339C19.7618 15.5134 21.0554 14.8063 22.3532 14.1359L22.9167 13.8581C22.9477 13.8415 22.9874 13.8749 22.9722 13.9062V13.9064ZM25.0474 10.703C24.8474 10.7963 24.6052 10.7187 24.5066 10.5291C24.4633 10.446 24.4548 10.3555 24.4758 10.2718C24.4758 10.2718 24.481 10.2523 24.4899 10.2175C24.5374 10.0309 24.6976 9.39194 24.8435 8.81041C24.8978 8.5941 24.95 8.38598 24.9937 8.21194C24.9937 8.21175 24.9937 8.21139 24.9939 8.21121C25.0012 8.18205 25.0083 8.1538 25.0151 8.12665C24.9862 8.13321 24.956 8.14013 24.925 8.14706H24.924V8.14724C24.7577 8.18496 24.563 8.22925 24.3624 8.27481C23.7153 8.4217 23.0082 8.58207 23.0039 8.58353C22.7854 8.63309 22.5657 8.50571 22.5134 8.29905C22.4903 8.20793 22.5037 8.11608 22.5444 8.03808L23.0469 7.07858L23.1986 6.78882L23.1988 6.78827L24.0189 5.22191C24.0738 5.1235 24.1914 5.12296 24.2594 5.17854L24.8343 3.9291C24.9346 3.68453 25.2475 3.58685 25.4798 3.72991C27.7222 5.11038 27.162 8.6577 27.0043 9.4519C27.1177 9.53628 27.1336 9.72399 26.9681 9.80618C26.9681 9.80618 26.8129 9.87871 26.5909 9.98222C26.5907 9.98222 26.5903 9.9824 26.5901 9.98259C26.3974 10.0726 26.1543 10.186 25.9184 10.2962C25.528 10.4785 25.1574 10.6514 25.068 10.6931C25.0547 10.6993 25.0476 10.7026 25.0476 10.7026L25.0474 10.703Z" fill="#FFC165"/>
<path d="M15.4324 25.147L15.0052 26.7159C14.9826 26.7982 14.8534 26.7979 14.8313 26.7159C14.8313 26.7159 14.5431 25.6576 14.4029 25.1426C13.3469 25.2031 12.3165 25.4686 11.5674 25.9831C11.5959 26.0733 11.6244 26.1644 11.6525 26.2561C11.7272 26.4862 11.8244 26.7115 11.9388 26.918C12.2285 27.4417 12.6313 27.8583 13.1138 28.1479C13.5947 28.4366 14.155 28.599 14.7616 28.6154C15.4185 28.6339 16.0469 28.4779 16.5972 28.1756C17.1345 27.8804 17.5975 27.4456 17.9393 26.8963C18.0644 26.6951 18.1736 26.4777 18.2643 26.2497C18.2854 26.1655 18.3064 26.0829 18.3276 26.0022C17.6568 25.5262 16.5795 25.2219 15.4326 25.147H15.4324Z" fill="#00E1B7"/>
<path d="M24.0018 25.7034L22.3515 26.021C21.1934 26.8109 19.8886 27.4199 18.4832 27.8046C17.6147 28.9434 16.2969 29.6033 14.8631 29.6033C14.8209 29.6033 14.7788 29.6028 14.7364 29.6017C13.3498 29.5641 12.1088 28.8904 11.3389 27.7771C6.45023 26.3973 2.80106 22.2964 2.35189 17.3305C1.98051 17.0941 1.65706 16.8749 1.40216 16.6885C1.36673 17.0692 1.34863 17.4528 1.34863 17.8386C1.34863 19.5784 1.70847 21.2658 2.41812 22.8539C3.10371 24.3881 4.08522 25.7662 5.33569 26.9497C6.58615 28.1332 8.04185 29.0624 9.66274 29.7114C11.3406 30.3831 13.1232 30.7237 14.9611 30.7237C16.799 30.7237 18.5818 30.3831 20.2595 29.7114C21.8803 29.0624 23.3362 28.1334 24.5865 26.9497C25.4564 26.1264 26.196 25.2086 26.7967 24.2097C26.2068 24.4182 25.5798 24.597 24.9227 24.743C24.8718 25.2066 24.5099 25.6055 24.0018 25.7032V25.7034Z" fill="#B9DCFF"/>
<path d="M28.5315 16.8174C28.5194 16.8256 28.5072 16.8338 28.4947 16.842C28.2385 17.0184 27.9197 17.2254 27.559 17.4478C27.3105 19.9129 26.2726 22.1599 24.6875 23.9603C24.694 23.9683 24.7004 23.9765 24.7068 23.9849C25.6771 23.771 26.575 23.4836 27.3756 23.1324C27.4195 23.0402 27.4624 22.9472 27.5042 22.8539C28.2138 21.2657 28.5737 19.5783 28.5737 17.8387C28.5737 17.4962 28.5594 17.1556 28.5315 16.8174Z" fill="#B9DCFF"/>
<path d="M9.83353 21.8173C10.5936 22.3069 11.3556 22.5528 12.1294 22.5551C12.1837 22.5551 12.2378 22.5544 12.2923 22.552C12.7732 22.5324 13.2592 22.4188 13.7522 22.2114C13.3832 22.0223 13.0632 21.762 12.8169 21.4805C12.0493 21.9109 10.9184 21.968 9.03223 21.249L9.79117 21.793C9.80561 21.8003 9.81986 21.8081 9.83372 21.8171L9.83353 21.8173Z" fill="#B9DCFF"/>
<path d="M17.8147 22.5546C18.5784 22.5462 19.3306 22.3004 20.0811 21.8169C20.1056 21.8012 20.131 21.7881 20.157 21.7773L20.8599 21.2734C18.9604 21.9572 17.8272 21.9658 17.1287 21.458C16.8788 21.7495 16.55 22.0195 16.1689 22.2138C16.6697 22.4236 17.1628 22.5364 17.6512 22.5528C17.7057 22.5546 17.7602 22.5551 17.8145 22.5546H17.8147Z" fill="#B9DCFF"/>
<path d="M21.3654 20.1062C18.9467 20.6292 18.3571 18.15 14.9608 18.15C11.5644 18.15 10.7302 20.595 8.30336 20.1062C6.58024 19.759 3.99633 18.3777 2.35156 17.3311C2.80073 22.2969 6.4499 26.3977 11.3386 27.7776C11.2569 27.6595 11.1805 27.5365 11.1098 27.4088C10.9645 27.1465 10.8415 26.8615 10.7444 26.5623C10.0057 24.1529 9.24366 22.6321 9.15914 22.4666L8.37402 20.9447C8.33724 20.8815 8.41734 20.8058 8.47529 20.8503L9.03227 21.2496C10.9185 21.9685 12.0494 21.9115 12.817 21.481C12.4816 21.0976 12.2827 20.6748 12.2827 20.3395C12.2827 19.5156 13.4827 18.8477 14.9633 18.8477C16.4438 18.8477 17.6438 19.5156 17.6438 20.3395C17.6438 20.6682 17.4525 21.0812 17.1288 21.4588C17.8273 21.9665 18.9605 21.958 20.86 21.2742L21.4514 20.8501C21.5094 20.8057 21.5895 20.8813 21.5527 20.9445L20.7495 22.4781C20.2659 23.367 19.7177 24.3745 19.18 26.5286C19.1748 26.5493 19.1685 26.5696 19.1608 26.5892C19.0456 26.8852 18.9047 27.168 18.7416 27.4301C18.6608 27.5602 18.5743 27.6851 18.4831 27.8048C19.8885 27.4201 21.1933 26.811 22.3513 26.0212L21.8184 26.1238C21.1919 26.2444 20.5808 25.8614 20.4536 25.2685C20.3261 24.6755 20.7308 24.0971 21.3571 23.9766L23.5404 23.5564C23.9872 23.4704 24.4262 23.6408 24.6873 23.9606C26.2723 22.1604 27.3103 19.9132 27.5588 17.4481C27.5596 17.4399 27.5603 17.4317 27.5611 17.4235C25.9127 18.3932 23.3111 19.6852 21.3654 20.106V20.1062Z" fill="white"/>
<path d="M11.6416 23.462L11.8746 23.8786C12.0176 24.1342 12.3609 24.1403 12.5114 23.8897L12.8717 23.291C12.4595 23.4067 12.0492 23.4689 11.6416 23.4618V23.462Z" fill="white"/>
<path d="M17.0732 23.3049L17.3944 23.8789C17.5374 24.1346 17.8807 24.1406 18.0315 23.89L18.2856 23.4674C17.8838 23.4767 17.4795 23.4171 17.0732 23.3047V23.3049Z" fill="white"/>
<path d="M20.0332 16.7347C20.0332 17.087 20.2558 17.3727 20.5301 17.3727C20.8045 17.3727 21.027 17.0872 21.027 16.7347C21.027 16.3823 20.8045 16.0967 20.5301 16.0967C20.2558 16.0967 20.0332 16.3823 20.0332 16.7347Z" fill="white"/>
<path d="M9.39633 16.0967C9.12198 16.0967 8.89941 16.3823 8.89941 16.7347C8.89941 17.0872 9.12198 17.3727 9.39633 17.3727C9.67068 17.3727 9.89324 17.0872 9.89324 16.7347C9.89324 16.3823 9.67068 16.0967 9.39633 16.0967Z" fill="white"/>
<path d="M20.0942 13.9997C21.1144 13.4446 21.8154 12.8861 21.475 12.2841C21.1346 11.6822 20.0314 11.6443 19.0112 12.1994C17.991 12.7545 17.4398 13.6923 17.7804 14.2942C18.1208 14.8962 19.074 14.5548 20.0944 13.9997H20.0942Z" fill="white"/>
<path d="M9.83277 13.9997C10.853 14.5548 11.8062 14.8962 12.1468 14.2942C12.4871 13.6923 11.9361 12.7545 10.9159 12.1994C9.89572 11.6443 8.79254 11.6822 8.45215 12.2841C8.11176 12.8861 8.81256 13.4446 9.83296 13.9997H9.83277Z" fill="white"/>
<path d="M16.0775 19.5326C15.9133 19.426 15.4764 19.3496 14.9631 19.3496C14.3093 19.3496 13.7793 19.4733 13.7793 19.6261C13.7793 19.7126 13.9497 19.7899 14.2165 19.8406C14.4202 19.8792 14.6801 19.9025 14.9631 19.9025C15.617 19.9025 16.147 19.7788 16.147 19.6261C16.147 19.5933 16.1224 19.5617 16.0775 19.5326Z" fill="white"/>
<path d="M27.6162 13.0825L27.5635 12.957C27.2993 12.4416 27.031 11.9834 26.9566 11.8582C26.8403 11.7483 26.7185 11.6488 26.5918 11.5645C26.6022 11.5874 26.6128 11.6104 26.6232 11.6335C26.6301 11.6492 26.637 11.6649 26.644 11.6807C26.6569 11.7099 26.6698 11.739 26.6825 11.7684C26.6896 11.785 26.6965 11.8015 26.7037 11.8181C26.7158 11.8467 26.7281 11.8752 26.74 11.9038C26.7476 11.9216 26.7547 11.9395 26.762 11.9574C26.7733 11.9849 26.7847 12.0124 26.7959 12.0401C26.803 12.0578 26.8099 12.0756 26.8169 12.0935C26.8278 12.1214 26.839 12.1493 26.85 12.1773C26.8563 12.1937 26.8625 12.2103 26.8688 12.2269C26.88 12.2564 26.8914 12.2858 26.9023 12.3155C26.9087 12.3324 26.9147 12.3494 26.9208 12.3663C26.9316 12.3955 26.9424 12.4248 26.9528 12.4542C26.9595 12.4727 26.9659 12.4915 26.9724 12.5101C26.9822 12.538 26.9921 12.5657 27.0017 12.5936C27.0084 12.6134 27.0152 12.6335 27.0219 12.6535C27.031 12.6803 27.04 12.7069 27.0489 12.7337C27.0558 12.755 27.0625 12.7765 27.0695 12.7979C27.0777 12.8234 27.086 12.8491 27.0941 12.8746C27.101 12.8966 27.1078 12.9189 27.1145 12.9409C27.1222 12.9661 27.1301 12.991 27.1376 13.0162C27.1442 13.0382 27.1505 13.0605 27.1571 13.0827C27.1646 13.108 27.1721 13.1332 27.1792 13.1585C27.1857 13.1817 27.1921 13.2048 27.1986 13.2279C27.2056 13.2525 27.2125 13.277 27.2192 13.3018C27.2254 13.3247 27.2314 13.3479 27.2375 13.3708C27.2441 13.3958 27.2508 13.4206 27.2574 13.4455C27.2633 13.4687 27.2689 13.4918 27.2749 13.5152C27.2812 13.5401 27.2876 13.5651 27.2938 13.5901C27.2997 13.6143 27.3053 13.6387 27.3111 13.6631C27.3169 13.6872 27.3226 13.7112 27.3282 13.7353C27.334 13.7608 27.3396 13.7863 27.3453 13.8118C27.3505 13.835 27.3557 13.858 27.3608 13.8811C27.3667 13.9088 27.3725 13.9367 27.3783 13.9646C27.3827 13.9855 27.3871 14.0065 27.3916 14.0276C27.3968 14.0537 27.4018 14.0797 27.4068 14.1058C27.4112 14.1289 27.416 14.1519 27.4202 14.1749C27.4249 14.1997 27.4293 14.2244 27.4337 14.2494C27.4381 14.2738 27.4428 14.2982 27.447 14.3227C27.4516 14.3491 27.4559 14.3757 27.4603 14.4021C27.4641 14.4251 27.4682 14.448 27.4718 14.471C27.4759 14.4965 27.4797 14.522 27.4836 14.5476C27.4872 14.5716 27.4913 14.5958 27.4947 14.6201C27.499 14.6487 27.5028 14.6775 27.5069 14.7063C27.5098 14.7274 27.513 14.7484 27.5157 14.7697C27.52 14.8009 27.5238 14.832 27.5277 14.8632C27.53 14.8821 27.5327 14.9009 27.535 14.9199C27.5394 14.9572 27.5437 14.9946 27.5477 15.0321C27.549 15.0449 27.5508 15.0576 27.5521 15.0706C27.5558 15.1045 27.5591 15.1384 27.5623 15.1723C27.5639 15.1889 27.5658 15.2053 27.5673 15.2218C27.5704 15.2543 27.5731 15.2869 27.5758 15.3195C27.5773 15.3376 27.5791 15.3556 27.5804 15.3736C27.5837 15.4141 27.5866 15.4547 27.5895 15.4954C27.5902 15.5056 27.591 15.5156 27.5918 15.5258C27.5949 15.573 27.5978 15.6202 27.6003 15.6676C27.6004 15.6712 27.6006 15.6751 27.601 15.6787C27.6035 15.7245 27.6056 15.7704 27.6074 15.8165C27.6076 15.8218 27.608 15.8269 27.6081 15.8322C27.6143 15.9858 27.6174 16.1402 27.6174 16.2952C27.6174 16.3452 27.617 16.3949 27.6164 16.4449C27.616 16.4685 27.6155 16.4922 27.6151 16.5159C27.6145 16.5413 27.6141 16.5668 27.6135 16.5921C27.6128 16.6242 27.6116 16.6563 27.6105 16.6883C27.6099 16.7047 27.6095 16.7211 27.6087 16.7375C27.6072 16.7753 27.6055 16.8128 27.6037 16.8503C27.6031 16.8605 27.6028 16.8709 27.6022 16.8813C27.6001 16.9231 27.5976 16.9648 27.5951 17.0065C27.5947 17.0122 27.5945 17.0178 27.5941 17.0237C27.5912 17.0683 27.5881 17.113 27.5849 17.1574C27.5847 17.16 27.5845 17.1625 27.5843 17.1651C27.5808 17.2117 27.577 17.2582 27.5727 17.3047C27.5727 17.305 27.5727 17.3056 27.5727 17.3059C27.5693 17.3451 27.5654 17.3843 27.5616 17.4233C27.5608 17.4315 27.56 17.4397 27.5592 17.4479C27.9199 17.2258 28.2387 17.0187 28.4949 16.8421C28.5073 16.8336 28.5196 16.8252 28.5315 16.8168C28.4254 15.5322 28.1191 14.28 27.6162 13.0825Z" fill="#FD9230"/>
<path d="M2.81647 12.0091C2.6638 11.7929 2.53211 11.5846 2.41409 11.3658C2.41409 11.3654 2.4137 11.3652 2.4137 11.3648C2.07813 10.7425 1.85287 10.0343 1.5712 8.81348C1.66285 9.8794 1.84286 10.9415 2.1022 11.9371C2.1022 11.9374 2.10239 11.9378 2.10258 11.9382C2.16573 12.1806 2.2335 12.4189 2.30589 12.6524C2.30955 12.664 2.31301 12.6759 2.31667 12.6875L2.38271 12.8986L2.29723 13.1032C2.24216 13.2348 2.1898 13.3673 2.13955 13.5002C1.75199 14.5254 1.50574 15.5883 1.40332 16.6748C1.659 16.8612 1.98264 17.0816 2.35075 17.3185C2.33669 17.1601 2.32572 17.001 2.31821 16.841C2.31744 16.8253 2.31667 16.8096 2.31609 16.794C2.31494 16.767 2.31398 16.74 2.31282 16.7129C2.31205 16.6906 2.31128 16.6684 2.31051 16.646C2.30974 16.623 2.30916 16.5999 2.30858 16.5769C2.30781 16.5483 2.30743 16.5197 2.30685 16.4911C2.30647 16.4731 2.30608 16.4552 2.30589 16.4371C2.30531 16.3898 2.30493 16.3424 2.30493 16.295C2.30493 16.2691 2.30531 16.2434 2.3055 16.2175C2.30685 16.0103 2.31378 15.8044 2.3261 15.5998C2.33073 15.5219 2.33612 15.4441 2.34228 15.3667C2.34844 15.2914 2.35537 15.2163 2.36288 15.1414C2.36923 15.0791 2.37597 15.0168 2.38329 14.9546C2.38733 14.9198 2.39176 14.885 2.39618 14.8502C2.40119 14.8114 2.4062 14.7727 2.41139 14.7341C2.4216 14.6598 2.43257 14.5856 2.44432 14.5116C2.44643 14.4979 2.44836 14.4843 2.45067 14.4706C2.4524 14.4604 2.45414 14.4502 2.45587 14.4402C2.46665 14.3749 2.47801 14.3099 2.48975 14.245C2.49707 14.2047 2.50458 14.1646 2.51228 14.1243C2.52807 14.0429 2.54443 13.9616 2.56195 13.8805C2.56715 13.8564 2.57273 13.8324 2.57812 13.8083C2.58351 13.7837 2.5889 13.7591 2.59449 13.7347C2.59603 13.7283 2.59757 13.7218 2.59911 13.7154C2.60893 13.6733 2.61875 13.6314 2.62895 13.5895C2.62953 13.5875 2.62991 13.5854 2.63049 13.5834C2.64185 13.5372 2.6534 13.491 2.66515 13.4449C2.66572 13.4424 2.66649 13.44 2.66707 13.4375C2.67882 13.3919 2.69094 13.3463 2.70327 13.3012C2.70558 13.2926 2.70808 13.2838 2.71039 13.2753C2.72117 13.2361 2.73195 13.1969 2.74312 13.1579C2.74504 13.1514 2.74697 13.1448 2.7489 13.138C2.81551 12.9068 2.88906 12.6783 2.96972 12.4528C2.98609 12.4071 3.00265 12.3613 3.01959 12.316C3.01978 12.3154 3.01997 12.3147 3.02036 12.3141C3.03037 12.287 3.04096 12.26 3.05116 12.2329C3.05829 12.2139 3.06541 12.195 3.07273 12.176C3.07561 12.1683 3.07869 12.1609 3.08158 12.1532C3.11431 12.0692 3.14781 11.9854 3.18247 11.9023C3.18381 11.899 3.18516 11.8959 3.18651 11.8926C3.23233 11.7829 3.27989 11.6741 3.32898 11.566C3.14762 11.6874 2.97608 11.8396 2.81647 12.0085V12.0091Z" fill="#FD9230"/>
<path d="M27.0046 9.45252C27.1623 8.65831 27.7226 5.111 25.4802 3.73053C25.2478 3.58747 24.935 3.68515 24.8346 3.92972L24.2598 5.17916C24.3002 5.21232 24.3229 5.26536 24.304 5.32969C24.304 5.32969 23.9966 6.28135 23.7155 7.15118C23.7155 7.15137 23.7155 7.15155 23.7155 7.15173C23.6566 7.33379 23.6404 7.3839 23.5923 7.53316C23.568 7.60806 23.5505 7.66273 23.5303 7.72469C23.6092 7.71686 23.6922 7.70847 23.7773 7.70009C23.9627 7.6815 24.1585 7.662 24.3462 7.64342C24.3466 7.64342 24.3468 7.64342 24.3472 7.64342C24.8683 7.59148 25.3269 7.54573 25.3273 7.54555C25.4783 7.53043 25.6136 7.63412 25.6294 7.777C25.6315 7.79595 25.6311 7.816 25.629 7.83422C25.629 7.83422 25.5691 8.32226 25.5195 8.72866C25.5195 8.72902 25.5195 8.7292 25.5195 8.72957C25.474 9.10098 25.4638 9.18426 25.4194 9.54674C25.4063 9.6528 25.4007 9.69909 25.3901 9.78602C25.4621 9.76743 25.4779 9.76324 25.5578 9.74246C25.8918 9.6559 25.9833 9.63221 26.2582 9.56095C26.2586 9.56095 26.2588 9.56095 26.259 9.56077C26.4759 9.50446 26.8121 9.41735 26.8121 9.41735C26.8897 9.39912 26.9559 9.41643 27.0044 9.45252H27.0046Z" fill="#FD9230"/>
<path d="M6.16378 7.18235V7.1818L5.56521 5.32969C5.54615 5.2659 5.56906 5.21269 5.60968 5.17934L5.0348 3.92972C4.93449 3.68515 4.62163 3.58747 4.38925 3.73053C2.1465 5.11118 2.70733 8.65922 2.86482 9.45288C2.91873 9.41407 2.98977 9.39985 3.05715 9.41735C3.05715 9.41735 3.40832 9.50828 3.65264 9.5717C3.65303 9.5717 3.65322 9.5717 3.6536 9.57189C3.9422 9.64679 4.02826 9.66902 4.35633 9.75394C4.4137 9.76889 4.4266 9.77217 4.47955 9.78584L4.45779 9.60888L4.35575 8.77695V8.77568L4.24024 7.83367C4.2179 7.67002 4.37115 7.52496 4.54366 7.54519C4.54366 7.54519 5.02883 7.59366 5.5681 7.64761C5.56848 7.64761 5.56868 7.64761 5.56887 7.64761C5.7587 7.66656 5.95489 7.68624 6.13933 7.70465C6.20787 7.71157 6.27487 7.71813 6.33917 7.72469L6.28892 7.56924L6.16378 7.18198V7.18235Z" fill="#FD9230"/>
<path d="M17.606 15.5092C17.2827 15.5919 16.9831 15.7038 16.6786 15.823C16.106 16.0486 15.5176 16.3251 14.9331 16.6067C14.8413 16.5664 14.7525 16.5272 14.6682 16.4893C14.0438 16.2165 13.4173 15.9347 12.7793 15.6816C12.6303 15.6255 12.4703 15.5599 12.3163 15.5136C12.2589 15.4937 12.2114 15.5604 12.2485 15.6042C12.319 15.6876 12.3939 15.7662 12.4705 15.8431C12.9497 16.3016 13.5205 16.6903 14.1405 16.9894C13.8648 17.1217 13.5922 17.2505 13.3245 17.3706C13.2637 17.3965 13.2023 17.4238 13.142 17.4519C13.08 17.4783 13.0178 17.5051 12.9562 17.5354C12.901 17.5591 12.915 17.6383 12.9745 17.6451C13.1151 17.6617 13.257 17.6637 13.3983 17.6595C13.9189 17.6307 14.4412 17.5049 14.9449 17.3174C15.3813 17.4643 15.8316 17.5676 16.2833 17.6207C16.5061 17.644 16.7296 17.6547 16.9541 17.6418C17.0159 17.6387 17.0317 17.5598 16.9795 17.5334C16.6272 17.352 16.1863 17.1538 15.7475 16.9615C16.1705 16.7446 16.5702 16.4942 16.9321 16.2342C17.1044 16.1053 17.2741 15.9725 17.4331 15.8287C17.5134 15.7567 17.5923 15.6829 17.6672 15.6034C17.6801 15.5894 17.6861 15.5695 17.6809 15.5502C17.6724 15.5191 17.6387 15.5005 17.6058 15.5088L17.606 15.5092Z" fill="#FD9230"/>
<path d="M27.0042 9.45221C26.9557 9.41613 26.8895 9.39882 26.8119 9.41704C26.8119 9.41704 26.4758 9.50415 26.2588 9.56046C26.2584 9.56046 26.2582 9.56046 26.258 9.56065C25.9831 9.6319 25.8916 9.65559 25.5576 9.74216C25.4777 9.76293 25.4617 9.76694 25.3899 9.78571C25.4005 9.69878 25.4063 9.6525 25.4192 9.54643C25.4636 9.18395 25.4738 9.10067 25.5193 8.72926C25.5193 8.7289 25.5193 8.72872 25.5193 8.72835C25.5691 8.32196 25.6288 7.83392 25.6288 7.83392C25.6309 7.81569 25.6313 7.79565 25.6292 7.77669C25.6132 7.63382 25.4781 7.5303 25.3271 7.54525C25.3267 7.54525 24.8681 7.59117 24.347 7.64311C24.3466 7.64311 24.3464 7.64311 24.346 7.64311C24.1583 7.66188 23.9625 7.68138 23.7771 7.69979C23.692 7.70835 23.609 7.71655 23.5301 7.72439C23.5501 7.66243 23.5678 7.60776 23.5921 7.53285C23.6402 7.3836 23.6566 7.33348 23.7153 7.15142C23.7153 7.15142 23.7153 7.15106 23.7153 7.15088C23.9964 6.28104 24.3038 5.32938 24.3038 5.32938C24.3227 5.26505 24.3 5.21202 24.2596 5.17885C24.1918 5.12327 24.0742 5.12382 24.0191 5.22223L23.1989 6.78858V6.78913H23.1985L23.0468 7.07889L22.5443 8.03839C22.5035 8.11639 22.49 8.20806 22.5133 8.29936C22.5657 8.5062 22.7854 8.63359 23.0039 8.58384C23.0083 8.58256 23.7153 8.42219 24.3624 8.27512C24.563 8.22956 24.7576 8.18546 24.924 8.14755C24.924 8.14755 24.9246 8.14755 24.9249 8.14737C24.9561 8.14026 24.9862 8.13352 25.015 8.12696C25.0083 8.15411 25.0012 8.18236 24.9939 8.21152C24.9939 8.2117 24.9939 8.21207 24.9937 8.21225C24.95 8.38629 24.8978 8.59441 24.8435 8.81073C24.6976 9.39226 24.5372 10.031 24.4898 10.2178C24.481 10.2526 24.476 10.2721 24.4758 10.2721C24.4548 10.3556 24.4633 10.4463 24.5066 10.5294C24.6052 10.7188 24.8474 10.7966 25.0474 10.7033C25.0474 10.7033 25.0545 10.7 25.0678 10.6938C25.1571 10.6521 25.5276 10.4791 25.9182 10.2969C26.154 10.1868 26.397 10.0733 26.5899 9.98326C26.5901 9.98326 26.5905 9.98308 26.5907 9.9829C26.8127 9.8792 26.9679 9.80685 26.9679 9.80685C27.1334 9.72485 27.1174 9.53696 27.004 9.45258L27.0042 9.45221Z" fill="#1E0046"/>
<path d="M7.32436 8.03833C7.32436 8.03833 7.05271 7.51967 6.83727 7.10817C6.76931 6.97823 6.7591 6.95892 6.68344 6.81458C6.68344 6.8144 6.68344 6.8144 6.68325 6.81422C6.27355 6.03186 5.8496 5.22234 5.8496 5.22234C5.79415 5.12321 5.6769 5.12357 5.60913 5.17915C5.56851 5.2125 5.54579 5.26572 5.56466 5.3295L6.16323 7.18161V7.18216H6.16342L6.28856 7.56942L6.33881 7.72487C6.27451 7.71849 6.20751 7.71175 6.13897 7.70483C5.95472 7.68642 5.75834 7.66674 5.56851 7.64779C5.56813 7.64779 5.56793 7.64779 5.56774 7.64779C5.02847 7.59384 4.5433 7.54537 4.5433 7.54537C4.3708 7.52514 4.21735 7.6702 4.23988 7.83385L4.3554 8.77585V8.77695L4.45743 9.60888L4.47919 9.78583C4.42644 9.77216 4.41354 9.76888 4.35597 9.75394C4.0281 9.66902 3.94204 9.6466 3.65325 9.57188C3.65286 9.57188 3.65267 9.57188 3.65228 9.5717C3.40797 9.50828 3.0568 9.41734 3.0568 9.41734C2.9896 9.39985 2.91837 9.41406 2.86446 9.45288C2.83809 9.47183 2.81575 9.49662 2.80016 9.52669C2.74625 9.63038 2.79111 9.75576 2.90066 9.80679C2.90066 9.80679 3.1752 9.93491 3.31613 10.0007C3.31632 10.0007 3.31652 10.0009 3.31671 10.0011C3.54562 10.1079 3.66018 10.1614 3.99133 10.316C4.39871 10.5062 4.82131 10.7034 4.82131 10.7034C4.82613 10.7056 4.83132 10.7076 4.83614 10.7096C4.9143 10.7424 5.00402 10.7526 5.09355 10.7324C5.31052 10.6836 5.44452 10.4773 5.39293 10.2719C5.39273 10.2711 5.39119 10.2651 5.3885 10.2551C5.35962 10.1421 5.19251 9.47621 5.03752 8.85896C4.98304 8.64154 4.9299 8.43033 4.88485 8.25137C4.88485 8.25137 4.88485 8.25082 4.88465 8.25046C4.87387 8.20726 4.86348 8.16608 4.85366 8.1269C4.89524 8.13637 4.93933 8.1464 4.98515 8.15678C4.98535 8.15678 4.98554 8.15678 4.98592 8.15678C5.15515 8.19524 5.35038 8.23952 5.54964 8.28472C6.18652 8.42923 6.8648 8.58323 6.86538 8.58377C7.19575 8.66068 7.47838 8.329 7.32436 8.03814V8.03833Z" fill="#1E0046"/>
<path d="M21.451 20.8501L20.8596 21.2742L20.1566 21.7781C20.1306 21.7888 20.1052 21.8018 20.0808 21.8176C19.3303 22.3011 18.5779 22.547 17.8144 22.5553C17.7599 22.5559 17.7056 22.5553 17.6511 22.5535C17.1628 22.5373 16.6696 22.4243 16.1688 22.2146C16.5498 22.0203 16.8787 21.75 17.1286 21.4588C17.4524 21.0812 17.6436 20.6684 17.6436 20.3395C17.6436 19.5156 16.4436 18.8477 14.963 18.8477C13.4825 18.8477 12.2825 19.5156 12.2825 20.3395C12.2825 20.6748 12.4811 21.0974 12.8167 21.481C13.063 21.7626 13.3829 22.0228 13.752 22.212C13.259 22.4194 12.7732 22.5329 12.2921 22.5526C12.2378 22.5548 12.1835 22.5559 12.1292 22.5557C11.3554 22.5533 10.5934 22.3075 9.83331 21.8178C9.81945 21.8089 9.80521 21.801 9.79077 21.7938L9.03182 21.2498L8.47484 20.8505C8.41689 20.806 8.3368 20.8816 8.37357 20.9449L9.1587 22.4668C9.24322 22.6322 10.0052 24.153 10.744 26.5625C10.841 26.8617 10.964 27.1465 11.1094 27.409C11.18 27.5367 11.2565 27.6597 11.3381 27.7778C12.108 28.8909 13.3489 29.5649 14.7356 29.6024C14.778 29.6035 14.8202 29.604 14.8623 29.604C16.2961 29.604 17.6141 28.9443 18.4824 27.8053C18.5737 27.6856 18.6599 27.5608 18.741 27.4306C18.9039 27.1686 19.045 26.8856 19.1601 26.5898C19.1678 26.5701 19.1744 26.5497 19.1794 26.5291C19.7171 24.3748 20.2652 23.3674 20.7489 22.4786L21.5521 20.9451C21.5889 20.8818 21.5088 20.8062 21.4508 20.8507L21.451 20.8501ZM18.2855 23.4675L18.0313 23.8901C17.8806 24.1407 17.5373 24.1346 17.3943 23.879L17.0731 23.3049C17.4794 23.4173 17.8837 23.4769 18.2855 23.4676V23.4675ZM12.8716 23.2914L12.5114 23.8901C12.3606 24.1407 12.0173 24.1346 11.8745 23.879L11.6415 23.4624C12.0493 23.4695 12.4594 23.4071 12.8716 23.2916V23.2914ZM18.2633 26.2501C18.1726 26.4781 18.0635 26.6955 17.9383 26.8967C17.5964 27.4458 17.1336 27.8808 16.5962 28.176C16.046 28.4783 15.4176 28.6343 14.7607 28.6158C14.154 28.5994 13.5938 28.437 13.1128 28.1483C12.6304 27.8587 12.2276 27.4421 11.9378 26.9184C11.8235 26.7119 11.7262 26.4865 11.6515 26.2565C11.6234 26.1646 11.5949 26.0737 11.5664 25.9835C12.3158 25.469 13.346 25.2035 14.402 25.143C14.5422 25.658 14.8304 26.7163 14.8304 26.7163C14.8525 26.7985 14.9819 26.7986 15.0042 26.7163L15.4314 25.1474C16.5783 25.2223 17.6557 25.5266 18.3265 26.0026C18.3053 26.0835 18.2843 26.1659 18.2631 26.2501H18.2633ZM14.963 19.3503C15.4763 19.3503 15.9131 19.4266 16.0774 19.5332C16.1222 19.5624 16.1469 19.5939 16.1469 19.6267C16.1469 19.7795 15.6168 19.9032 14.963 19.9032C14.6798 19.9032 14.4201 19.8799 14.2164 19.8412C13.9497 19.7906 13.7792 19.7133 13.7792 19.6267C13.7792 19.474 14.3092 19.3503 14.963 19.3503Z" fill="#1E0046"/>
<path d="M22.9167 13.8587L22.3531 14.1364C21.0553 14.8069 19.7619 15.514 18.5623 16.3344C18.5321 16.3536 18.5465 16.4015 18.5825 16.4033L18.6127 16.4055C18.8678 16.4172 19.1275 16.4037 19.3875 16.3674C19.3796 16.4472 19.3751 16.5287 19.3751 16.6114C19.3751 17.7333 20.1323 18.6422 21.0653 18.6422C21.9983 18.6422 22.7555 17.7333 22.7555 16.6114C22.7555 15.9805 22.5154 15.4159 22.1391 15.0436C22.4835 14.7158 22.7671 14.3413 22.9606 13.9338L22.9721 13.907C22.9873 13.8758 22.9477 13.8423 22.9167 13.8589V13.8587ZM20.5303 17.3723C20.2559 17.3723 20.0334 17.0867 20.0334 16.7343C20.0334 16.3818 20.2559 16.0963 20.5303 16.0963C20.8046 16.0963 21.0272 16.3818 21.0272 16.7343C21.0272 17.0867 20.8046 17.3723 20.5303 17.3723Z" fill="#1E0046"/>
<path d="M10.5515 16.6116C10.5515 16.5289 10.5473 16.4476 10.5392 16.3676C10.7991 16.4039 11.0588 16.4176 11.3139 16.4057L11.3442 16.4035C11.3802 16.4017 11.3948 16.3538 11.3644 16.3346C10.1649 15.5142 8.87133 14.8071 7.5735 14.1366L7.00998 13.8589C6.97898 13.8423 6.93932 13.8757 6.95453 13.907L6.96608 13.9338C7.15957 14.3415 7.44297 14.716 7.78759 15.0436C7.4112 15.416 7.17112 15.9805 7.17112 16.6115C7.17112 17.7333 7.92718 18.6422 8.86132 18.6422C9.79546 18.6422 10.5515 17.7333 10.5515 16.6115V16.6116ZM9.39635 17.3727C9.122 17.3727 8.89944 17.0871 8.89944 16.7347C8.89944 16.3822 9.122 16.0966 9.39635 16.0966C9.67071 16.0966 9.89327 16.3822 9.89327 16.7347C9.89327 17.0871 9.67071 17.3727 9.39635 17.3727Z" fill="#1E0046"/>
<path d="M31.5433 16.9926C31.1361 16.1727 30.4631 15.3839 29.5395 14.6429C29.3884 14.0237 29.1929 13.4139 28.9533 12.8161C29.6623 10.4261 29.9211 7.62484 29.6454 5.27503C29.4916 3.96435 29.1824 2.86544 28.7263 2.00891C28.1801 0.983261 27.4398 0.334302 26.5259 0.0798942C25.8632 -0.104533 25.1316 0.0306892 24.3513 0.481917C23.7858 0.808857 23.1778 1.31312 22.5438 1.98085C21.6811 2.88968 20.9293 3.92718 20.4393 4.65669C18.6967 4.00627 16.8566 3.67696 14.9609 3.67696C13.0653 3.67696 11.2163 4.00791 9.46985 4.66142C8.98025 3.9321 8.2294 2.89533 7.36687 1.98595C6.7323 1.31676 6.12353 0.811408 5.5575 0.483557C4.77603 0.0310537 4.04346 -0.104716 3.38001 0.0798942C2.51556 0.320452 1.80475 0.916014 1.2676 1.85C0.76934 2.71655 0.171542 4.32701 0.153252 7.07994C0.140545 9.01515 0.426063 11.0508 0.959365 12.8389C0.322676 14.435 0 16.116 0 17.8387C0 19.7502 0.395644 21.6049 1.17596 23.3511C1.92951 25.0376 3.00824 26.552 4.38193 27.8523C5.75561 29.1526 7.35551 30.1737 9.13716 30.8869C10.9822 31.6256 12.9415 32.0001 14.9609 32.0001C16.9804 32.0001 18.9397 31.6256 20.7845 30.8869C22.5662 30.1737 24.1661 29.1526 25.5397 27.8523C26.9134 26.552 27.9922 25.0374 28.7457 23.3511C28.7488 23.3444 28.7515 23.3376 28.7546 23.3309C28.9581 23.2161 29.1541 23.0967 29.3412 22.9728C30.7049 22.0701 31.5841 20.9616 31.8841 19.7668C32.1151 18.8463 32.0004 17.9129 31.5433 16.9924V16.9926ZM24.7067 23.9848C24.7003 23.9766 24.694 23.9684 24.6874 23.9602C24.4262 23.6403 23.9872 23.4699 23.5405 23.556L21.3573 23.9762C20.7308 24.0968 20.3263 24.6753 20.4537 25.2681C20.5812 25.8611 21.1923 26.244 21.8186 26.1234L22.3515 26.0208L24.0018 25.7031C24.5099 25.6052 24.8719 25.2063 24.9227 24.7429C25.5798 24.5967 26.2068 24.4181 26.7968 24.2096C26.1963 25.2085 25.4566 26.1261 24.5865 26.9496C23.3361 28.1333 21.8804 29.0624 20.2595 29.7113C18.5816 30.3831 16.799 30.7237 14.9611 30.7237C13.1233 30.7237 11.3404 30.3831 9.66276 29.7113C8.04188 29.0624 6.58598 28.1333 5.33571 26.9496C4.08543 25.766 3.10374 24.3881 2.41815 22.8538C1.70849 21.2656 1.34866 19.5782 1.34866 17.8385C1.34866 17.4525 1.36675 17.0691 1.40218 16.6884C1.40256 16.6838 1.40295 16.6793 1.40353 16.6745C1.50595 15.5878 1.75219 14.5252 2.13975 13.4999C2.19 13.3669 2.24256 13.2346 2.29743 13.103L2.38291 12.8983L2.31688 12.6873C2.31322 12.6756 2.30975 12.6638 2.30609 12.6521C2.2337 12.4187 2.16593 12.1803 2.10279 11.9379C2.10279 11.9379 2.10259 11.937 2.1024 11.9367C1.84307 10.9411 1.66305 9.87879 1.57141 8.81305C1.52174 8.23571 1.49786 7.65728 1.50171 7.08796C1.51461 5.14691 1.85192 3.50347 2.45184 2.4605C2.81167 1.83487 3.25198 1.44597 3.76045 1.30455C3.82571 1.28633 3.89541 1.2774 3.96973 1.2774C4.55347 1.2774 5.4081 1.83123 6.36342 2.83865C7.36167 3.89127 8.22593 5.17352 8.58577 5.73263C8.58577 5.73263 8.58577 5.73282 8.58577 5.733C8.59866 5.75305 8.61099 5.77218 8.62254 5.79022L8.68569 5.88918L8.73035 5.95898C8.894 6.22942 9.04956 6.50005 9.19665 6.77031C9.29754 6.95602 9.39477 7.14154 9.48737 7.32651C9.54609 7.44515 9.60905 7.57782 9.67432 7.72088C9.69973 7.77646 9.75537 7.80981 9.81602 7.80981C9.83046 7.80981 9.84528 7.80781 9.86011 7.8038C9.93635 7.78302 9.98294 7.71414 9.97081 7.63887C9.88148 7.11657 9.7573 6.57131 9.59538 5.99287C9.82738 5.89866 10.0611 5.81045 10.297 5.72899C11.7863 5.2138 13.3512 4.95319 14.9605 4.95319C16.5699 4.95319 18.1257 5.21234 19.6112 5.72443C19.8471 5.80571 20.0808 5.89355 20.3128 5.98759C20.1503 6.56821 20.0254 7.11548 19.9358 7.63997C19.9239 7.71414 19.9705 7.78302 20.0467 7.8038C20.0614 7.80781 20.0762 7.80981 20.0908 7.80981C20.1515 7.80981 20.2071 7.77628 20.2325 7.7207C20.2978 7.57764 20.3607 7.44497 20.4193 7.32669C20.5411 7.08358 20.6705 6.83956 20.8064 6.59536C20.9337 6.36683 21.0669 6.1383 21.2061 5.90995L21.2237 5.88262L21.286 5.78494C21.2984 5.76562 21.3107 5.74667 21.323 5.72753C21.323 5.72753 21.323 5.72717 21.3232 5.72717C23.1761 2.84503 25.1541 1.02882 26.145 1.30437C26.4814 1.39804 26.7883 1.6027 27.0601 1.9074C27.6793 2.60101 28.1167 3.81346 28.3046 5.4159C28.4344 6.52174 28.4367 7.77756 28.3116 9.04741C28.2145 10.031 28.0422 11.0085 27.8077 11.9164L27.8073 11.9179C27.7444 12.1619 27.677 12.401 27.6052 12.6337C27.6019 12.6445 27.5986 12.6554 27.5954 12.6662L27.5297 12.8774L27.563 12.9565L27.6158 13.082C28.1186 14.2795 28.425 15.5317 28.531 16.8163V16.8171C28.559 17.1553 28.5732 17.4959 28.5732 17.8383C28.5732 19.5782 28.2134 21.2656 27.5037 22.8536C27.4619 22.9471 27.419 23.0398 27.3751 23.1321C26.5748 23.4832 25.6766 23.7706 24.7063 23.9846L24.7067 23.9848ZM31.0774 19.5855C30.8531 20.4794 30.2228 21.329 29.2451 22.0623C29.6945 20.7019 29.9217 19.2866 29.9217 17.8385C29.9217 17.2032 29.8776 16.5738 29.7904 15.952C30.2257 16.3997 30.5611 16.8592 30.793 17.3262C31.1683 18.0818 31.264 18.8419 31.0774 19.5853V19.5855Z" fill="#1E0046"/>
</g>
<defs>
<clipPath id="clip0_5792_15693">
<rect width="32" height="32" fill="white"/>
</clipPath>
</defs>
</svg>
