<svg width="32" height="32" fill="none" xmlns="http://www.w3.org/2000/svg"><circle cx="16" cy="16" r="15.875" fill="#000" stroke="#747474" stroke-width=".25"/><path fill-rule="evenodd" clip-rule="evenodd" d="M25.636 18.462H28L20.515 12H18.14l4.627 3.998-1.462 1.257-3.039-3.708h-2.01l-3.652 4.445-.398.486 1.788-4.923h-1.625l-1.184 3.325L10 13.556H8l-1.188 3.331-1.192-3.346H4l1.773 4.913h2.111L9 15.324l1.125 3.154h2.081L10.96 20h1.997l4.305-5.241 1.233 1.508h-1.619l-.833 1.029h3.292l.955 1.16h1.998l1.671-1.43 1.677 1.436z" fill="#fff"/><path d="M25.655 15.49l-1.115-.956 1.113-.948 2.25.002-2.248 1.902z" fill="#F89022"/><path d="M9.516 27H8.91v-2.352h-.775v-.503h2.156v.503h-.775V27zm2.859 0H10.73v-2.855h1.645v.496h-1.04v.627h.968v.496h-.967v.736h1.039v.5zm2.283-.793c0 .17-.04.316-.123.441a.788.788 0 01-.36.29 1.433 1.433 0 01-.57.101 2.128 2.128 0 01-.562-.076 1.702 1.702 0 01-.246-.096v-.562c.135.06.276.114.422.162.146.048.29.072.433.072a.607.607 0 00.239-.039.272.272 0 00.132-.107.298.298 0 00.042-.157.257.257 0 00-.073-.183.756.756 0 00-.199-.143 8.174 8.174 0 00-.283-.142 3.261 3.261 0 01-.217-.114 1.267 1.267 0 01-.223-.166.802.802 0 01-.174-.236.78.78 0 01-.066-.336c0-.17.04-.316.117-.438a.742.742 0 01.334-.277c.146-.065.318-.098.516-.098.148 0 .29.018.424.053.135.034.276.084.424.149l-.196.47a3.243 3.243 0 00-.353-.123 1.149 1.149 0 00-.319-.045.458.458 0 00-.193.038.26.26 0 00-.162.252c0 .067.02.125.058.171.04.046.1.09.18.133.08.043.181.093.3.15.147.07.271.142.374.217a.794.794 0 01.24.264.76.76 0 01.084.375zm1.62.793h-.606v-2.352h-.776v-.503h2.157v.503h-.776V27zm3.747 0h-.77l-1.241-2.16h-.018l.014.271.011.274.012.271V27h-.54v-2.855h.763l1.24 2.138h.014a17.275 17.275 0 00-.022-.525l-.008-.262v-1.351h.545V27zm2.366 0h-1.645v-2.855h1.645v.496h-1.04v.627h.967v.496h-.966v.736h1.039v.5zm1.699 0h-.606v-2.352h-.775v-.503h2.156v.503h-.775V27z" fill="#fff"/></svg>