<svg width="32" height="32" fill="none" xmlns="http://www.w3.org/2000/svg"><g clip-path="url(#prefix__clip0_4162_30085)"><path fill-rule="evenodd" clip-rule="evenodd" d="M16 0c8.837 0 16 7.163 16 16s-7.163 16-16 16S0 24.837 0 16 7.163 0 16 0zm1.708 6.545c-.612 0-1.221.093-1.83.28a8.261 8.261 0 00-1.75.768 9.002 9.002 0 00-2.812 2.577 6.814 6.814 0 00-.833 1.605 4.937 4.937 0 00-.301 1.672c0 .645.094 1.217.282 1.717.188.5.435.947.74 1.344.306.397.656.748 1.05 1.053.393.306.795.591 1.206.855.41.265.813.519 1.206.762.393.244.743.494 1.049.75.306.256.553.533.74.83.189.298.283.636.283 1.016 0 .546-.175.977-.525 1.295-.35.318-.8.477-1.35.477a2.262 2.262 0 01-1.134-.279 1.469 1.469 0 01-.295-.204l-.132-.124c-.078-.149-.179-.223-.301-.223-.096 0-.205.05-.328.149-.122.099-.236.22-.34.365a2.284 2.284 0 00-.263.471c-.07.17-.105.328-.105.477 0 .041.044.13.131.267.088.136.24.279.46.427.218.149.515.283.89.403.377.12.849.18 1.417.18a4.152 4.152 0 002.845-1.103c.358-.339.64-.738.846-1.196.205-.458.308-.944.308-1.456 0-.529-.094-.997-.282-1.406a4.227 4.227 0 00-.747-1.116 6.653 6.653 0 00-1.056-.917 29.993 29.993 0 00-1.206-.805 53.09 53.09 0 01-1.207-.787 6.845 6.845 0 01-1.055-.867 3.957 3.957 0 01-.747-1.047 2.937 2.937 0 01-.282-1.308c0-.462.085-.906.255-1.332a5.07 5.07 0 01.676-1.19c.28-.367.603-.704.97-1.01a7.11 7.11 0 011.14-.78 6.352 6.352 0 011.174-.502c.39-.12.75-.18 1.082-.18.533 0 .911.125 1.134.372.223.248.335.587.335 1.017 0 .42-.134.854-.4 1.3a5.726 5.726 0 01-.99 1.227 5.898 5.898 0 01-1.26.917c-.445.24-.851.36-1.219.36-.113 0-.214-.01-.301-.031a1.422 1.422 0 00-.216-.037c-.057-.005-.101.01-.132.043-.03.033-.046.103-.046.21 0 .133.036.284.105.453.07.17.169.33.295.483.127.153.284.28.473.384.187.104.4.155.635.155.271 0 .586-.07.944-.21.359-.141.728-.337 1.108-.59a8.32 8.32 0 001.115-.891c.363-.343.688-.717.977-1.122a5.81 5.81 0 00.695-1.288c.174-.455.262-.917.262-1.388 0-.496-.079-.944-.236-1.345a2.93 2.93 0 00-.669-1.028 2.966 2.966 0 00-1.062-.663 4.019 4.019 0 00-1.416-.236z" fill="#0799FF"/></g><defs><clipPath id="prefix__clip0_4162_30085"><path fill="#fff" d="M0 0h32v32H0z"/></clipPath></defs></svg>