<svg width="33" height="33" fill="none" xmlns="http://www.w3.org/2000/svg"><rect width="32" height="32" rx="8" fill="url(#prefix__paint0_linear_4167_30949)"/><path d="M8.75 13.25L16 9.018V27.25l-5.25-6-2-8z" fill="#fff"/><path d="M23.25 13.25L16 9.018V27.25l5.25-6 2-8z" fill="#CFF6F1"/><path fill-rule="evenodd" clip-rule="evenodd" d="M8.75 13.25l-1.5-6.5-4.5-1 6 7.5zm14.5 0l1.5-6.5 4.5-1-6 7.5z" fill="#F9FDFD"/><path d="M16 9.02l1.75 4.23h5.5l-4.472 3 2.472 5L16 18.134l-5.25 3.116 2.5-5-4.5-3h5.5L16 9.02z" fill="#AEEFEA"/><path d="M14.25 13.25h3.5l1.028 3L16 18.134l-2.75-1.884 1-3z" fill="#27CFCC"/><g filter="url(#prefix__filter0_f_4167_30949)"><path d="M21.25 21.25l-5.25 6L24 32h1a7 7 0 007-7V7.5l-2.75-1.75-6 7.5-2 8z" fill="url(#prefix__paint1_linear_4167_30949)"/><path d="M8.75 13.25l-1.5-6.5 3.8 5.15-2.3 1.35z" fill="url(#prefix__paint2_linear_4167_30949)"/></g><defs><linearGradient id="prefix__paint0_linear_4167_30949" x1="16" y1="0" x2="16" y2="32" gradientUnits="userSpaceOnUse"><stop stop-color="#0FD4AD"/><stop offset="1" stop-color="#0FD3D8"/></linearGradient><linearGradient id="prefix__paint1_linear_4167_30949" x1="18" y1="14" x2="32" y2="31.5" gradientUnits="userSpaceOnUse"><stop offset=".31" stop-color="#0CB8C0"/><stop offset="1" stop-color="#0CB8C0" stop-opacity="0"/></linearGradient><linearGradient id="prefix__paint2_linear_4167_30949" x1="7" y1="7" x2="13" y2="15" gradientUnits="userSpaceOnUse"><stop offset=".38" stop-color="#0BBAB9"/><stop offset=".848" stop-color="#D9D9D9" stop-opacity="0"/></linearGradient><filter id="prefix__filter0_f_4167_30949" x="7.05" y="5.55" width="25.15" height="26.65" filterUnits="userSpaceOnUse" color-interpolation-filters="sRGB"><feFlood flood-opacity="0" result="BackgroundImageFix"/><feBlend in="SourceGraphic" in2="BackgroundImageFix" result="shape"/><feGaussianBlur stdDeviation=".1" result="effect1_foregroundBlur_4167_30949"/></filter></defs></svg>