<svg width="32" height="32" fill="none" xmlns="http://www.w3.org/2000/svg"><g clip-path="url(#prefix__clip0_3379_25878)"><circle cx="16" cy="16" r="16" fill="url(#prefix__paint0_linear_3379_25878)"/><g filter="url(#prefix__filter0_i_3379_25878)"><circle cx="16" cy="16" r="16" fill="url(#prefix__paint1_linear_3379_25878)"/></g><circle cx="16" cy="16" r="15.835" stroke="url(#prefix__paint2_linear_3379_25878)" stroke-opacity=".12" stroke-width=".33"/><path clip-rule="evenodd" d="M21.947 8.29a.28.28 0 00-.243-.381l-3.183-.211a.28.28 0 00-.249.12l-.843 1.215a.28.28 0 01-.232.12l-5.602-.033a1.123 1.123 0 00-.747.28l-1.555 1.363a1.123 1.123 0 00-.317 1.221l.74 2.077a.034.034 0 01-.004.032 3.483 3.483 0 00-.695 1.908l-.012.236a12.912 12.912 0 00.511 4.349l.978 3.31a.84.84 0 001.004.579l3.826-.92A10.103 10.103 0 0018.47 22.2l.603-.393a3.483 3.483 0 001.305-1.556.033.033 0 01.025-.02l2.17-.397c.452-.083.808-.434.898-.885l.404-2.028c.054-.27.007-.55-.132-.787l-2.631-4.496a1.123 1.123 0 01-.08-.97l.915-2.378z" stroke="#fff" stroke-width="1.544"/></g><defs><linearGradient id="prefix__paint0_linear_3379_25878" x1="16" y1="0" x2="16" y2="32" gradientUnits="userSpaceOnUse"><stop stop-color="#130C3F"/><stop offset="1" stop-color="#15197B"/></linearGradient><linearGradient id="prefix__paint1_linear_3379_25878" x1="0" y1="16" x2="32" y2="16" gradientUnits="userSpaceOnUse"><stop stop-color="#AE73FA"/><stop offset="1" stop-color="#AE73FA" stop-opacity="0"/></linearGradient><linearGradient id="prefix__paint2_linear_3379_25878" x1="0" y1="16" x2="32" y2="16" gradientUnits="userSpaceOnUse"><stop stop-color="#AE73FA"/><stop offset="1" stop-color="#AE73FA" stop-opacity="0"/></linearGradient><clipPath id="prefix__clip0_3379_25878"><path fill="#fff" d="M0 0h32v32H0z"/></clipPath><filter id="prefix__filter0_i_3379_25878" x="-2.67" y="0" width="34.67" height="32" filterUnits="userSpaceOnUse" color-interpolation-filters="sRGB"><feFlood flood-opacity="0" result="BackgroundImageFix"/><feBlend in="SourceGraphic" in2="BackgroundImageFix" result="shape"/><feColorMatrix in="SourceAlpha" values="0 0 0 0 0 0 0 0 0 0 0 0 0 0 0 0 0 0 127 0" result="hardAlpha"/><feOffset dx="-4"/><feGaussianBlur stdDeviation="1.335"/><feComposite in2="hardAlpha" operator="arithmetic" k2="-1" k3="1"/><feColorMatrix values="0 0 0 0 0.682353 0 0 0 0 0.45098 0 0 0 0 0.980392 0 0 0 0.56 0"/><feBlend in2="shape" result="effect1_innerShadow_3379_25878"/></filter></defs></svg>