<svg width="32" height="32" viewBox="0 0 32 32" fill="none" xmlns="http://www.w3.org/2000/svg">
<g clip-path="url(#clip0_5614_15368)">
<path d="M16.3106 29.4902C23.615 29.4902 29.5363 23.4504 29.5363 16C29.5363 8.54953 23.615 2.50977 16.3106 2.50977C9.0063 2.50977 3.08496 8.54953 3.08496 16C3.08496 23.4504 9.0063 29.4902 16.3106 29.4902Z" fill="white"/>
<path fill-rule="evenodd" clip-rule="evenodd" d="M16.3103 0C24.9736 0 31.9966 7.16342 31.9966 16C31.9966 24.8366 24.9736 32 16.3103 32C7.64698 32 0.624023 24.8366 0.624023 16C0.624023 7.16342 7.64698 0 16.3103 0ZM19.8945 4.73374C19.5407 4.61848 19.2515 4.83263 19.2515 5.21142V6.143C19.2515 6.39699 19.4392 6.68605 19.6729 6.77346C23.4275 8.17613 26.1142 11.8571 26.1142 16.1667C26.1142 20.4762 23.4275 24.1572 19.6729 25.5599C19.4166 25.6557 19.2515 25.9118 19.2515 26.1904V27.1219C19.2515 27.5007 19.5407 27.7149 19.8945 27.5996C24.6392 26.0533 28.075 21.5193 28.075 16.1667C28.075 10.8141 24.6392 6.28003 19.8945 4.73374ZM13.3692 5.21142C13.3692 4.83263 13.0799 4.61848 12.7262 4.73374C7.98138 6.28003 4.54559 10.8141 4.54559 16.1667C4.54559 21.5193 7.98138 26.0533 12.7262 27.5996C13.0799 27.7149 13.3692 27.5007 13.3692 27.1219V26.1904C13.3692 25.9364 13.1815 25.6472 12.9477 25.5599C9.19316 24.1572 6.50638 20.4762 6.50638 16.1667C6.50638 11.8571 9.19316 8.17613 12.9477 6.77346C13.1815 6.68605 13.3692 6.39699 13.3692 6.143V5.21142ZM16.8005 8.16671H15.8201C15.5494 8.16671 15.3299 8.39053 15.3299 8.66667V10.2157C13.3864 10.4976 12.1299 11.8168 12.1299 13.5093C12.1299 15.7001 13.4283 16.5501 16.1689 16.9263C18.0281 17.237 18.5573 17.6454 18.5573 18.7246C18.5573 19.8035 17.6593 20.5229 16.3935 20.5229C14.6819 20.5229 14.1187 19.759 13.911 18.7702C13.8618 18.536 13.6651 18.3647 13.4302 18.3647H12.312C12.0303 18.3647 11.8101 18.6235 11.8585 18.9065C12.1433 20.5709 13.1912 21.792 15.3299 22.088V23.6667C15.3299 23.9428 15.5494 24.1667 15.8201 24.1667H16.8005C17.0712 24.1667 17.2907 23.9428 17.2907 23.6667V22.0872C19.3154 21.7591 20.6089 20.3215 20.6089 18.5447C20.6089 16.2069 19.2144 15.4221 16.5214 15.0462C14.534 14.7519 14.1496 14.2776 14.1496 13.3294C14.1496 12.4304 14.8226 11.7926 16.121 11.7926C17.2953 11.7926 17.9707 12.2106 18.2497 13.1747C18.312 13.3898 18.5007 13.5419 18.7207 13.5419H19.7519C20.0395 13.5419 20.2633 13.2723 20.2019 12.9857C19.8755 11.4623 18.8688 10.5481 17.2907 10.2597V8.66667C17.2907 8.39053 17.0712 8.16671 16.8005 8.16671Z" fill="#2775CA"/>
<path fill-rule="evenodd" clip-rule="evenodd" d="M16.3103 0C24.9736 0 31.9966 7.16342 31.9966 16C31.9966 24.8366 24.9736 32 16.3103 32C7.64698 32 0.624023 24.8366 0.624023 16C0.624023 7.16342 7.64698 0 16.3103 0ZM19.8945 4.73374C19.5407 4.61848 19.2515 4.83263 19.2515 5.21142V6.143C19.2515 6.39699 19.4392 6.68605 19.6729 6.77346C23.4275 8.17613 26.1142 11.8571 26.1142 16.1667C26.1142 20.4762 23.4275 24.1572 19.6729 25.5599C19.4166 25.6557 19.2515 25.9118 19.2515 26.1904V27.1219C19.2515 27.5007 19.5407 27.7149 19.8945 27.5996C24.6392 26.0533 28.075 21.5193 28.075 16.1667C28.075 10.8141 24.6392 6.28003 19.8945 4.73374ZM13.3692 5.21142C13.3692 4.83263 13.0799 4.61848 12.7262 4.73374C7.98138 6.28003 4.54559 10.8141 4.54559 16.1667C4.54559 21.5193 7.98138 26.0533 12.7262 27.5996C13.0799 27.7149 13.3692 27.5007 13.3692 27.1219V26.1904C13.3692 25.9364 13.1815 25.6472 12.9477 25.5599C9.19316 24.1572 6.50638 20.4762 6.50638 16.1667C6.50638 11.8571 9.19316 8.17613 12.9477 6.77346C13.1815 6.68605 13.3692 6.39699 13.3692 6.143V5.21142ZM16.8005 8.16671H15.8201C15.5494 8.16671 15.3299 8.39053 15.3299 8.66667V10.2157C13.3864 10.4976 12.1299 11.8168 12.1299 13.5093C12.1299 15.7001 13.4283 16.5501 16.1689 16.9263C18.0281 17.237 18.5573 17.6454 18.5573 18.7246C18.5573 19.8035 17.6593 20.5229 16.3935 20.5229C14.6819 20.5229 14.1187 19.759 13.911 18.7702C13.8618 18.536 13.6651 18.3647 13.4302 18.3647H12.312C12.0303 18.3647 11.8101 18.6235 11.8585 18.9065C12.1433 20.5709 13.1912 21.792 15.3299 22.088V23.6667C15.3299 23.9428 15.5494 24.1667 15.8201 24.1667H16.8005C17.0712 24.1667 17.2907 23.9428 17.2907 23.6667V22.0872C19.3154 21.7591 20.6089 20.3215 20.6089 18.5447C20.6089 16.2069 19.2144 15.4221 16.5214 15.0462C14.534 14.7519 14.1496 14.2776 14.1496 13.3294C14.1496 12.4304 14.8226 11.7926 16.121 11.7926C17.2953 11.7926 17.9707 12.2106 18.2497 13.1747C18.312 13.3898 18.5007 13.5419 18.7207 13.5419H19.7519C20.0395 13.5419 20.2633 13.2723 20.2019 12.9857C19.8755 11.4623 18.8688 10.5481 17.2907 10.2597V8.66667C17.2907 8.39053 17.0712 8.16671 16.8005 8.16671Z" fill="#2775CA"/>
</g>
<defs>
<clipPath id="clip0_5614_15368">
<rect width="32" height="32" fill="white"/>
</clipPath>
</defs>
</svg>
