<svg width="32" height="32" viewBox="0 0 32 32" fill="none" xmlns="http://www.w3.org/2000/svg">
<circle cx="16" cy="16" r="16" fill="#1A1A1A"/>
<path d="M14.125 21.1484C14.125 20.5781 14.1602 20.1016 14.2305 19.7188C14.3008 19.3281 14.4141 18.9844 14.5703 18.6875C14.7344 18.3906 14.9648 18.0977 15.2617 17.8086C15.5586 17.5195 15.9414 17.1914 16.4102 16.8242C16.8164 16.4961 17.1523 16.1562 17.418 15.8047C17.6836 15.4531 17.8867 15.0898 18.0273 14.7148C18.168 14.3398 18.2383 13.9531 18.2383 13.5547C18.2383 12.8828 18.0508 12.3594 17.6758 11.9844C17.3086 11.6016 16.7891 11.4102 16.1172 11.4102C15.5547 11.4102 15.0703 11.5664 14.6641 11.8789C14.2656 12.1914 14.0625 12.6602 14.0547 13.2852H10.7383L10.7031 13.2148C10.6875 12.2617 10.9062 11.4492 11.3594 10.7773C11.8203 10.0977 12.457 9.58203 13.2695 9.23047C14.0898 8.87109 15.0352 8.69141 16.1055 8.69141C17.8477 8.69141 19.207 9.12109 20.1836 9.98047C21.168 10.832 21.6602 11.9922 21.6602 13.4609C21.6602 14.1406 21.5273 14.7695 21.2617 15.3477C21.0039 15.9258 20.6445 16.4727 20.1836 16.9883C19.7305 17.5039 19.2031 18.0156 18.6016 18.5234C18.3047 18.7734 18.0781 19.0156 17.9219 19.25C17.7734 19.4766 17.6719 19.7422 17.6172 20.0469C17.5703 20.3438 17.5469 20.7109 17.5469 21.1484H14.125ZM14.125 26V23H17.5469V26H14.125Z" fill="#747474"/>
</svg>
