<svg width="32" height="32" fill="none" xmlns="http://www.w3.org/2000/svg"><g clip-path="url(#prefix__clip0_1958_11332)"><path d="M4.688 4.688c-6.256 6.256-6.256 16.384 0 22.624L27.312 4.688c-6.24-6.256-16.384-6.256-22.624 0z" fill="#F66"/><path d="M27.313 27.313c-6.24-6.256-16.384-6.256-22.625 0L27.313 4.688c6.256 6.24 6.256 16.385 0 22.625z" fill="#DA5F5A"/><path d="M27.313 27.312c-6.24 6.256-16.384 6.256-22.625 0 6.24-6.24 16.385-6.24 22.625 0z" fill="#FFF4C7"/><path d="M15.968 4.864L8.64 17.04l7.328 10.096L23.36 17.04 15.968 4.864z" fill="#FFF4C7"/><path d="M15.936 7.6l-.112.384V19.2l.112.112 5.2-3.072-5.2-8.64z" fill="#343434"/><path d="M15.936 7.6l-5.2 8.64 5.2 3.072V7.6z" fill="#8C8C8C"/><path d="M15.936 20.288l-.064.08v4l.064.192 5.216-7.328-5.216 3.056z" fill="#3C3C3B"/><path d="M15.936 24.56v-4.256l-5.2-3.072 5.2 7.328z" fill="#8C8C8C"/><path d="M15.935 19.312l5.2-3.072-5.2-2.368v5.44z" fill="#141414"/><path d="M10.736 16.224l5.2 3.072v-5.44l-5.2 2.368z" fill="#393939"/></g><defs><clipPath id="prefix__clip0_1958_11332"><path fill="#fff" d="M0 0h32v32H0z"/></clipPath></defs></svg>