<svg width="32" height="32" fill="none" xmlns="http://www.w3.org/2000/svg"><path d="M16 32c8.837 0 16-7.163 16-16S24.837 0 16 0 0 7.163 0 16s7.163 16 16 16z" fill="#3650A2"/><path fill-rule="evenodd" clip-rule="evenodd" d="M16.002 6c.46 0 .879.263 1.08.676l4.8 9.9.109.224h-2.667l-.776-1.6h-5.092l-.776 1.6h-2.668l.109-.224 4.801-9.9A1.2 1.2 0 0116.002 6zm-1.576 7.2h3.152l-1.576-3.25-1.576 3.25zm5.174 7h2.401c-.072 3.23-2.746 5.8-6 5.8-3.253 0-5.927-2.57-5.999-5.8h2.401c.056 1.47 1.034 2.726 2.397 3.2v-4.8a1.2 1.2 0 012.4 0v4.8c1.366-.472 2.344-1.728 2.4-3.2z" fill="#fff"/></svg>