<svg width="32" height="32" fill="none" xmlns="http://www.w3.org/2000/svg"><g clip-path="url(#prefix__clip0_5044_37491)"><path d="M30.75 16c0-8.147-6.6-14.751-14.75-14.751S1.249 7.853 1.249 15.999a14.707 14.707 0 004.355 10.466c-.314.268-.62.55-.917.847 6.251 6.25 16.38 6.25 22.625 0-.297-.298-.602-.581-.917-.85A14.704 14.704 0 0030.751 16z" fill="#F5F7E2"/><path d="M5.181 15.28a.16.16 0 01-.035-.188L9.11 6.764a.16.16 0 01.148-.093h13.485a.158.158 0 01.146.093l.756 1.59 3.667-3.668c-6.247-6.25-16.374-6.25-22.625 0-6.252 6.248-6.25 16.378 0 22.626l6.387-6.387-5.893-5.647z" fill="#F66"/><path d="M11.073 20.926l-6.386 6.386a15.922 15.922 0 018.434-4.426l-2.048-1.96zM27.312 4.686l-3.668 3.667 3.208 6.74a.16.16 0 01-.034.187l-7.94 7.608c3.197.58 6.14 2.124 8.434 4.424 6.25-6.247 6.25-16.378 0-22.626z" fill="#D95E59"/><path fill-rule="evenodd" clip-rule="evenodd" d="M9.913 7.728L6.41 15.084a.143.143 0 00.03.166l9.458 9.06a.145.145 0 00.2 0l9.458-9.06a.143.143 0 00.03-.166l-3.501-7.356a.142.142 0 00-.13-.082H10.043a.142.142 0 00-.13.082z" fill="#50AF95"/><path fill-rule="evenodd" clip-rule="evenodd" d="M17.215 15.838c-.067.006-.418.026-1.2.026-.623 0-1.065-.018-1.22-.026-2.406-.105-4.201-.524-4.201-1.025 0-.502 1.795-.92 4.2-1.027v1.636c.157.01.608.037 1.23.037.747 0 1.12-.03 1.188-.037v-1.637c2.4.107 4.192.525 4.192 1.026 0 .5-1.79.919-4.192 1.025l.003.002zm0-2.22v-1.464h3.35V9.922h-9.12v2.232h3.35v1.463c-2.723.125-4.77.664-4.77 1.31s2.046 1.185 4.77 1.31v4.692h2.42v-4.692c2.719-.125 4.76-.664 4.76-1.31 0-.645-2.041-1.184-4.76-1.31z" fill="#fff"/></g><defs><clipPath id="prefix__clip0_5044_37491"><path fill="#fff" d="M0 0h31.999v32H0z"/></clipPath></defs></svg>