<svg width="32" height="32" viewBox="0 0 32 32" fill="none" xmlns="http://www.w3.org/2000/svg">
<g clip-path="url(#clip0_5926_15810)">
<rect width="32" height="32" fill="black"/>
<mask id="mask0_5926_15810" style="mask-type:luminance" maskUnits="userSpaceOnUse" x="2" y="2" width="28" height="28">
<path d="M30 2H2V30H30V2Z" fill="white"/>
</mask>
<g mask="url(#mask0_5926_15810)">
<path d="M16 30C8.2809 30 2 23.7191 2 16C2 8.2809 8.2809 2 16 2C23.7191 2 30 8.2809 30 16C30 23.7191 23.7191 30 16 30ZM16 7.09091C11.0873 7.09091 7.09091 11.0873 7.09091 16C7.09091 20.9127 11.0873 24.9091 16 24.9091C20.9127 24.9091 24.9091 20.9127 24.9091 16C24.9091 11.0873 20.9127 7.09091 16 7.09091Z" fill="url(#paint0_linear_5926_15810)"/>
</g>
</g>
<defs>
<linearGradient id="paint0_linear_5926_15810" x1="5.74523" y1="6.12673" x2="24.4616" y2="30.277" gradientUnits="userSpaceOnUse">
<stop stop-color="#00F2FE"/>
<stop offset="0.535" stop-color="#4FACFE"/>
<stop offset="0.975" stop-color="#C471F5"/>
</linearGradient>
<clipPath id="clip0_5926_15810">
<rect width="32" height="32" fill="white"/>
</clipPath>
</defs>
</svg>
