<svg width="32" height="32" fill="none" xmlns="http://www.w3.org/2000/svg"><g clip-path="url(#prefix__clip0_4162_30086)"><path fill-rule="evenodd" clip-rule="evenodd" d="M22.712 14.44a1.458 1.458 0 112.06-2.061 1.458 1.458 0 01-2.06 2.061zm-4.896 4.896a1.093 1.093 0 111.546-1.546 1.093 1.093 0 01-1.546 1.546zm7.73-2.577a1.093 1.093 0 111.546-1.546 1.093 1.093 0 01-1.546 1.546zm-2.577 2.577a1.093 1.093 0 111.547-1.546 1.093 1.093 0 01-1.547 1.546zm5.412-.257a.729.729 0 111.03-1.031.729.729 0 01-1.03 1.03zm-2.577 2.576a.729.729 0 111.03-1.03.729.729 0 01-1.03 1.03zm-5.67-4.638a1.458 1.458 0 112.063-2.061 1.458 1.458 0 01-2.062 2.061zm0-5.154a1.458 1.458 0 112.063-2.061 1.458 1.458 0 01-2.062 2.061zm-2.576 2.577a1.458 1.458 0 112.061-2.061 1.458 1.458 0 01-2.06 2.061zm-5.178 0a1.458 1.458 0 112.062-2.061 1.458 1.458 0 01-2.062 2.061zm-4.896 4.896a1.093 1.093 0 111.547-1.546 1.093 1.093 0 01-1.547 1.546zm7.731-2.577a1.093 1.093 0 111.546-1.546 1.093 1.093 0 01-1.546 1.546zm-2.577 2.577a1.093 1.093 0 111.546-1.546 1.093 1.093 0 01-1.546 1.546zm-10.05-.257a.729.729 0 111.031-1.031.729.729 0 01-1.03 1.03zm2.577 2.576a.729.729 0 111.031-1.03.729.729 0 01-1.03 1.03zm10.308 0a.729.729 0 111.03-1.03.729.729 0 01-1.03 1.03zM4.908 16.76a1.093 1.093 0 111.546-1.546 1.093 1.093 0 01-1.546 1.546zm4.896.258a1.458 1.458 0 112.061-2.061 1.458 1.458 0 01-2.061 2.061zm0-5.154a1.458 1.458 0 112.061-2.061 1.458 1.458 0 01-2.061 2.061zM7.227 14.44a1.458 1.458 0 112.061-2.061 1.458 1.458 0 01-2.061 2.061z" fill="#fff"/></g><defs><clipPath id="prefix__clip0_4162_30086"><path fill="#fff" d="M0 0h32v32H0z"/></clipPath></defs></svg>