<svg width="32" height="32" viewBox="0 0 32 32" fill="none" xmlns="http://www.w3.org/2000/svg">
<path fill-rule="evenodd" clip-rule="evenodd" d="M18.7394 3.92261V4.2339H19.0507H19.362V3.92261V3.61133H19.0507H18.7394V3.92261ZM7.5332 16.374V16.6853H7.84449H8.15577V16.374V16.0627H7.84449H7.5332V16.374ZM19.9846 25.0899V25.4012H19.6733H19.362V25.7125V26.0238H19.9846H20.6071V25.4012V24.7786H20.2958H19.9846V25.0899Z" fill="#F3F1CC"/>
<path fill-rule="evenodd" clip-rule="evenodd" d="M7.5332 14.1948V14.8174H7.84449H8.15577V14.1948V13.5723H7.84449H7.5332V14.1948ZM24.9651 20.7318V21.0431H25.2764H25.5877V20.7318V20.4205H25.2764H24.9651V20.7318ZM24.3425 21.9769V22.2882H24.0313H23.72V22.5995V22.9108H24.0313H24.3425V22.5995V22.2882H24.6538H24.9651V21.9769V21.6657H24.6538H24.3425V21.9769ZM20.6071 25.0898V25.4011H20.9184H21.2297V25.0898V24.7785H20.9184H20.6071V25.0898ZM17.4943 25.7123V26.0236H18.4281H19.362V25.7123V25.4011H18.4281H17.4943V25.7123Z" fill="#F4EFBA"/>
<path fill-rule="evenodd" clip-rule="evenodd" d="M8.15527 13.2605V14.8169H8.46656H8.77784V13.2605V11.7041H8.46656H8.15527V13.2605ZM23.7195 12.638V12.9492H23.8751H24.0308V12.638V12.3267H23.8751H23.7195V12.638ZM16.5599 14.35V14.5057H16.7156H16.8712V14.35V14.1944H16.7156H16.5599V14.35ZM14.6922 16.3734V17.3072H14.8479H15.0035V16.3734V15.4395H14.8479H14.6922V16.3734ZM23.7195 16.529V16.9959H23.8751H24.0308V16.529V16.0621H23.8751H23.7195V16.529ZM14.0697 17.3072V17.6185H14.2253H14.381V17.3072V16.9959H14.2253H14.0697V17.3072ZM23.7195 17.7741V17.9298H23.8751H24.0308V17.7741V17.6185H23.8751H23.7195V17.7741ZM12.5132 18.0854V18.2411H12.6689H12.8245V18.0854V17.9298H12.6689H12.5132V18.0854ZM19.9841 18.3967V18.5524H20.1397H20.2954V18.3967V18.2411H20.1397H19.9841V18.3967ZM12.202 18.8636V19.1749H12.5132H12.8245V19.0193V18.8636H12.6689H12.5132V18.708V18.5524H12.3576H12.202V18.8636ZM20.6066 19.3306V19.4862H20.7623H20.9179V19.3306V19.1749H20.7623H20.6066V19.3306ZM18.7389 19.6418V19.7975H18.8946H19.0502V19.6418V19.4862H18.8946H18.7389V19.6418ZM26.2097 20.1088V20.4201H26.521H26.8323V20.1088V19.7975H26.521H26.2097V20.1088ZM11.5794 20.2644V20.4201H11.735H11.8907V20.2644V20.1088H11.735H11.5794V20.2644Z" fill="#FDE12A"/>
<path fill-rule="evenodd" clip-rule="evenodd" d="M18.7394 4.54468V4.85597H19.0507H19.362V4.54468V4.2334H19.0507H18.7394V4.54468ZM15.6266 5.16725V5.47853H15.9379H16.2492V5.16725V4.85597H15.9379H15.6266V5.16725ZM10.646 7.65752V7.96881H11.2686H11.8912V7.65752V7.34624H11.2686H10.646V7.65752ZM9.40091 8.59138V9.21394H9.71219H10.0235V8.59138V7.96881H9.71219H9.40091V8.59138ZM11.2686 10.1478V10.4591H11.5799H11.8912V10.1478V9.83651H11.5799H11.2686V10.1478ZM7.5332 12.6381V13.5719H7.84449H8.15577V12.6381V11.7042H7.84449H7.5332V12.6381ZM25.5877 18.8637V19.175H25.2764H24.9651V19.4863V19.7976H24.6538H24.3425V20.7315V21.6653H24.6538H24.9651V20.7315V19.7976H25.2764H25.5877V19.4863V19.175H25.899H26.2102V18.8637V18.5525H25.899H25.5877V18.8637ZM25.5877 20.7315V21.0427H25.899H26.2102V20.7315V20.4202H25.899H25.5877V20.7315ZM23.72 23.2217V23.533H23.0974H22.4748V23.8443V24.1556H23.0974H23.72V23.8443V23.533H24.0313H24.3425V23.2217V22.9104H24.0313H23.72V23.2217ZM21.2297 25.0894V25.4007H21.541H21.8523V25.0894V24.7781H21.541H21.2297V25.0894ZM17.4943 26.3346V26.6458H17.8056H18.1169V26.3346V26.0233H17.8056H17.4943V26.3346Z" fill="#F3EFA6"/>
<path fill-rule="evenodd" clip-rule="evenodd" d="M13.7589 3.92261V4.2339H14.0702H14.3815V3.92261V3.61133H14.0702H13.7589V3.92261ZM16.2492 5.16775V5.47903H16.5604H16.8717V5.16775V4.85646H16.5604H16.2492V5.16775ZM10.646 7.03545V7.34674H10.3348H10.0235V7.65802V7.9693H10.3348H10.646V7.65802V7.34674H10.9573H11.2686V7.03545V6.72417H10.9573H10.646V7.03545ZM8.15577 9.21444V9.83701H8.46706H8.77834V9.21444V8.59187H8.46706H8.15577V9.21444ZM11.8912 8.90316V9.21444H12.2025H12.5137V8.90316V8.59187H12.2025H11.8912V8.90316ZM7.5332 16.9965V17.3078H7.84449H8.15577V16.9965V16.6853H7.84449H7.5332V16.9965ZM23.72 21.9771V22.2884H24.0313H24.3425V21.9771V21.6658H24.0313H23.72V21.9771ZM24.9651 21.9771V22.2884H25.2764H25.5877V21.9771V21.6658H25.2764H24.9651V21.9771ZM21.2297 24.4674V24.7786H21.541H21.8523V25.0899V25.4012H22.1636H22.4748V24.7786V24.1561H21.8523H21.2297V24.4674ZM19.362 25.0899V25.4012H19.6733H19.9846V25.0899V24.7786H19.6733H19.362V25.0899ZM16.8717 25.7125V26.0238H17.183H17.4943V25.7125V25.4012H17.183H16.8717V25.7125Z" fill="#E5DC79"/>
<path fill-rule="evenodd" clip-rule="evenodd" d="M13.1363 5.16773V5.47901H13.7589H14.3815V5.16773V4.85645H13.7589H13.1363V5.16773ZM11.2686 7.03543V7.34672H11.5799H11.8912V7.03543V6.72415H11.5799H11.2686V7.03543ZM10.0235 8.28057V8.59185H10.3348H10.646V8.28057V7.96929H10.3348H10.0235V8.28057ZM8.77834 8.90314V9.21442H9.08962H9.40091V8.90314V8.59185H9.08962H8.77834V8.90314ZM8.15577 10.1483V10.4596H8.46706H8.77834V10.1483V9.83699H8.46706H8.15577V10.1483ZM7.5332 15.7514V16.0627H7.84449H8.15577V15.7514V15.4401H7.84449H7.5332V15.7514ZM26.2102 17.6191V17.9304H26.5215H26.8328V17.6191V17.3078H26.5215H26.2102V17.6191Z" fill="#FAF39B"/>
<path fill-rule="evenodd" clip-rule="evenodd" d="M14.3814 4.85597V5.47853H13.4476H12.5137V5.78982V6.1011H12.2024H11.8912V6.41239V6.72367H12.2024H12.5137V6.41239V6.1011H13.4476H14.3814V5.78982V5.47853H15.004H15.6266V5.16725V4.85597H17.183H18.7394V4.54468V4.2334H16.5604H14.3814V4.85597ZM18.1168 7.03495V7.34624H19.0507H19.9845V7.03495V6.72367H19.0507H18.1168V7.03495ZM16.2491 7.65752V7.96881H16.8717H17.4943V7.65752V7.34624H16.8717H16.2491V7.65752ZM15.6266 8.90266V9.21394H15.3153H15.004V9.52523V9.83651H14.3814H13.7589V10.4591V11.0816H14.0701H14.3814V11.3929V11.7042H14.6927H15.004V10.7704V9.83651H15.3153H15.6266V9.52523V9.21394H15.9379H16.2491V8.90266V8.59137H15.9379H15.6266V8.90266ZM8.77832 9.83651V10.4591H9.0896H9.40089V9.83651V9.21394H9.0896H8.77832V9.83651ZM21.8523 9.52523V9.83651H21.541H21.2297V10.4591V11.0816H21.8523H22.4748V10.1478V9.21394H22.1635H21.8523V9.52523ZM16.2491 10.1478V10.4591H16.8717H17.4943V10.1478V9.83651H16.8717H16.2491V10.1478ZM19.9845 11.3929V11.7042H20.2958H20.6071V11.3929V11.0816H20.2958H19.9845V11.3929ZM23.0974 11.3929V11.7042H23.4087H23.72V11.3929V11.0816H23.4087H23.0974V11.3929ZM23.0974 12.4824V12.9494H22.7861H22.4748V13.2606V13.5719H22.7861H23.0974V13.2606V12.9494H23.4087H23.72V12.6381V12.3268H23.8756H24.0312V12.1711V12.0155H23.5643H23.0974V12.4824ZM11.8912 12.9494V13.5719H11.7355H11.5799V13.7276V13.8832H11.7355H11.8912V13.7276V13.5719H12.0468H12.2024V13.2606V12.9494H12.5137H12.825V13.105V13.2606H12.9807H13.1363V13.4163V13.5719H13.9145H14.6927V14.1945V14.8171H14.8484H15.004V14.0388V13.2606H15.3153H15.6266V13.4163V13.5719H15.9379H16.2491V13.4163V13.2606H15.9379H15.6266V13.105V12.9494H14.3814H13.1363V12.6381V12.3268H12.5137H11.8912V12.9494ZM19.362 12.4824V12.6381H19.5176H19.6733V13.2606V13.8832H19.8289H19.9845V13.5719V13.2606H20.1402H20.2958V12.9494V12.6381H20.9184H21.541V12.4824V12.3268H20.4515H19.362V12.4824ZM18.7394 12.7937V12.9494H18.8951H19.0507V12.7937V12.6381H18.8951H18.7394V12.7937ZM18.1168 13.105V13.2606H18.2725H18.4281V13.105V12.9494H18.2725H18.1168V13.105ZM21.2297 13.5719V14.1945H21.541H21.8523V13.8832V13.5719H21.6966H21.541V13.2606V12.9494H21.3853H21.2297V13.5719ZM17.4943 13.8832V14.1945H17.6499H17.8056V14.5058V14.8171H18.1168H18.4281V15.1283V15.4396H18.5838H18.7394V15.1283V14.8171H18.5838H18.4281V14.5058V14.1945H18.1168H17.8056V13.8832V13.5719H17.6499H17.4943V13.8832ZM18.1168 13.7276V13.8832H18.2725H18.4281V13.7276V13.5719H18.2725H18.1168V13.7276ZM10.9573 14.3501V14.5058H10.8017H10.646V15.284V16.0622H10.8017H10.9573V15.284V14.5058H11.113H11.2686V14.3501V14.1945H11.113H10.9573V14.3501ZM12.2024 14.9727V15.4396H12.3581H12.5137V15.5953V15.7509H12.6694H12.825V15.9065V16.0622H12.9807H13.1363V15.9065V15.7509H12.9807H12.825V15.1283V14.5058H12.5137H12.2024V14.9727ZM14.0701 14.8171V15.1283H13.9145H13.7589V15.284V15.4396H13.9145H14.0701V15.284V15.1283H14.2258H14.3814V14.8171V14.5058H14.2258H14.0701V14.8171ZM20.9184 14.9727V15.4396H20.7628H20.6071V15.7509V16.0622H20.7628H20.9184V15.7509V15.4396H21.074H21.2297V14.9727V14.5058H21.074H20.9184V14.9727ZM16.8717 15.1283V15.4396H17.183H17.4943V15.1283V14.8171H17.183H16.8717V15.1283ZM16.2491 15.9065V16.0622H15.9379H15.6266V16.3735V16.6848H15.9379H16.2491V16.3735V16.0622H16.5604H16.8717V15.9065V15.7509H16.5604H16.2491V15.9065ZM17.8056 16.0622V16.3735H17.9612H18.1168V16.0622V15.7509H17.9612H17.8056V16.0622ZM18.4281 16.5291V16.996H18.5838H18.7394V16.5291V16.0622H18.5838H18.4281V16.5291ZM10.9573 16.5291V16.6848H11.113H11.2686V16.5291V16.3735H11.113H10.9573V16.5291ZM13.1363 16.996V17.3073H12.825H12.5137V17.6186V17.9299H12.825H13.1363V17.6186V17.3073H13.4476H13.7589V16.996V16.6848H13.4476H13.1363V16.996ZM17.4943 16.8404V16.996H17.6499H17.8056V16.8404V16.6848H17.6499H17.4943V16.8404ZM11.5799 17.1517V17.3073H11.7355H11.8912V17.463V17.6186H12.0468H12.2024V17.463V17.3073H12.0468H11.8912V17.1517V16.996H11.7355H11.5799V17.1517ZM16.2491 18.3968V19.7976H15.7822H15.3153V19.9532V20.1089H15.7822H16.2491V19.9532V19.7976H16.4048H16.5604V18.5525V17.3073H16.7161H16.8717V17.1517V16.996H16.5604H16.2491V18.3968ZM10.0235 17.6186V17.9299H10.3347H10.646V18.5525V19.175H10.8017H10.9573V18.5525V17.9299H11.113H11.2686V17.6186V17.3073H10.646H10.0235V17.6186ZM19.6733 17.6186V17.9299H19.5176H19.362V18.2412V18.5525H19.5176H19.6733V18.2412V17.9299H19.8289H19.9845V17.6186V17.3073H19.8289H19.6733V17.6186ZM18.1168 18.7081V19.175H18.2725H18.4281V19.3307V19.4863H18.5838H18.7394V19.3307V19.175H18.5838H18.4281V18.7081V18.2412H18.2725H18.1168V18.7081ZM13.7589 18.8637V19.175H13.4476H13.1363V19.4863V19.7976H13.2919H13.4476V19.9532V20.1089H13.6032H13.7589V19.9532V19.7976H13.9145H14.0701V19.642V19.4863H13.9145H13.7589V19.3307V19.175H13.9145H14.0701V18.8637V18.5525H13.9145H13.7589V18.8637ZM14.6927 19.3307V20.1089H14.8484H15.004V19.3307V18.5525H14.8484H14.6927V19.3307ZM11.2686 19.3307V19.4863H11.113H10.9573V19.642V19.7976H11.4242H11.8912V19.4863V19.175H11.5799H11.2686V19.3307ZM12.2024 20.5758V20.7315H12.3581H12.5137V20.8871V21.0427H12.6694H12.825V20.8871V20.7315H12.6694H12.5137V20.5758V20.4202H12.3581H12.2024V20.5758ZM15.004 20.7315V21.0427H15.3153H15.6266V20.7315V20.4202H15.3153H15.004V20.7315ZM11.8912 22.2879V22.9104H12.825H13.7589V23.2217V23.533H14.0701H14.3814V23.2217V22.9104H14.0701H13.7589V22.5992V22.2879H13.1363H12.5137V21.9766V21.6653H12.2024H11.8912V22.2879Z" fill="#F9F26E"/>
<path fill-rule="evenodd" clip-rule="evenodd" d="M16.8712 5.16773V5.47901H17.8051H18.7389V5.16773V4.85645H17.8051H16.8712V5.16773ZM11.2681 6.41287V6.72415H11.5794H11.8907V7.03543V7.34672H12.202H12.5133V7.03543V6.72415H12.202H11.8907V6.41287V6.10158H11.5794H11.2681V6.41287ZM15.6261 7.03543V7.34672H15.9374H16.2487V7.03543V6.72415H15.9374H15.6261V7.03543ZM10.6456 8.28057V8.59185H10.9568H11.2681V8.28057V7.96929H10.9568H10.6456V8.28057ZM13.1358 8.28057V8.59185H13.4471H13.7584V8.90314V9.21442H14.0697H14.381V8.90314V8.59185H14.0697H13.7584V8.28057V7.96929H13.4471H13.1358V8.28057ZM19.9841 8.28057V8.59185H19.6728H19.3615V8.90314V9.21442H19.0502H18.7389V9.52571V9.83699H18.4277H18.1164V10.1483V10.4596H17.8051H17.4938V10.7708V11.0821H17.8051H18.1164V10.7708V10.4596H18.4277H18.7389V10.1483V9.83699H19.0502H19.3615V9.52571V9.21442H19.6728H19.9841V8.90314V8.59185H20.2954H20.6067V8.28057V7.96929H20.2954H19.9841V8.28057ZM21.2292 8.90314V9.21442H20.9179H20.6067V9.52571V9.83699H20.9179H21.2292V9.52571V9.21442H21.5405H21.8518V8.90314V8.59185H21.5405H21.2292V8.90314ZM22.4744 8.90314V9.21442H22.7856H23.0969V9.52571V9.83699H23.4082H23.7195V9.52571V9.21442H23.4082H23.0969V8.90314V8.59185H22.7856H22.4744V8.90314ZM13.1358 10.1483V10.4596H12.8246H12.5133V10.7708V11.0821H12.202H11.8907V10.7708V10.4596H11.5794H11.2681V10.7708V11.0821H10.9568H10.6456V11.3934V11.7047H10.9568H11.2681V11.3934V11.0821H11.5794H11.8907V11.3934V11.7047H12.202H12.5133V11.3934V11.0821H12.8246H13.1358V10.7708V10.4596H13.4471H13.7584V10.1483V9.83699H13.4471H13.1358V10.1483ZM8.77786 10.7708V11.0821H9.08914H9.40043V10.7708V10.4596H9.08914H8.77786V10.7708ZM18.7389 11.7047V12.3273H18.4277H18.1164V12.4829V12.6385H18.4277H18.7389V12.4829V12.3273H19.0502H19.3615V11.7047V11.0821H19.0502H18.7389V11.7047ZM11.2681 12.6385V12.9498H11.5794H11.8907V12.6385V12.3273H11.5794H11.2681V12.6385ZM16.2487 12.6385V12.9498H16.56H16.8712V12.6385V12.3273H16.56H16.2487V12.6385ZM17.4938 13.1055V13.2611H17.6495H17.8051V13.4168V13.5724H17.9607H18.1164V13.2611V12.9498H17.8051H17.4938V13.1055ZM10.6456 13.8837V14.195H10.8012H10.9568V14.0393V13.8837H11.1125H11.2681V13.728V13.5724H10.9568H10.6456V13.8837ZM6.91016 15.1288V16.0627H7.22144H7.53272V15.1288V14.195H7.22144H6.91016V15.1288ZM21.8518 14.5063V14.8175H22.1631H22.4744V14.5063V14.195H22.1631H21.8518V14.5063ZM10.023 15.1288V15.4401H10.3343H10.6456V15.1288V14.8175H10.3343H10.023V15.1288ZM14.381 15.1288V15.4401H14.5366H14.6923V15.1288V14.8175H14.5366H14.381V15.1288ZM16.2487 15.1288V15.4401H16.56H16.8712V15.1288V14.8175H16.56H16.2487V15.1288ZM26.8323 16.6852V17.3078H27.1436H27.4549V16.6852V16.0627H27.1436H26.8323V16.6852ZM14.381 17.6191V17.9304H14.6923H15.0035V17.6191V17.3078H14.6923H14.381V17.6191ZM26.8323 18.5529V19.1755H27.1436H27.4549V18.5529V17.9304H27.1436H26.8323V18.5529ZM12.5133 18.3973V18.5529H12.6689H12.8246V18.3973V18.2417H12.6689H12.5133V18.3973ZM24.9646 18.8642V19.1755H25.2759H25.5872V18.8642V18.5529H25.2759H24.9646V18.8642ZM10.023 20.1094V20.4206H10.6456H11.2681V20.1094V19.7981H10.6456H10.023V20.1094ZM17.4938 20.1094V20.4206H17.8051H18.1164V20.1094V19.7981H17.8051H17.4938V20.1094ZM11.8907 20.7319V21.0432H11.5794H11.2681V21.3545V21.6658H11.5794H11.8907V21.3545V21.0432H12.0463H12.202V20.7319V20.4206H12.0463H11.8907V20.7319ZM16.8712 21.3545V21.6658H16.56H16.2487V21.9771V22.2884H15.9374H15.6261V22.9109V23.5335H15.3148H15.0035V23.8448V24.1561H15.3148H15.6261V23.8448V23.5335H15.9374H16.2487V22.9109V22.2884H16.56H16.8712V21.9771V21.6658H17.1825H17.4938V21.3545V21.0432H17.1825H16.8712V21.3545ZM23.0969 22.5996V22.9109H22.7856H22.4744V23.2222V23.5335H22.7856H23.0969V23.2222V22.9109H23.4082H23.7195V22.5996V22.2884H23.4082H23.0969V22.5996ZM24.3421 22.5996V22.9109H24.6533H24.9646V22.5996V22.2884H24.6533H24.3421V22.5996ZM11.8907 23.2222V23.5335H12.202H12.5133V23.8448V24.1561H12.8246H13.1358V23.8448V23.5335H12.8246H12.5133V23.2222V22.9109H12.202H11.8907V23.2222ZM22.4744 24.4673V24.7786H22.7856H23.0969V24.4673V24.1561H22.7856H22.4744V24.4673ZM18.7389 26.335V26.6463H19.3615H19.9841V26.335V26.0238H19.3615H18.7389V26.335Z" fill="#EFDA47"/>
<path fill-rule="evenodd" clip-rule="evenodd" d="M12.5137 5.16773V5.47901H12.2025H11.8912V5.7903V6.10158H12.2025H12.5137V5.7903V5.47901H12.825H13.1363V5.16773V4.85645H12.825H12.5137V5.16773ZM10.0235 8.90314V9.21442H9.71219H9.40091V9.52571V9.83699H9.71219H10.0235V9.52571V9.21442H10.3348H10.646V8.90314V8.59185H10.3348H10.0235V8.90314ZM10.646 10.7708V11.0821H10.9573H11.2686V10.7708V10.4596H10.9573H10.646V10.7708ZM7.5332 11.3934V11.7047H7.84449H8.15577V11.3934V11.0821H7.84449H7.5332V11.3934ZM7.5332 15.1288V15.4401H7.84449H8.15577V15.1288V14.8175H7.84449H7.5332V15.1288ZM24.9651 21.3545V21.6658H25.2764H25.5877V21.3545V21.0432H25.2764H24.9651V21.3545ZM23.0974 23.2222V23.5335H23.4087H23.72V23.2222V22.9109H23.4087H23.0974V23.2222ZM19.9846 24.4673V24.7786H20.6071H21.2297V24.4673V24.1561H20.6071H19.9846V24.4673ZM20.6071 25.7125V26.0238H20.9184H21.2297V25.7125V25.4012H20.9184H20.6071V25.7125ZM18.1169 26.335V26.6463H18.4281H18.7394V26.335V26.0238H18.4281H18.1169V26.335Z" fill="#EFE377"/>
<path fill-rule="evenodd" clip-rule="evenodd" d="M11.8912 3.92261V4.2339H11.2686H10.6461V4.54518V4.85646H10.0235H9.40093V5.16775V5.47903H8.77836H8.15579V5.79032V6.1016H9.08964H10.0235V6.72417V7.34674H10.3348H10.6461V7.03545V6.72417H10.9573H11.2686V6.41288V6.1016H11.5799H11.8912V5.47903V4.85646H12.2025H12.5138V4.54518V4.2339H12.8251H13.1363V3.92261V3.61133H12.5138H11.8912V3.92261ZM19.9846 4.2339V4.85646H20.6072H21.2297V4.54518V4.2339H20.9184H20.6072V3.92261V3.61133H20.2959H19.9846V4.2339ZM21.8523 6.41288V6.72417H22.1636H22.4749V7.03545V7.34674H22.7861H23.0974V7.65802V7.9693H23.4087H23.72V7.65802V7.34674H23.4087H23.0974V7.03545V6.72417H22.7861H22.4749V6.41288V6.1016H22.1636H21.8523V6.41288ZM24.3426 6.41288V6.72417H24.6538H24.9651V6.41288V6.1016H24.6538H24.3426V6.41288ZM12.5138 7.03545V7.34674H12.2025H11.8912V7.65802V7.9693H11.5799H11.2686V8.28059V8.59187H11.5799H11.8912V8.28059V7.9693H12.2025H12.5138V8.28059V8.59187H12.8251H13.1363V8.28059V7.9693H12.8251H12.5138V7.65802V7.34674H12.8251H13.1363V7.03545V6.72417H12.8251H12.5138V7.03545ZM8.77836 8.28059V8.59187H9.08964H9.40093V8.28059V7.9693H9.08964H8.77836V8.28059ZM23.0974 8.90316V9.21444H23.4087H23.72V9.52573V9.83701H24.6538H25.5877V9.52573V9.21444H25.2764H24.9651V8.90316V8.59187H24.6538H24.3426V8.90316V9.21444H24.0313H23.72V8.90316V8.59187H23.4087H23.0974V8.90316ZM26.8328 9.52573V10.4596H27.1441H27.4554V9.52573V8.59187H27.1441H26.8328V9.52573ZM25.5877 11.0821V11.7047H25.2764H24.9651V12.6386V13.5724H25.5877H26.2103V14.195V14.8176H26.8328H27.4554V14.5063V14.195H27.1441H26.8328V13.5724V12.9498H27.1441H27.4554V12.6386V12.3273H26.8328H26.2103V11.3934V10.4596H25.899H25.5877V11.0821ZM6.91065 11.3934V11.7047H7.22194H7.53322V11.3934V11.0821H7.22194H6.91065V11.3934ZM8.77836 11.3934V11.7047H9.08964H9.40093V11.3934V11.0821H9.08964H8.77836V11.3934ZM10.0235 11.3934V11.7047H10.3348H10.6461V11.3934V11.0821H10.3348H10.0235V11.3934ZM6.91065 13.2611V13.5724H7.22194H7.53322V13.2611V12.9498H7.22194H6.91065V13.2611ZM6.28809 15.1288V16.0627H6.59937H6.91065V15.1288V14.195H6.59937H6.28809V15.1288ZM7.53322 19.4868V19.7981H7.84451H8.15579V20.1094V20.4207H8.46707H8.77836V20.1094V19.7981H8.46707H8.15579V19.4868V19.1755H7.84451H7.53322V19.4868ZM10.0235 20.732V21.0432H10.3348H10.6461V21.3545V21.6658H10.9573H11.2686V21.3545V21.0432H10.9573H10.6461V20.732V20.4207H10.3348H10.0235V20.732ZM9.40093 21.9771V22.2884H9.71221H10.0235V22.9109V23.5335H10.9573H11.8912V22.9109V22.2884H10.9573H10.0235V21.9771V21.6658H9.71221H9.40093V21.9771ZM25.5877 22.2884V22.9109H25.899H26.2103V22.2884V21.6658H25.899H25.5877V22.2884ZM24.3426 23.8448V24.1561H24.0313H23.72V24.4674V24.7786H23.4087H23.0974V25.0899V25.4012H23.4087H23.72V25.0899V24.7786H24.0313H24.3426V24.4674V24.1561H24.6538H24.9651V23.8448V23.5335H24.6538H24.3426V23.8448ZM12.5138 25.7125V26.0238H12.8251H13.1363V25.7125V25.4012H12.8251H12.5138V25.7125Z" fill="#D6B90E"/>
<path fill-rule="evenodd" clip-rule="evenodd" d="M15.0035 6.41285V6.72413H14.381H13.7584V7.03541V7.3467H14.381H15.0035V7.03541V6.72413H15.6261H16.2487V6.41285V6.10156H15.6261H15.0035V6.41285ZM21.2292 6.41285V6.72413H20.9179H20.6067V7.03541V7.3467H20.9179H21.2292V7.03541V6.72413H21.5405H21.8518V6.41285V6.10156H21.5405H21.2292V6.41285ZM6.91016 7.03541V7.3467H7.84401H8.77786V7.65798V7.96927H9.08914H9.40043V7.3467V6.72413H8.15529H6.91016V7.03541ZM22.4744 8.28055V8.59183H23.0969H23.7195V8.28055V7.96927H23.0969H22.4744V8.28055ZM7.53272 9.52569V9.83697H7.84401H8.15529V9.52569V9.2144H7.84401H7.53272V9.52569ZM10.6456 10.1483V10.4595H10.9568H11.2681V10.1483V9.83697H10.9568H10.6456V10.1483ZM9.40043 11.0821V11.7047H9.71171H10.023V11.0821V10.4595H9.71171H9.40043V11.0821ZM24.9646 10.7708V11.0821H25.2759H25.5872V10.7708V10.4595H25.2759H24.9646V10.7708ZM27.4549 12.6385V12.9498H27.7662H28.0775V12.6385V12.3272H27.7662H27.4549V12.6385ZM9.40043 14.5062V14.8175H9.71171H10.023V14.5062V14.1949H9.71171H9.40043V14.5062ZM6.91016 16.9965V17.3078H7.22144H7.53272V16.9965V16.6852H7.22144H6.91016V16.9965ZM7.53272 20.1093V20.4206H7.84401H8.15529V20.7319V21.0432H8.46658H8.77786V20.7319V20.4206H8.46658H8.15529V20.1093V19.7981H7.84401H7.53272V20.1093ZM9.40043 21.3545V21.6658H9.71171H10.023V21.977V22.2883H10.6456H11.2681V21.977V21.6658H10.6456H10.023V21.3545V21.0432H9.71171H9.40043V21.3545ZM10.023 23.8448V24.156H10.3343H10.6456V23.8448V23.5335H10.3343H10.023V23.8448ZM22.4744 25.7125V26.0237H22.7856H23.0969V25.7125V25.4012H22.7856H22.4744V25.7125Z" fill="#A68700"/>
<path fill-rule="evenodd" clip-rule="evenodd" d="M20.6072 6.41285V6.72413H20.9185H21.2298V7.03541V7.3467H21.541H21.8523V7.03541V6.72413H21.541H21.2298V6.41285V6.10156H20.9185H20.6072V6.41285ZM6.28812 7.65798V7.96927H5.97684H5.66556V8.28055V8.59183H7.22198H8.7784V7.96927V7.3467H7.53326H6.28812V7.65798ZM6.91069 9.52569V9.83697H5.97684H5.04299V10.1483V10.4595H5.97684H6.91069V10.1483V9.83697H7.22198H7.53326V9.52569V9.2144H7.22198H6.91069V9.52569ZM10.0235 10.1483V10.4595H10.3348H10.6461V10.1483V9.83697H10.3348H10.0235V10.1483ZM3.79785 10.7708V11.0821H4.10914H4.42042V10.7708V10.4595H4.10914H3.79785V10.7708ZM26.8329 11.3934V12.3272H27.1442H27.4554V11.3934V10.4595H27.1442H26.8329V11.3934ZM6.28812 11.3934V11.7047H6.59941H6.91069V11.3934V11.0821H6.59941H6.28812V11.3934ZM6.28812 13.8837V14.1949H6.59941H6.91069V13.8837V13.5724H6.59941H6.28812V13.8837ZM6.91069 17.6191V17.9304H7.22198H7.53326V17.6191V17.3078H7.22198H6.91069V17.6191ZM8.7784 20.1093V20.4206H9.08968H9.40096V20.1093V19.7981H9.08968H8.7784V20.1093ZM9.40096 23.2222V23.5335H9.71225H10.0235V23.2222V22.9109H9.71225H9.40096V23.2222ZM25.5877 23.2222V23.5335H25.899H26.2103V23.2222V22.9109H25.899H25.5877V23.2222ZM10.6461 24.4673V24.7786H10.9574H11.2687V25.0899V25.4012H11.58H11.8912V25.0899V24.7786H11.58H11.2687V24.4673V24.156H10.9574H10.6461V24.4673ZM15.6266 26.9576V27.2689H15.9379H16.2492V26.9576V26.6463H15.9379H15.6266V26.9576Z" fill="#947200"/>
<path fill-rule="evenodd" clip-rule="evenodd" d="M15.0041 5.7898V6.10108H17.4943H19.9846V6.41237V6.72365H20.2959H20.6072V6.41237V6.10108H20.2959H19.9846V5.7898V5.47852H17.4943H15.0041V5.7898ZM12.5138 7.6575V7.96879H12.8251H13.1364V7.6575V7.34622H12.8251H12.5138V7.6575ZM5.04299 9.21392V9.83649H5.97684H6.91069V9.52521V9.21392H7.53326H8.15583V8.90264V8.59136H6.59941H5.04299V9.21392ZM11.2687 8.90264V9.21392H10.9574H10.6461V9.52521V9.83649H10.9574H11.2687V9.52521V9.21392H11.58H11.8912V8.90264V8.59136H11.58H11.2687V8.90264ZM23.72 8.90264V9.21392H24.0313H24.3426V8.90264V8.59136H24.0313H23.72V8.90264ZM4.42042 10.7703V11.0816H4.10914H3.79785V11.3929V11.7042H5.04299H6.28812V11.3929V11.0816H6.59941H6.91069V10.7703V10.4591H5.66556H4.42042V10.7703ZM24.3426 10.7703V11.0816H24.6539H24.9652V10.7703V10.4591H24.6539H24.3426V10.7703ZM6.28812 12.9493V13.5719H6.59941H6.91069V12.9493V12.3268H6.59941H6.28812V12.9493ZM6.91069 18.8637V19.7976H7.22198H7.53326V18.8637V17.9299H7.22198H6.91069V18.8637ZM27.4554 19.4863V19.7976H27.1442H26.8329V20.7314V21.6653H27.1442H27.4554V20.7314V19.7976H27.7667H28.078V19.4863V19.175H27.7667H27.4554V19.4863ZM8.15583 21.354V21.6653H8.46711H8.7784V21.354V21.0427H8.46711H8.15583V21.354ZM24.9652 23.8443V24.1556H25.2765H25.5877V23.8443V23.533H25.2765H24.9652V23.8443ZM23.72 25.0894V25.4007H23.4087H23.0975V25.712V26.0233H22.1636H21.2298V26.3345V26.6458H19.3621H17.4943V26.9571V27.2684H19.3621H21.2298V26.9571V26.6458H22.4749H23.72V26.0233V25.4007H24.0313H24.3426V25.0894V24.7781H24.0313H23.72V25.0894ZM11.8912 25.712V26.0233H12.2025H12.5138V26.3345V26.6458H12.8251H13.1364V26.3345V26.0233H12.8251H12.5138V25.712V25.4007H12.2025H11.8912V25.712ZM13.7589 26.9571V27.2684H14.6928H15.6266V26.9571V26.6458H14.6928H13.7589V26.9571Z" fill="#8A6800"/>
<path fill-rule="evenodd" clip-rule="evenodd" d="M4.42042 18.864V19.1753H4.10914H3.79785V20.4204V21.6656H4.42042H5.04299V22.5994V23.5333H5.35427H5.66556V24.1558V24.7784H6.28812H6.91069V25.0897V25.401H7.22198H7.53326V25.7123V26.0236H7.84454H8.15583V26.3348V26.6461H8.7784H9.40096V26.9574V27.2687H10.0235H10.6461V27.58V27.8913H11.58H12.5138V28.2025V28.5138H13.1364H13.7589V27.8913V27.2687H13.1364H12.5138V26.9574V26.6461H12.2025H11.8912V26.3348V26.0236H11.58H11.2687V25.7123V25.401H10.9574H10.6461V25.0897V24.7784H10.3348H10.0235V24.4671V24.1558H9.71225H9.40096V23.8446V23.5333H9.08968H8.7784V23.222V22.9107H8.46711H8.15583V22.2881V21.6656H7.84454H7.53326V21.043V20.4204H7.22198H6.91069V19.4866V18.5527H5.66556H4.42042V18.864ZM5.04299 21.043V21.6656H5.97684H6.91069V21.043V20.4204H5.97684H5.04299V21.043Z" fill="#300C09"/>
<path fill-rule="evenodd" clip-rule="evenodd" d="M5.04297 21.0425V21.6651H5.97682H6.91067V21.0425V20.4199H5.97682H5.04297V21.0425Z" fill="#2C0C09"/>
<path fill-rule="evenodd" clip-rule="evenodd" d="M3.1748 17.9302V19.7979H3.48609H3.79737V19.4866V19.1753H4.10866H4.41994V18.8641V18.5528H5.66508H6.91021V17.6189V16.6851H6.59893H6.28765V16.3738V16.0625H5.97636H5.66508V16.3738V16.6851H5.04251H4.41994V16.3738V16.0625H3.79737H3.1748V17.9302ZM28.0775 18.8641V19.7979H27.7662H27.455V20.7318V21.6656H27.7662H28.0775V20.7318V19.7979H28.3888H28.7001V18.8641V17.9302H28.3888H28.0775V18.8641ZM7.53278 21.3543V21.6656H7.84407H8.15535V21.3543V21.043H7.84407H7.53278V21.3543ZM8.15535 22.5995V22.9107H8.46663H8.77792V23.222V23.5333H9.0892H9.40049V23.222V22.9107H9.0892H8.77792V22.5995V22.2882H8.46663H8.15535V22.5995ZM25.5873 23.8446V24.1559H25.8985H26.2098V23.8446V23.5333H25.8985H25.5873V23.8446ZM10.0231 24.4672V24.7785H10.3343H10.6456V24.4672V24.1559H10.3343H10.0231V24.4672ZM11.2682 25.7123V26.0236H11.5795H11.8908V26.3349V26.6462H12.202H12.5133V26.9574V27.2687H12.8246H13.1359V26.9574V26.6462H12.8246H12.5133V26.3349V26.0236H12.202H11.8908V25.7123V25.401H11.5795H11.2682V25.7123ZM13.7585 27.8913V28.5139H14.381H15.0036V27.8913V27.2687H14.381H13.7585V27.8913Z" fill="#5A2B03"/>
<path fill-rule="evenodd" clip-rule="evenodd" d="M14.381 6.41285V6.72413H14.6923H15.0036V6.41285V6.10156H14.6923H14.381V6.41285ZM11.8908 8.28055V8.59183H12.202H12.5133V8.28055V7.96927H12.202H11.8908V8.28055ZM27.455 11.3934V12.3272H27.7662H28.0775V14.8175V17.3078H28.3888H28.7001V14.8175V12.3272H28.3888H28.0775V11.3934V10.4595H27.7662H27.455V11.3934ZM3.79737 12.016V12.3272H3.48609H3.1748V14.1949V16.0627H4.73122H6.28765V16.3739V16.6852H6.59893H6.91021V16.3739V16.0627H6.59893H6.28765V13.8837V11.7047H5.04251H3.79737V12.016ZM8.77792 15.7514V19.7981H9.0892H9.40049V15.7514V11.7047H9.0892H8.77792V15.7514ZM6.91021 20.1093V20.4206H7.2215H7.53278V20.7319V21.0432H7.84407H8.15535V20.7319V20.4206H7.84407H7.53278V20.1093V19.7981H7.2215H6.91021V20.1093ZM8.15535 21.977V22.2883H8.46663H8.77792V22.5996V22.9109H9.0892H9.40049V22.5996V22.2883H9.0892H8.77792V21.977V21.6658H8.46663H8.15535V21.977ZM26.2098 22.5996V23.5335H26.8324H27.455V22.5996V21.6658H26.8324H26.2098V22.5996ZM9.40049 23.8448V24.156H9.71177H10.0231V23.8448V23.5335H9.71177H9.40049V23.8448ZM24.3421 24.7786V25.4012H24.0308H23.7196V25.7125V26.0237H24.0308H24.3421V25.7125V25.4012H24.6534H24.9647V24.7786V24.156H24.6534H24.3421V24.7786ZM10.6456 25.0899V25.4012H10.9569H11.2682V25.0899V24.7786H10.9569H10.6456V25.0899ZM13.1359 26.9576V27.2689H13.4472H13.7585V26.9576V26.6463H13.4472H13.1359V26.9576ZM21.2293 26.9576V27.2689H18.1164H15.0036V27.8914V28.514H16.2487H17.4939V28.2027V27.8914H19.3616H21.2293V27.5802V27.2689H21.8518H22.4744V26.9576V26.6463H21.8518H21.2293V26.9576Z" fill="#603105"/>
<path fill-rule="evenodd" clip-rule="evenodd" d="M11.2686 3.92261V4.2339H11.5799H11.8912V3.92261V3.61133H11.5799H11.2686V3.92261ZM14.3815 5.79032V6.1016H14.0702H13.7589V6.41288V6.72417H13.4476H13.1363V7.34674V7.9693H13.4476H13.7589V7.34674V6.72417H14.0702H14.3815V6.41288V6.1016H14.6928H15.004V5.79032V5.47903H14.6928H14.3815V5.79032ZM19.9846 5.79032V6.1016H18.1169H16.2492V6.41288V6.72417H18.1169H19.9846V7.03545V7.34674H20.2959H20.6072V7.03545V6.72417H20.2959H19.9846V6.41288V6.1016H20.2959H20.6072V5.79032V5.47903H20.2959H19.9846V5.79032ZM6.91065 6.41288V6.72417H8.15579H9.40093V7.34674V7.9693H9.71221H10.0235V7.03545V6.1016H8.46707H6.91065V6.41288ZM21.8523 7.34674V7.9693H22.4749H23.0974V7.65802V7.34674H22.7861H22.4749V7.03545V6.72417H22.1636H21.8523V7.34674ZM10.6461 8.90316V9.21444H10.3348H10.0235V9.52573V9.83701H10.3348H10.6461V9.52573V9.21444H10.9573H11.2686V9.52573V9.83701H11.5799H11.8912V9.52573V9.21444H11.5799H11.2686V8.90316V8.59187H10.9573H10.6461V8.90316ZM6.91065 10.4596V11.0821H7.22194H7.53322V10.4596V9.83701H7.22194H6.91065V10.4596ZM24.3426 10.1483V10.4596H24.9651H25.5877V10.1483V9.83701H24.9651H24.3426V10.1483ZM8.15579 11.0821V11.7047H8.46707H8.77836V11.0821V10.4596H8.46707H8.15579V11.0821ZM10.0235 10.7709V11.0821H10.3348H10.6461V10.7709V10.4596H10.3348H10.0235V10.7709ZM24.3426 11.3934V11.7047H24.9651H25.5877V11.3934V11.0821H24.9651H24.3426V11.3934ZM6.28809 12.016V12.3273H6.59937H6.91065V12.6386V12.9498H7.22194H7.53322V12.6386V12.3273H7.22194H6.91065V12.016V11.7047H6.59937H6.28809V12.016ZM9.40093 12.9498V14.195H9.71221H10.0235V12.9498V11.7047H9.71221H9.40093V12.9498ZM27.4554 16.0627V19.1755H27.1441H26.8328V19.4868V19.7981H27.1441H27.4554V19.4868V19.1755H27.7667H28.078V16.0627V12.9498H27.7667H27.4554V16.0627ZM9.40093 17.9304V21.0432H9.71221H10.0235V21.3545V21.6658H10.3348H10.6461V21.3545V21.0432H10.3348H10.0235V17.9304V14.8176H9.71221H9.40093V17.9304ZM6.91065 16.374V16.6853H7.22194H7.53322V16.374V16.0627H7.22194H6.91065V16.374ZM26.2103 21.3545V21.6658H26.5215H26.8328V21.3545V21.0432H26.5215H26.2103V21.3545ZM8.77836 21.9771V22.2884H9.08964H9.40093V22.5997V22.9109H9.71221H10.0235V22.5997V22.2884H9.71221H9.40093V21.9771V21.6658H9.08964H8.77836V21.9771ZM24.9651 23.2222V23.5335H25.2764H25.5877V23.2222V22.9109H25.2764H24.9651V23.2222ZM13.1363 26.3351V26.6463H13.4476H13.7589V26.3351V26.0238H13.4476H13.1363V26.3351ZM20.6072 26.3351V26.6463H20.9184H21.2297V26.3351V26.0238H20.9184H20.6072V26.3351ZM16.8717 26.9576V27.2689H17.183H17.4943V26.9576V26.6463H17.183H16.8717V26.9576Z" fill="#B68E03"/>
<path fill-rule="evenodd" clip-rule="evenodd" d="M14.3809 3.92261V4.2339H16.5598H18.7388V3.92261V3.61133H16.5598H14.3809V3.92261ZM26.2097 16.6853V17.3078H26.5209H26.8322V16.6853V16.0627H26.5209H26.2097V16.6853ZM26.2097 18.553V19.1755H25.8984H25.5871V19.4868V19.7981H25.2758H24.9645V20.1094V20.4207H25.5871H26.2097V19.7981V19.1755H26.5209H26.8322V18.553V17.9304H26.5209H26.2097V18.553Z" fill="#F7F4D8"/>
<path fill-rule="evenodd" clip-rule="evenodd" d="M16.2486 13.5718V14.1944H15.9373H15.626V14.5056V14.8169H15.3147H15.0035V15.4395V16.0621H15.3147H15.626V15.7508V15.4395H15.9373H16.2486V14.8169V14.1944H16.8712H17.4937V13.5718V12.9492H16.8712H16.2486V13.5718ZM23.7194 13.2605V13.5718H23.4081H23.0969V13.8831V14.1944H22.7856H22.4743V16.0621V17.9298H22.163H21.8517V18.5523V19.1749H22.4743H23.0969V19.0193V18.8636H23.4081H23.7194V18.241V17.6185H23.8751H24.0307V17.3072V16.9959H23.8751H23.7194V16.529V16.0621H23.8751H24.0307V14.5056V12.9492H23.8751H23.7194V13.2605ZM13.7583 17.6185V17.9298H13.447H13.1358V18.241V18.5523H12.9801H12.8245V18.8636V19.1749H12.9801H13.1358V18.8636V18.5523H13.447H13.7583V18.241V17.9298H14.0696H14.3809V17.7741V17.6185H14.2253H14.0696V17.4628V17.3072H13.914H13.7583V17.6185ZM20.6066 17.6185V17.9298H20.2953H19.984V18.0854V18.241H20.1397H20.2953V18.8636V19.4862H20.4509H20.6066V19.3305V19.1749H21.0735H21.5404V18.5523V17.9298H21.3848H21.2291V17.6185V17.3072H20.9179H20.6066V17.6185ZM19.3614 18.8636V19.1749H19.0502H18.7389V19.3305V19.4862H19.2058H19.6727V19.0193V18.5523H19.5171H19.3614V18.8636ZM11.8906 19.7975V20.42H12.2019H12.5132V19.7975V19.1749H12.2019H11.8906V19.7975Z" fill="#F6EA13"/>
<path fill-rule="evenodd" clip-rule="evenodd" d="M22.4745 12.6384V12.9497H22.7858H23.0971V12.6384V12.3271H22.7858H22.4745V12.6384ZM19.0504 12.7941V12.9497H18.7391H18.4278V13.8836V14.8174H18.5835H18.7391V15.9069V16.9964H18.5835H18.4278V18.0859V19.1754H18.5835H18.7391V18.8641V18.5528H19.0504H19.3617V18.2415V17.9303H19.5173H19.673V17.619V17.3077H20.1399H20.6068V16.3738V15.44H20.7625H20.9181V14.9731V14.5061H21.0738H21.2294V13.7279V12.9497H21.385H21.5407V12.7941V12.6384H20.9181H20.2956V12.9497V13.261H20.1399H19.9843V13.5723V13.8836H19.8286H19.673V13.261V12.6384H19.3617H19.0504V12.7941ZM12.2022 13.261V13.5723H12.0465H11.8909V13.7279V13.8836H11.5796H11.2683V14.1949V14.5061H11.1127H10.957V15.44V16.3738H11.1127H11.2683V16.6851V16.9964H11.5796H11.8909V17.1521V17.3077H12.0465H12.2022V17.4633V17.619H12.3578H12.5135V17.4633V17.3077H12.8247H13.136V16.9964V16.6851H13.4473H13.7586V16.5295V16.3738H13.6029H13.4473V16.2182V16.0626H13.136H12.8247V15.9069V15.7513H12.6691H12.5135V15.5956V15.44H12.3578H12.2022V14.9731V14.5061H12.5135H12.8247V14.9731V15.44H13.2917H13.7586V15.2843V15.1287H13.9142H14.0699V14.5061V13.8836H13.9142H13.7586V13.7279V13.5723H13.4473H13.136V13.4166V13.261H12.9804H12.8247V13.1054V12.9497H12.5135H12.2022V13.261ZM15.0037 13.7279V14.1949H15.315H15.6263V13.7279V13.261H15.315H15.0037V13.7279ZM17.494 14.8174V15.44H17.1827H16.8714V15.7513V16.0626H16.5601H16.2489V16.3738V16.6851H15.9376H15.6263V16.9964V17.3077H15.315H15.0037V18.7085V20.1092H15.1594H15.315V19.9536V19.798H15.7819H16.2489V18.3972V16.9964H16.8714H17.494V16.8408V16.6851H17.6496H17.8053V16.2182V15.7513H17.9609H18.1166V15.2843V14.8174H17.9609H17.8053V14.5061V14.1949H17.6496H17.494V14.8174ZM10.957 18.7085V19.4867H11.1127H11.2683V19.331V19.1754H11.5796H11.8909V18.8641V18.5528H12.0465H12.2022V18.2415V17.9303H11.5796H10.957V18.7085ZM13.7586 19.331V19.4867H13.9142H14.0699V19.331V19.1754H13.9142H13.7586V19.331ZM13.136 19.9536V20.1092H13.2917H13.4473V19.9536V19.798H13.2917H13.136V19.9536ZM12.5135 20.5762V20.7318H12.6691H12.8247V20.5762V20.4205H12.6691H12.5135V20.5762Z" fill="#FEF990"/>
<path fill-rule="evenodd" clip-rule="evenodd" d="M16.8714 11.3933V11.7046H17.1827H17.494V11.3933V11.082H17.1827H16.8714V11.3933ZM23.0971 13.261V13.5723H22.7858H22.4745V13.8836V14.1949H22.7858H23.0971V13.8836V13.5723H23.4084H23.7197V13.261V12.9497H23.4084H23.0971V13.261ZM17.494 13.4167V13.5723H17.6496H17.8053V13.4167V13.261H17.6496H17.494V13.4167ZM15.6263 13.8836V14.1949H15.315H15.0037V14.5062V14.8174H14.8481H14.6924V14.9731V15.1287H14.8481H15.0037V14.9731V14.8174H15.315H15.6263V14.5062V14.1949H15.9376H16.2489V13.8836V13.5723H15.9376H15.6263V13.8836ZM10.957 14.0392V14.1949H11.1127H11.2683V14.0392V13.8836H11.1127H10.957V14.0392ZM15.6263 15.7513V16.0626H15.315H15.0037V16.3739V16.6851H15.315H15.6263V16.3739V16.0626H15.9376H16.2489V15.7513V15.44H15.9376H15.6263V15.7513ZM13.7586 16.2182V16.3739H13.9142H14.0699V16.5295V16.6851H13.9142H13.7586V16.9964V17.3077H13.4473H13.136V17.619V17.9303H12.9804H12.8247V18.2416V18.5528H12.9804H13.136V18.8641V19.1754H12.8247H12.5135V19.4867V19.798H12.8247H13.136V19.4867V19.1754H13.4473H13.7586V18.8641V18.5528H14.0699H14.3812V18.2416V17.9303H14.0699H13.7586V17.619V17.3077H13.9142H14.0699V16.9964V16.6851H14.2255H14.3812V16.3739V16.0626H14.0699H13.7586V16.2182ZM20.6068 16.6851V17.3077H20.2956H19.9843V17.619V17.9303H20.2956H20.6068V17.619V17.3077H20.9181H21.2294V16.6851V16.0626H20.9181H20.6068V16.6851ZM13.136 18.2416V18.5528H13.4473H13.7586V18.2416V17.9303H13.4473H13.136V18.2416ZM11.8909 18.8641V19.1754H12.0465H12.2022V18.8641V18.5528H12.0465H11.8909V18.8641ZM18.1166 19.6423V19.798H18.4278H18.7391V19.6423V19.4867H18.4278H18.1166V19.6423ZM11.2683 19.9536V20.1093H11.5796H11.8909V19.9536V19.798H11.5796H11.2683V19.9536ZM12.8247 20.2649V20.4206H12.9804H13.136V20.2649V20.1093H12.9804H12.8247V20.2649Z" fill="#F9F03D"/>
<path fill-rule="evenodd" clip-rule="evenodd" d="M22.4745 12.6384V12.9497H22.7858H23.0971V12.6384V12.3271H22.7858H22.4745V12.6384ZM19.0504 12.7941V12.9497H18.7391H18.4278V13.8836V14.8174H18.5835H18.7391V15.9069V16.9964H18.5835H18.4278V18.0859V19.1754H18.5835H18.7391V18.8641V18.5528H19.0504H19.3617V18.2415V17.9303H19.5173H19.673V17.619V17.3077H20.1399H20.6068V16.3738V15.44H20.7625H20.9181V14.9731V14.5061H21.0738H21.2294V13.7279V12.9497H21.385H21.5407V12.7941V12.6384H20.9181H20.2956V12.9497V13.261H20.1399H19.9843V13.5723V13.8836H19.8286H19.673V13.261V12.6384H19.3617H19.0504V12.7941ZM12.2022 13.261V13.5723H12.0465H11.8909V13.7279V13.8836H11.5796H11.2683V14.1949V14.5061H11.1127H10.957V15.44V16.3738H11.1127H11.2683V16.6851V16.9964H11.5796H11.8909V17.1521V17.3077H12.0465H12.2022V17.4633V17.619H12.3578H12.5135V17.4633V17.3077H12.8247H13.136V16.9964V16.6851H13.4473H13.7586V16.5295V16.3738H13.6029H13.4473V16.2182V16.0626H13.136H12.8247V15.9069V15.7513H12.6691H12.5135V15.5956V15.44H12.3578H12.2022V14.9731V14.5061H12.5135H12.8247V14.9731V15.44H13.2917H13.7586V15.2843V15.1287H13.9142H14.0699V14.5061V13.8836H13.9142H13.7586V13.7279V13.5723H13.4473H13.136V13.4166V13.261H12.9804H12.8247V13.1054V12.9497H12.5135H12.2022V13.261ZM15.0037 13.7279V14.1949H15.315H15.6263V13.7279V13.261H15.315H15.0037V13.7279ZM17.494 14.8174V15.44H17.1827H16.8714V15.7513V16.0626H16.5601H16.2489V16.3738V16.6851H15.9376H15.6263V16.9964V17.3077H15.315H15.0037V18.7085V20.1092H15.1594H15.315V19.9536V19.798H15.7819H16.2489V18.3972V16.9964H16.8714H17.494V16.8408V16.6851H17.6496H17.8053V16.2182V15.7513H17.9609H18.1166V15.2843V14.8174H17.9609H17.8053V14.5061V14.1949H17.6496H17.494V14.8174ZM10.957 18.7085V19.4867H11.1127H11.2683V19.331V19.1754H11.5796H11.8909V18.8641V18.5528H12.0465H12.2022V18.2415V17.9303H11.5796H10.957V18.7085ZM13.7586 19.331V19.4867H13.9142H14.0699V19.331V19.1754H13.9142H13.7586V19.331ZM13.136 19.9536V20.1092H13.2917H13.4473V19.9536V19.798H13.2917H13.136V19.9536ZM12.5135 20.5762V20.7318H12.6691H12.8247V20.5762V20.4205H12.6691H12.5135V20.5762Z" fill="#FEF990"/>
<path fill-rule="evenodd" clip-rule="evenodd" d="M13.7588 4.54468V4.85597H14.0701H14.3814V4.54468V4.2334H14.0701H13.7588V4.54468ZM12.5137 6.41239V6.72367H12.825H13.1363V6.41239V6.1011H12.825H12.5137V6.41239ZM16.2491 7.03495V7.34624H15.9378H15.6266V7.65752V7.96881H15.3153H15.004V8.28009V8.59137H14.6927H14.3814V8.90266V9.21394H14.0701H13.7588V9.52523V9.83651H14.3814H15.004V10.7704V11.7042H14.6927H14.3814V11.3929V11.0816H14.0701H13.7588V10.7704V10.4591H13.4476H13.1363V10.7704V11.0816H12.825H12.5137V11.3929V11.7042H12.2024H11.8911V12.0155V12.3268H12.5137H13.1363V12.6381V12.9494H14.3814H15.6266V13.105V13.2606H15.9378H16.2491V12.7937V12.3268H16.5604H16.8717V11.7042V11.0816H17.183H17.4943V10.7704V10.4591H17.8055H18.1168V10.1478V9.83651H18.4281H18.7394V9.52523V9.21394H19.0507H19.362V8.90266V8.59137H19.6732H19.9845V8.28009V7.96881H20.2958H20.6071V7.65752V7.34624H19.362H18.1168V7.03495V6.72367H17.183H16.2491V7.03495ZM16.2491 7.65752V7.96881H16.8717H17.4943V7.65752V7.34624H16.8717H16.2491V7.65752ZM15.6266 8.90266V9.21394H15.3153H15.004V9.52523V9.83651H15.3153H15.6266V9.52523V9.21394H15.9378H16.2491V8.90266V8.59137H15.9378H15.6266V8.90266ZM21.8522 8.90266V9.21394H21.5409H21.2297V9.52523V9.83651H20.9184H20.6071V10.1478V10.4591H20.2958H19.9845V10.7704V11.0816H19.6732H19.362V11.7042V12.3268H19.0507H18.7394V12.4824V12.6381H18.4281H18.1168V12.7937V12.9494H18.4281H18.7394V12.7937V12.6381H19.0507H19.362V12.4824V12.3268H20.4515H21.5409V12.9494V13.5719H21.6966H21.8522V13.8832V14.1945H21.5409H21.2297V14.8171V15.4396H21.074H20.9184V15.7509V16.0622H21.074H21.2297V15.7509V15.4396H21.5409H21.8522V14.8171V14.1945H22.1635H22.4748V13.2606V12.3268H22.7861H23.0974V12.1711V12.0155H23.5643H24.0312V12.1711V12.3268H24.1869H24.3425V11.0816V9.83651H23.7199H23.0974V9.52523V9.21394H22.7861H22.4748V8.90266V8.59137H22.1635H21.8522V8.90266ZM21.8522 9.52523V9.83651H21.5409H21.2297V10.4591V11.0816H21.8522H22.4748V10.1478V9.21394H22.1635H21.8522V9.52523ZM16.2491 10.1478V10.4591H16.8717H17.4943V10.1478V9.83651H16.8717H16.2491V10.1478ZM19.9845 11.3929V11.7042H20.2958H20.6071V11.3929V11.0816H20.2958H19.9845V11.3929ZM23.0974 11.3929V11.7042H23.4087H23.7199V11.3929V11.0816H23.4087H23.0974V11.3929ZM11.2686 13.4163V13.8832H11.4242H11.5799V13.7276V13.5719H11.7355H11.8911V13.2606V12.9494H11.5799H11.2686V13.4163ZM18.1168 13.4163V13.5719H17.9612H17.8055V13.8832V14.1945H18.1168H18.4281V14.0388V13.8832H18.2725H18.1168V13.7276V13.5719H18.2725H18.4281V13.4163V13.2606H18.2725H18.1168V13.4163ZM13.7588 13.7276V13.8832H13.9145H14.0701V14.1945V14.5058H14.2258H14.3814V14.6614V14.8171H14.5371H14.6927V14.1945V13.5719H14.2258H13.7588V13.7276ZM10.646 14.3501V14.5058H10.8016H10.9573V14.3501V14.1945H10.8016H10.646V14.3501ZM16.8717 14.5058V14.8171H17.183H17.4943V14.5058V14.1945H17.183H16.8717V14.5058ZM18.1168 15.5953V16.3735H17.9612H17.8055V16.6848V16.996H17.3386H16.8717V17.1517V17.3073H16.716H16.5604V18.5525V19.7976H16.4048H16.2491V19.9532V20.1089H15.4709H14.6927V19.3307V18.5525H14.8483H15.004V18.2412V17.9299H14.6927H14.3814V18.2412V18.5525H14.2258H14.0701V19.175V19.7976H13.9145H13.7588V19.9532V20.1089H13.4476H13.1363V19.9532V19.7976H12.825H12.5137V20.1089V20.4202H12.6694H12.825V20.7315V21.0427H12.6694H12.5137V20.8871V20.7315H12.3581H12.2024V20.8871V21.0427H12.0468H11.8911V21.354V21.6653H11.5799H11.2686V21.9766V22.2879H11.5799H11.8911V21.9766V21.6653H12.2024H12.5137V21.9766V22.2879H13.1363H13.7588V22.5992V22.9104H13.1363H12.5137V23.2217V23.533H12.825H13.1363V23.8443V24.1556H14.0701H15.004V23.8443V23.533H15.3153H15.6266V22.9104V22.2879H15.9378H16.2491V21.9766V21.6653H16.5604H16.8717V21.354V21.0427H17.183H17.4943V20.4202V19.7976H17.8055H18.1168V19.642V19.4863H18.2725H18.4281V19.3307V19.175H18.2725H18.1168V18.7081V18.2412H18.2725H18.4281V17.1517V16.0622H18.5837H18.7394V15.7509V15.4396H18.5837H18.4281V15.1283V14.8171H18.2725H18.1168V15.5953ZM14.0701 15.284V15.4396H13.4476H12.825V15.5953V15.7509H12.9806H13.1363V15.9065V16.0622H13.2919H13.4476V16.2178V16.3735H13.6032H13.7588V16.5291V16.6848H13.9145H14.0701V16.5291V16.3735H13.9145H13.7588V16.2178V16.0622H14.0701H14.3814V15.5953V15.1283H14.2258H14.0701V15.284ZM14.6927 15.284V15.4396H14.8483H15.004V15.284V15.1283H14.8483H14.6927V15.284ZM10.0234 16.3735V17.3073H10.646H11.2686V17.6186V17.9299H11.7355H12.2024V18.2412V18.5525H12.3581H12.5137V18.0855V17.6186H12.2024H11.8911V17.463V17.3073H11.7355H11.5799V17.1517V16.996H11.4242H11.2686V16.8404V16.6848H11.1129H10.9573V16.3735V16.0622H10.8016H10.646V15.7509V15.4396H10.3347H10.0234V16.3735ZM16.2491 15.5953V15.7509H16.5604H16.8717V15.5953V15.4396H16.5604H16.2491V15.5953ZM26.2102 15.7509V16.0622H26.5215H26.8328V15.7509V15.4396H26.5215H26.2102V15.7509ZM15.004 16.996V17.3073H15.3153H15.6266V16.996V16.6848H15.3153H15.004V16.996ZM10.0234 18.8637V19.7976H10.4904H10.9573V19.4863V19.175H10.8016H10.646V18.5525V17.9299H10.3347H10.0234V18.8637ZM19.6732 18.2412V18.5525H19.8289H19.9845V18.2412V17.9299H19.8289H19.6732V18.2412ZM18.7394 18.8637V19.175H19.0507H19.362V18.8637V18.5525H19.0507H18.7394V18.8637ZM26.2102 19.4863V19.7976H26.5215H26.8328V19.4863V19.175H26.5215H26.2102V19.4863ZM12.825 20.2645V20.4202H12.9806H13.1363V20.2645V20.1089H12.9806H12.825V20.2645ZM15.004 20.7315V21.0427H15.3153H15.6266V20.7315V20.4202H15.3153H15.004V20.7315ZM13.7588 23.2217V23.533H14.0701H14.3814V23.2217V22.9104H14.0701H13.7588V23.2217Z" fill="#FBF06C"/>
<path fill-rule="evenodd" clip-rule="evenodd" d="M12.5137 4.54468V4.85597H12.2025H11.8912V5.16725V5.47853H12.2025H12.5137V5.16725V4.85597H13.1363H13.7589V4.54468V4.2334H13.1363H12.5137V4.54468ZM19.362 5.16725V5.47853H19.9846H20.6071V5.78982V6.1011H21.541H22.4748V6.41239V6.72367H22.7861H23.0974V7.03495V7.34624H23.4087H23.72V7.96881V8.59138H24.3425H24.9651V8.90266V9.21394H25.2764H25.5877V9.83651V10.4591H25.899H26.2102V11.3929V12.3268H26.5215H26.8328V10.7704V9.21394H26.5215H26.2102V8.90266V8.59138H25.5877H24.9651V8.28009V7.96881H24.6538H24.3425V7.34624V6.72367H24.0313H23.72V6.41239V6.1011H23.4087H23.0974V5.47853V4.85597H21.2297H19.362V5.16725ZM15.004 7.03495V7.34624H14.3815H13.7589V7.96881V8.59138H13.4476H13.1363V8.90266V9.21394H12.825H12.5137V9.52523V9.83651H12.2025H11.8912V10.4591V11.0816H11.5799H11.2686V11.3929V11.7042H10.646H10.0235V12.9494V14.1945H10.3348H10.646V13.2606V12.3268H11.2686H11.8912V11.7042V11.0816H12.2025H12.5137V10.4591V9.83651H12.825H13.1363V9.52523V9.21394H13.4476H13.7589V8.90266V8.59138H14.0702H14.3815V8.28009V7.96881H15.004H15.6266V7.34624V6.72367H15.3153H15.004V7.03495ZM21.2297 7.65752V7.96881H20.9184H20.6071V8.28009V8.59138H20.2958H19.9846V8.90266V9.21394H19.6733H19.362V9.52523V9.83651H19.0507H18.7394V10.4591V11.0816H18.4281H18.1169V11.3929V11.7042H17.8056H17.4943V12.0155V12.3268H17.183H16.8717V12.6381V12.9494H17.183H17.4943V12.6381V12.3268H17.8056H18.1169V12.0155V11.7042H18.4281H18.7394V11.3929V11.0816H19.0507H19.362V10.7704V10.4591H19.6733H19.9846V10.1478V9.83651H20.2958H20.6071V9.21394V8.59138H21.2297H21.8523V7.96881V7.34624H21.541H21.2297V7.65752ZM7.5332 10.1478V10.4591H7.84449H8.15577V10.1478V9.83651H7.84449H7.5332V10.1478ZM24.3425 12.6381V12.9494H24.1869H24.0313V15.4396V17.9299H23.8756H23.72V18.3968V18.8637H23.4087H23.0974V19.0194V19.175H22.4748H21.8523V18.5525V17.9299H22.1636H22.4748V16.6848V15.4396H22.1636H21.8523V15.7509V16.0622H21.541H21.2297V16.996V17.9299H21.3853H21.541V18.5525V19.175H21.2297H20.9184V19.3307V19.4863H20.6071H20.2958V19.0194V18.5525H19.9846H19.6733V19.0194V19.4863H19.5176H19.362V19.642V19.7976H18.7394H18.1169V20.4202V21.0427H17.8056H17.4943V21.354V21.6653H17.183H16.8717V21.9766V22.2879H16.5604H16.2492V22.9104V23.533H15.9379H15.6266V23.8443V24.1556H15.3153H15.004V24.4669V24.7781H13.7589H12.5137V24.1556V23.533H11.5799H10.646V23.8443V24.1556H10.9573H11.2686V24.4669V24.7781H11.5799H11.8912V25.0894V25.4007H12.5137H13.1363V25.712V26.0233H13.4476H13.7589V26.3346V26.6458H15.004H16.2492V26.9571V27.2684H16.5604H16.8717V26.3346V25.4007H18.1169H19.362V25.0894V24.7781H19.6733H19.9846V24.4669V24.1556H21.2297H22.4748V23.533V22.9104H22.7861H23.0974V22.5992V22.2879H23.4087H23.72V21.6653V21.0427H24.0313H24.3425V20.1089V19.175H24.6538H24.9651V18.8637V18.5525H25.2764H25.5877V17.3073V16.0622H25.899H26.2102V14.8171V13.5719H25.5877H24.9651V12.9494V12.3268H24.6538H24.3425V12.6381ZM26.8328 13.5719V14.1945H27.1441H27.4554V13.5719V12.9494H27.1441H26.8328V13.5719ZM16.2492 14.5058V14.8171H16.5604H16.8717V14.6614V14.5058H16.7161H16.5604V14.3501V14.1945H16.4048H16.2492V14.5058ZM8.15577 16.0622V17.3073H7.84449H7.5332V18.2412V19.175H7.84449H8.15577V19.4863V19.7976H8.46706H8.77834V17.3073V14.8171H8.46706H8.15577V16.0622ZM26.8328 15.1283V15.4396H27.1441H27.4554V15.1283V14.8171H27.1441H26.8328V15.1283ZM14.3815 16.6848V17.3073H14.5371H14.6927V16.6848V16.0622H14.5371H14.3815V16.6848ZM12.5137 18.7081V18.8637H12.6694H12.825V18.7081V18.5525H12.6694H12.5137V18.7081ZM8.77834 21.0427V21.6653H9.08962H9.40091V21.0427V20.4202H9.08962H8.77834V21.0427ZM11.2686 20.7315V21.0427H11.5799H11.8912V20.7315V20.4202H11.5799H11.2686V20.7315ZM26.2102 20.7315V21.0427H25.899H25.5877V21.354V21.6653H25.899H26.2102V21.354V21.0427H26.5215H26.8328V20.7315V20.4202H26.5215H26.2102V20.7315ZM24.9651 22.5992V22.9104H25.2764H25.5877V22.5992V22.2879H25.2764H24.9651V22.5992ZM22.4748 25.0894V25.4007H21.8523H21.2297V25.712V26.0233H21.8523H22.4748V25.712V25.4007H22.7861H23.0974V25.0894V24.7781H22.7861H22.4748V25.0894Z" fill="#E8C90E"/>
<path fill-rule="evenodd" clip-rule="evenodd" d="M4.41992 16.3738V16.6851H5.04249H5.66506V16.3738V16.0625H5.04249H4.41992V16.3738ZM28.0775 17.6189V17.9302H28.3888H28.7001V17.6189V17.3076H28.3888H28.0775V17.6189ZM24.9647 24.7785V25.401H25.276H25.5872V24.7785V24.1559H25.276H24.9647V24.7785Z" fill="#5C3006"/>
<path fill-rule="evenodd" clip-rule="evenodd" d="M13.1358 3.92261V4.2339H13.4471H13.7584V3.92261V3.61133H13.4471H13.1358V3.92261ZM19.3615 4.2339V4.85646H19.0502H18.7389V5.16775V5.47903H19.0502H19.3615V5.16775V4.85646H19.6728H19.9841V4.2339V3.61133H19.6728H19.3615V4.2339ZM23.0969 5.79032V6.1016H23.4082H23.7195V6.41288V6.72417H24.0308H24.3421V7.34674V7.9693H24.6533H24.9646V8.28059V8.59187H25.5872H26.2098V8.90316V9.21444H26.5211H26.8323V8.90316V8.59187H26.5211H26.2098V7.9693V7.34674H25.8985H25.5872V7.03545V6.72417H24.9646H24.3421V6.41288V6.1016H24.0308H23.7195V5.79032V5.47903H23.4082H23.0969V5.79032ZM13.1358 6.41288V6.72417H13.4471H13.7584V6.41288V6.1016H13.4471H13.1358V6.41288ZM20.6067 7.65802V7.9693H20.9179H21.2292V7.65802V7.34674H20.9179H20.6067V7.65802ZM14.381 8.28059V8.59187H14.6923H15.0035V8.28059V7.9693H14.6923H14.381V8.28059ZM21.8518 8.28059V8.59187H22.1631H22.4744V8.28059V7.9693H22.1631H21.8518V8.28059ZM12.5133 8.90316V9.21444H12.202H11.8907V9.52573V9.83701H12.202H12.5133V10.1483V10.4596H12.8246H13.1358V10.1483V9.83701H13.4471H13.7584V9.52573V9.21444H13.4471H13.1358V8.90316V8.59187H12.8246H12.5133V8.90316ZM20.6067 8.90316V9.21444H20.9179H21.2292V8.90316V8.59187H20.9179H20.6067V8.90316ZM12.5133 9.52573V9.83701H12.8246H13.1358V9.52573V9.21444H12.8246H12.5133V9.52573ZM9.40043 10.1483V10.4596H9.71171H10.023V10.1483V9.83701H9.71171H9.40043V10.1483ZM19.9841 10.1483V10.4596H19.6728H19.3615V10.7709V11.0821H19.6728H19.9841V10.7709V10.4596H20.2954H20.6067V10.1483V9.83701H20.2954H19.9841V10.1483ZM7.53272 10.7709V11.0821H7.84401H8.15529V10.7709V10.4596H7.84401H7.53272V10.7709ZM18.1164 10.7709V11.0821H17.8051H17.4938V11.3934V11.7047H17.1825H16.8712V12.016V12.3273H17.1825H17.4938V12.6386V12.9498H17.8051H18.1164V12.6386V12.3273H18.4277H18.7389V12.016V11.7047H18.4277H18.1164V11.3934V11.0821H18.4277H18.7389V10.7709V10.4596H18.4277H18.1164V10.7709ZM6.91016 12.016V12.3273H7.22144H7.53272V12.016V11.7047H7.22144H6.91016V12.016ZM17.4938 12.016V12.3273H17.8051H18.1164V12.016V11.7047H17.8051H17.4938V12.016ZM24.3421 12.016V12.3273H24.1864H24.0308V12.6386V12.9498H24.1864H24.3421V12.6386V12.3273H24.6533H24.9646V12.016V11.7047H24.6533H24.3421V12.016ZM10.6456 12.9498V13.5724H10.9568H11.2681V12.9498V12.3273H10.9568H10.6456V12.9498ZM6.91016 13.8837V14.195H7.22144H7.53272V13.8837V13.5724H7.22144H6.91016V13.8837ZM10.023 14.5063V14.8176H10.3343H10.6456V14.5063V14.195H10.3343H10.023V14.5063ZM21.8518 15.1288V15.4401H21.5405H21.2292V15.7514V16.0627H21.5405H21.8518V15.7514V15.4401H22.1631H22.4744V15.1288V14.8176H22.1631H21.8518V15.1288ZM26.2098 15.1288V15.4401H26.5211H26.8323V15.7514V16.0627H27.1436H27.4549V15.7514V15.4401H27.1436H26.8323V15.1288V14.8176H26.5211H26.2098V15.1288ZM14.381 15.7514V16.0627H14.5366H14.6923V15.7514V15.4401H14.5366H14.381V15.7514ZM25.5872 17.3078V18.553H25.8985H26.2098V17.3078V16.0627H25.8985H25.5872V17.3078ZM14.0697 16.8409V16.9965H14.2253H14.381V16.8409V16.6853H14.2253H14.0697V16.8409ZM26.8323 17.6191V17.9304H27.1436H27.4549V17.6191V17.3078H27.1436H26.8323V17.6191ZM24.3421 19.4868V19.7981H24.6533H24.9646V19.4868V19.1755H24.6533H24.3421V19.4868ZM19.0502 19.6425V19.7981H19.2059H19.3615V19.6425V19.4868H19.2059H19.0502V19.6425ZM11.2681 20.265V20.4207H10.9568H10.6456V20.732V21.0432H10.9568H11.2681V20.732V20.4207H11.4238H11.5794V20.265V20.1094H11.4238H11.2681V20.265ZM17.4938 20.732V21.0432H17.8051H18.1164V20.732V20.4207H17.8051H17.4938V20.732ZM23.7195 21.3545V21.6658H24.0308H24.3421V21.3545V21.0432H24.0308H23.7195V21.3545ZM24.3421 23.2222V23.5335H24.0308H23.7195V23.8448V24.1561H23.4082H23.0969V24.4674V24.7786H23.4082H23.7195V24.4674V24.1561H24.0308H24.3421V23.8448V23.5335H24.6533H24.9646V23.2222V22.9109H24.6533H24.3421V23.2222ZM12.5133 24.4674V24.7786H13.7584H15.0035V24.4674V24.1561H13.7584H12.5133V24.4674ZM16.8712 26.3351V26.6463H17.1825H17.4938V26.3351V26.0238H17.1825H16.8712V26.3351ZM19.9841 26.3351V26.6463H20.2954H20.6067V26.3351V26.0238H20.2954H19.9841V26.3351Z" fill="#E6D13B"/>
</svg>
