<svg width="32" height="32" fill="none" xmlns="http://www.w3.org/2000/svg"><g clip-path="url(#prefix__clip0_3492_26296)"><circle cx="16" cy="16" r="15.875" fill="#000" stroke="#747474" stroke-width=".25"/><path d="M5.025 19.967h.92v-.825h-.86c-.718 0-.969-.395-.969-1.064V14.55H6.03v-.801H4.116v-1.806h-.885v1.495c0 .203-.131.31-.298.31H2v.802h1.172v3.539c0 1.255.705 1.877 1.853 1.877zM10.33 20.122c1.459 0 2.547-.825 2.893-1.985h-.98c-.287.73-1.076 1.124-1.9 1.124-1.28 0-2.081-.825-2.129-2.069h5.07v-.418c0-1.793-1.125-3.18-3.014-3.18-1.697 0-3.048 1.279-3.048 3.264 0 1.865 1.207 3.264 3.108 3.264zm-2.092-3.767c.096-1.147.992-1.9 2.032-1.9 1.053 0 1.925.657 2.009 1.9H8.238zM15.832 19.967h.454v-.837H16c-.299 0-.454-.18-.454-.49V11h-.944v7.64c0 .849.454 1.327 1.231 1.327zM27.585 20.122c1.447 0 2.415-.79 2.415-1.961 0-2.57-3.73-1.256-3.73-2.834 0-.538.502-.92 1.28-.92.824 0 1.267.394 1.35.98h.909c-.096-1.124-1.052-1.793-2.2-1.793-1.303 0-2.248.681-2.248 1.733 0 2.463 3.718 1.136 3.718 2.882 0 .633-.514 1.088-1.446 1.088-.909 0-1.435-.395-1.543-1.136h-.92c.108 1.16.944 1.96 2.415 1.96z" fill="#fff"/><g filter="url(#prefix__filter0_i_3492_26296)"><path d="M20.648 20.132a3.298 3.298 0 100-6.596 3.298 3.298 0 000 6.596z" fill="url(#prefix__paint0_linear_3492_26296)"/></g><path d="M20.649 20.064a3.23 3.23 0 100-6.46 3.23 3.23 0 000 6.46z" stroke="url(#prefix__paint1_linear_3492_26296)" stroke-opacity=".12" stroke-width=".136"/></g><path d="M16.516 28h-.606v-2.352h-.775v-.503h2.156v.503h-.775V28zm2.859 0H17.73v-2.855h1.645v.496h-1.04v.627h.968v.496h-.967v.736h1.039v.5zm2.283-.793c0 .17-.04.316-.123.441a.788.788 0 01-.36.29 1.433 1.433 0 01-.57.101 2.128 2.128 0 01-.562-.076 1.702 1.702 0 01-.246-.096v-.562c.135.06.276.114.422.162.146.048.29.072.433.072a.607.607 0 00.239-.039.272.272 0 00.132-.107.298.298 0 00.041-.157.257.257 0 00-.072-.183.756.756 0 00-.199-.143 8.174 8.174 0 00-.283-.142 3.261 3.261 0 01-.217-.114 1.267 1.267 0 01-.223-.166.802.802 0 01-.174-.236.78.78 0 01-.066-.336c0-.17.04-.316.117-.438a.742.742 0 01.334-.277c.146-.065.318-.098.516-.098.148 0 .29.018.424.053.135.034.276.084.424.149l-.196.47a3.243 3.243 0 00-.353-.123 1.149 1.149 0 00-.319-.045.458.458 0 00-.193.038.26.26 0 00-.162.252c0 .067.02.125.058.171.04.046.1.09.18.133.08.043.181.093.3.15.147.07.271.142.374.217a.794.794 0 01.24.264.76.76 0 01.084.375zm1.62.793h-.606v-2.352h-.776v-.503h2.157v.503h-.776V28zm3.747 0h-.77l-1.241-2.16h-.018l.014.271.011.274.012.271V28h-.54v-2.855h.763l1.24 2.138h.014a17.275 17.275 0 00-.022-.525l-.008-.262v-1.351h.545V28zm2.366 0h-1.645v-2.855h1.645v.496h-1.04v.627h.967v.496h-.966v.736h1.039v.5zm1.699 0h-.606v-2.352h-.775v-.503h2.156v.503h-.775V28z" fill="#fff"/><defs><linearGradient id="prefix__paint0_linear_3492_26296" x1="17.351" y1="16.834" x2="23.946" y2="16.834" gradientUnits="userSpaceOnUse"><stop stop-color="#AE73FA"/><stop offset="1" stop-color="#AE73FA" stop-opacity="0"/></linearGradient><linearGradient id="prefix__paint1_linear_3492_26296" x1="23.947" y1="16.834" x2="17.351" y2="16.834" gradientUnits="userSpaceOnUse"><stop stop-color="#AE73FA"/><stop offset="1" stop-color="#AE73FA" stop-opacity="0"/></linearGradient><clipPath id="prefix__clip0_3492_26296"><path fill="#fff" d="M0 0h32v32H0z"/></clipPath><filter id="prefix__filter0_i_3492_26296" x="16.266" y="13.536" width="7.68" height="6.596" filterUnits="userSpaceOnUse" color-interpolation-filters="sRGB"><feFlood flood-opacity="0" result="BackgroundImageFix"/><feBlend in="SourceGraphic" in2="BackgroundImageFix" result="shape"/><feColorMatrix in="SourceAlpha" values="0 0 0 0 0 0 0 0 0 0 0 0 0 0 0 0 0 0 127 0" result="hardAlpha"/><feOffset dx="-1.627"/><feGaussianBlur stdDeviation=".542"/><feComposite in2="hardAlpha" operator="arithmetic" k2="-1" k3="1"/><feColorMatrix values="0 0 0 0 0.682353 0 0 0 0 0.45098 0 0 0 0 0.980392 0 0 0 0.56 0"/><feBlend in2="shape" result="effect1_innerShadow_3492_26296"/></filter></defs></svg>