<svg width="32" height="32" viewBox="0 0 32 32" fill="none" xmlns="http://www.w3.org/2000/svg">
<circle cx="16" cy="16" r="15.875" fill="black" stroke="#747474" stroke-width="0.25"/>
<circle cx="16" cy="16" r="15.875" fill="black" stroke="#747474" stroke-width="0.25"/>
<path d="M9.92315 14.8132V19.4917L7.89746 20.6598V13.6436L9.92315 14.8132Z" fill="#FFA534"/>
<path d="M26.1284 10.1357V21.8297L24.1027 22.9994L24.1019 13.6439L22.077 14.8127V24.169L16 27.6763V15.9832L18.0257 14.8135V24.169L20.0513 22.9994V13.6439L26.1284 10.1357Z" fill="#FFA534"/>
<path d="M11.9495 8.96484L9.92383 10.1345L11.9495 11.3041V8.96484Z" fill="#FFA534"/>
<path d="M15.9993 6.62695L13.9736 7.79659L15.9993 8.96545V6.62695Z" fill="#FFA534"/>
<path d="M26.1281 10.1354L24.1024 11.3043L15.9997 6.62656L13.974 7.7962V7.79699L15.9997 8.96506L22.0767 12.474L20.0518 13.6436H20.051V13.6428L11.9491 8.96506L9.92341 10.1347L18.0253 14.8132L15.9997 15.9829L5.87207 10.1347L15.9989 4.28809H15.9997L26.1281 10.1354Z" fill="white"/>
<path d="M13.9737 21.8289V24.1682L7.89746 20.6593L9.92315 19.4912L13.9737 21.8289Z" fill="white"/>
<path d="M18.0254 24.1684L20.0511 22.9987L18.0254 21.8291V24.1684Z" fill="white"/>
<path d="M5.87207 10.1348V21.8295L15.9996 27.6761V15.9814L5.87207 10.1348ZM13.974 24.1688L7.89695 20.6599V13.6437L13.974 17.1526V24.1688Z" fill="#FF6C2D"/>
<path d="M24.1018 22.999L22.0762 21.8294V14.8124L24.1011 13.6436L24.1018 22.999Z" fill="#FF6C2D"/>
<path d="M24.1027 11.3047L22.077 12.4743L16 8.96545V6.62695L24.1027 11.3047Z" fill="#FF6C2D"/>
<path d="M11.9492 8.96484V11.3041L18.0254 14.813V21.8292L20.0511 22.9988V13.6434L11.9492 8.96484Z" fill="#FF6C2D"/>
</svg>
