<svg width="32" height="32" viewBox="0 0 32 32" fill="none" xmlns="http://www.w3.org/2000/svg">
<g clip-path="url(#clip0_5926_15818)">
<rect width="32" height="32" fill="black"/>
<path d="M8.72658 14.2796V19.7379L6.36328 21.1006V12.915L8.72658 14.2796Z" fill="#FFA534"/>
<path d="M27.6319 8.82227V22.4653L25.2686 23.8298L25.2677 12.9151L22.9053 14.2787V25.1944L15.8154 29.2863V15.6442L18.1787 14.2796V25.1944L20.542 23.8298V12.9151L27.6319 8.82227Z" fill="#FFA534"/>
<path d="M11.0898 7.45605L8.72656 8.82061L11.0898 10.1852V7.45605Z" fill="#FFA534"/>
<path d="M15.8154 4.72852L13.4521 6.09309L15.8154 7.45676V4.72852Z" fill="#FFA534"/>
<path d="M27.632 8.82192L25.2687 10.1856L15.8156 4.72822L13.4522 6.0928V6.09372L15.8156 7.45647L22.9054 11.5502L20.543 12.9147H20.5421V12.9138L11.0899 7.45647L8.72657 8.82102L18.1788 14.2793L15.8156 15.6439L4 8.82102L15.8146 2H15.8156L27.632 8.82192Z" fill="white"/>
<path d="M13.4522 22.4646V25.1938L6.36328 21.1001L8.72658 19.7373L13.4522 22.4646Z" fill="white"/>
<path d="M18.1787 25.194L20.542 23.8294L18.1787 22.4648V25.194Z" fill="white"/>
<path d="M4 8.82129V22.4652L15.8155 29.2862V15.6423L4 8.82129ZM13.4522 25.1943L6.36237 21.1006V12.915L13.4522 17.0087V25.1943Z" fill="#FF6C2D"/>
<path d="M25.2685 23.8298L22.9053 22.4652V14.2787L25.2676 12.915L25.2685 23.8298Z" fill="#FF6C2D"/>
<path d="M25.2686 10.1859L22.9053 11.5505L15.8154 7.45676V4.72852L25.2686 10.1859Z" fill="#FF6C2D"/>
<path d="M11.0898 7.45605V10.1852L18.1788 14.2789V22.4645L20.5421 23.8291V12.9143L11.0898 7.45605Z" fill="#FF6C2D"/>
</g>
<defs>
<clipPath id="clip0_5926_15818">
<rect width="32" height="32" fill="white"/>
</clipPath>
</defs>
</svg>
