<svg width="33" height="32" fill="none" xmlns="http://www.w3.org/2000/svg"><path d="M1 31.958H0s.541-1.853 1-3c.649-1.621 2-4 2-4s4.5-9.416 16.5-15.416c.75-.375.783-.584.5-1-.1-.2-1.5.416-1.5.416-7.138 3.217-11.124 7.52-13.5 10.584-2.117 2.73-3 4.416-3 4.416s.145-1.426.2-2.337c.6-3.5 1.58-6.55 1.8-7.5.5-2.162 2.727-5.727 4-7 1.5-1.5 4.879-3.107 6.5-3.5 1.966-.407 8.566-.953 10.5-1.5 1.287-.364 4.762-1.792 5.5-2 .5-.142 1.574-.227 1.5 1-.212 3.5-.078 1.648-.2 3.337-.3 4.163-.8 7.338-2.3 10.5-1.5 3.163-5 6.663-6.5 7.663s-3.772 2.358-6.5 2.838c-2.003.351-3.5.083-5.207 0-1.707-.084-3.293-.5-5.293.162-1.697.562-5 6.337-5 6.337z" fill="#3BA83B"/></svg>