<svg width="32" height="32" viewBox="0 0 32 32" fill="none" xmlns="http://www.w3.org/2000/svg">
<g clip-path="url(#clip0_5942_15853)">
<path d="M11.5 0H21V0.5H22V1H23.5V1.5H24.5V2H25V2.5H26V3H26.5V3.5H27V4H27.5V4.5H28V5H28.5V5.5H29V6.5H29.5V7H30V8H30.5V9H31V10H31.5V12H32V20H31.5V22H31V23H30.5V24H30V25H29.5V25.5H29V26.5H28.5V27H28V27.5H27.5V28H27V28.5H26.5V29H26V29.5H25V30H24.5V30.5H23.5V31H22V31.5H21V32H11V31.5H9.5V31H8.5V30.5H7.5V30H7V29.5H6V29H5.5V28.5H5V28H4.5V27.5H4V27H3.5V26.5H3V25.5H2.5V25H2V24H1.5V23H1V21.5H0.5V20H0V12H0.5V10H1V9H1.5V8H2V7H2.5V6.5H3V5.5H3.5V5H4V4.5H4.5V4H5V3.5H5.5V3H6.5V2.5H7V2H8V1.5H9V1H10V0.5H11.5V0Z" fill="#BEB3A3"/>
<path d="M8 1.5H9V2.5H7.5V3H7V3.5H6V4H5.5V4.5H5V5H4.5V5.5H4V6H3.5V7H3V8.5H3.5V8H4V7H4.5V6.5H5V6H6V9H6.5V10.5H7V12H6.5V14H6V19.5H6.5V21H7V21.5H7.5V22H8V23H8.5V23.5H9.5V24H10V24.5H11V25H12V25.5H14V26.5H14.5V27H15V27.5H15.5V26H16.5V27.5H17.5V26.5H18V26H18.5V25.5H19.5V25H21V26.5H22V27H23.5V26.5H24.5V26H25V25H25.5V23H25V22.5H24.5V21.5H25V20.5H25.5V19H26V17.5H27V17H28V16.5H28.5V16H29V15.5H29.5V15H30.5V16H31V11H30.5V10H30V8H30.5V9H31V10H31.5V12H32V20H31.5V22H31V23H30.5V24H30V25H29.5V25.5H29V26.5H28.5V27H28V27.5H27.5V28H27V28.5H26.5V29H26V29.5H25V30H24.5V30.5H23.5V31H22V31.5H21V32H11V31.5H9.5V31H8.5V30.5H7.5V30H7V29.5H6V29H5.5V28.5H5V28H4.5V27.5H4V27H3.5V26.5H3V25.5H2.5V25H2V24H1.5V23H1V21.5H0.5V20H0V12H0.5V10H1V9H1.5V8H2V7H2.5V6.5H3V5.5H3.5V5H4V4.5H4.5V4H5V3.5H5.5V3H6.5V2.5H7V2H8V1.5Z" fill="#7B6D63"/>
<path d="M13 6H19V6.5H21V7H22V8.5H23V9.5H23.5V10H24.5V18H24V18.5H23.5V20H22.5V21H22V21.5H21.5V22H21V22.5H20V23H19V23.5H12.5V23H11.5V22.5H11V22H10V21H9V20H8.5V19H8V17.5H7.5V17H7V10H8V9.5H8.5V9H9V8.5H9.5V8H10V7H11V6.5H13V6Z" fill="#F3F1E8"/>
<path d="M5 6H6V9H6.5V10.5H7V12H6.5V14H6V19.5H6.5V21H7V21.5H7.5V22H8V23H8.5V23.5H9.5V24H10V24.5H11V25H12V25.5H14V26.5H14.5V27H15V27.5H15.5V26H16.5V27.5H17.5V26.5H18V26H18.5V25.5H19.5V25H21V26.5H22V27H23.5V26.5H24.5V26H25V25H25.5V23H25V22.5H24.5V21.5H29V22.5H28.5V23.5H28V24H27.5V25H27V25.5H26.5V26H26V26.5H25.5V27H25V27.5H24.5V28H23.5V28.5H23V29H21.5V29.5H20V30H18.5V30.5H13.5V30H11.5V29.5H10.5V29H9.5V28.5H8.5V28H8V27.5H7V27H6.5V26.5H6V26H5.5V25.5H5V25H4.5V24H4V23.5H3.5V22.5H4V23H6V20.5H5.5V20H4.5V18.5H2V18H1.5V12.5H2V11H2.5V10H3V9H3.5V8H4V7H4.5V6.5H5V6Z" fill="#32353B"/>
<path d="M11 13H13V13.5H13.5V14.5H14V13.5H14.5V13H15V14H17V13.5H17.5V13H21V13.5H21.5V14H22V14.5H22.5V17.5H22V18H21.5V18.5H19V18H18.5V17.5H16.5V19H17V19.5H19V20.5H18.5V21H16.5V20.5H15.5V21H13.5V20.5H13V20H14V20.5H15V20H15.5V18.5H14.5V18H13V18.5H10.5V18H10V17.5H9.5V14.5H10V14H10.5V13.5H11V13Z" fill="#EBE9E2"/>
<path d="M14 1H18V1.5H20V2H21.5V2.5H22.5V3H23.5V3.5H24.5V4H25V4.5H24V5H22V5.5H21.5V6H20.5V6.5H19V6H13V6.5H11.5V6H10.5V5.5H9.5V5H7.5V4H8V3.5H8.5V3H9.5V2.5H10.5V2H11.5V1.5H14V1Z" fill="#889485"/>
<path d="M26 3H26.5V3.5H27V4H27.5V4.5H28V5H28.5V5.5H29V6.5H29.5V7H30V10H30.5V11H31V16H30.5V15H29.5V15.5H29V16H28.5V16.5H28V17H27V17.5H26V19H25.5V13.5H25V12H24.5V10.5H25V9H25.5V7.5H26V5.5H26.5V6H27V6.5H27.5V7H28V7.5H28.5V6H28V5.5H27.5V5H27V4.5H26.5V4H26V3Z" fill="#898F80"/>
<path d="M10.5 13.5H12.5V14H13V14.5H11.5V15H12V15.5H13V15H14V17H14.5V17.5H16.5V19H17V19.5H19V20.5H18.5V21H16.5V20.5H15.5V21H13.5V20.5H13V20H14V20.5H15V20H15.5V18.5H14.5V18H13V18.5H10.5V18H10V17.5H9.5V14.5H10V14H10.5V13.5Z" fill="#D0CCC3"/>
<path d="M16.5 1.5H20V2H21.5V2.5H22.5V3H23.5V3.5H24.5V4H25V4.5H24V5H22V5.5H21.5V6H20.5V6.5H19V6H18V5H17.5V4H17V2H16.5V1.5Z" fill="#6A6965"/>
<path d="M19 13.5H21.5V14H22V14.5H22.5V17.5H22V18H21.5V18.5H19V18H18.5V17.5H18V14.5H18.5V14H19V13.5Z" fill="#A08C7D"/>
<path d="M24.5 12H25V13.5H25.5V20.5H25V21.5H24.5V22H24V22.5H23.5V23H23V23.5H22.5V24H21.5V22.5H22V22H22.5V20H23.5V18.5H24V18H24.5V12Z" fill="#BCB3A7"/>
<path d="M29.5 15H30.5V18H30V19H29V18.5H27.5V19H27V21H29V21.5H25V20.5H25.5V19H26V17.5H27V17H28V16.5H28.5V16H29V15.5H29.5V15Z" fill="#494B53"/>
<path d="M24 22H24.5V22.5H25V23H25.5V25H25V26H24.5V26.5H23.5V27H22V26.5H21V25H20.5V24.5H21.5V24H22.5V23.5H23V23H23.5V22.5H24V22Z" fill="#84725F"/>
<path d="M2 18.5H4.5V20H5.5V20.5H6V23H4V22.5H3V21.5H2.5V19.5H2V18.5Z" fill="#44464A"/>
<path d="M11.5 25H12V25.5H14V26.5H14.5V27H15V27.5H15.5V26H16.5V27.5H16V28H14V28.5H11.5V28H13V27.5H11V25.5H11.5V25Z" fill="#2D2C31"/>
<path d="M12.5 2H15.5V2.5H15V3.5H14.5V4.5H14V5.5H11.5V5H10.5V4.5H11V3.5H11.5V3H12V2.5H12.5V2Z" fill="#849A8C"/>
<path d="M20 29.5H21V30H22.5V29.5H23.5V31H22V31.5H21V32H13V31.5H18V31H19.5V30.5H20.5V30H20V29.5Z" fill="#655A53"/>
<path d="M10.5 2H12V3H11.5V3.5H11V4.5H10.5V5H11.5V5.5H12V6H10.5V5.5H9.5V5H7.5V4H8V3.5H8.5V3H9.5V2.5H10.5V2Z" fill="#494A4C"/>
<path d="M2.5 7.5H3V8.5H3.5V9H3V10H2.5V11H2V12.5H1.5V19H1V18H0.5V14H1V11.5H1.5V10H2V8.5H2.5V7.5Z" fill="#A5907A"/>
<path d="M10.5 13.5H12.5V14H13V14.5H11.5V15H12V15.5H13V15H13.5V16H13V16.5H12.5V17H11V16.5H10.5V16H10V17H9.5V14.5H10V14H10.5V13.5Z" fill="#7B6356"/>
<path d="M19.5 13.5H21.5V14H22V14.5H22.5V16.5H22V16H21V17H19V15.5H19.5V15H20V14.5H19.5V13.5Z" fill="#7E695E"/>
<path d="M30 22H31V23H30.5V24H30V25H29.5V25.5H29V26.5H28.5V27H28V27.5H27.5V28H27V28.5H26.5V29H26V28.5H25V28H26V27.5H26.5V27H27V26.5H27.5V26H28V25H28.5V24.5H29V24H29.5V23H30V22Z" fill="#685B53"/>
<path d="M24 5.5H25V8H24.5V9.5H23V8.5H22V7H22.5V6.5H23V6H24V5.5Z" fill="#7B6D68"/>
<path d="M7 5.5H8V6H8.5V6.5H9V7H9.5V7.5H10V8H9.5V8.5H9V9H8.5V9.5H8V10H7.5V9.5H7V5.5Z" fill="#776762"/>
<path d="M2 11H2.5V13H2V14.5H2.5V14H3V14.5H4V15.5H3.5V16H4V17H3V16H2.5V15H2V18H1.5V12.5H2V11Z" fill="#615C57"/>
<path d="M10 16H10.5V16.5H11V17H12.5V16.5H13V16H13.5V18H13V18.5H10.5V18H10V17.5H9.5V17H10V16Z" fill="#A58D7A"/>
<path d="M3.5 20.5H6V23H4V22.5H3.5V20.5Z" fill="#928D85"/>
<path d="M14 25.5H18.5V26H18V26.5H17.5V27.5H16.5V26H15.5V27.5H15V27H14.5V26.5H14V25.5Z" fill="#978C83"/>
<path d="M11.5 25H12V25.5H14V26H13.5V27H13V27.5H11V25.5H11.5V25Z" fill="#564E4A"/>
<path d="M6 19.5H6.5V21H7V21.5H7.5V22H8V22.5H7V23H6.5V23.5H3.5V22.5H4V23H6V19.5Z" fill="#4B4A4C"/>
<path d="M29.5 15H30.5V18H30V17.5H29.5V18H28.5V17H28V16.5H28.5V16H29V15.5H29.5V15Z" fill="#625E5D"/>
<path d="M20 22.5H21V24H20V23.5H19.5V24H13.5V23.5H19V23H20V22.5Z" fill="#C9C3B7"/>
<path d="M21 16H22V16.5H22.5V17.5H22V18H21.5V18.5H19V18H19.5V17.5H20.5V17H21V16Z" fill="#B9A087"/>
<path d="M9 15H9.5V17.5H10V18H10.5V18.5H10V19H8V17.5H9V15Z" fill="#DFCEBF"/>
<path d="M24 23H25V24.5H23.5V25.5H22.5V26H21.5V25.5H22V25H23V24H23.5V23.5H24V23Z" fill="#A38C6E"/>
<path d="M11 15H12V15.5H13V15H13.5V16H13V16.5H12.5V17H11V15Z" fill="#554644"/>
<path d="M19.5 15H21V17H19V15.5H19.5V15Z" fill="#5A4C49"/>
<path d="M2.5 14H3V14.5H4V15.5H3.5V16H4V17H3V16H2.5V15H2V14.5H2.5V14Z" fill="#4B4A4C"/>
<path d="M10 16H10.5V16.5H11V17H11.5V17.5H12.5V18H11V18.5H10.5V18H10V17.5H9.5V17H10V16Z" fill="#C5A585"/>
<path d="M24 17H24.5V18H24V18.5H23.5V20H23V19H22V18.5H22.5V18H23V17.5H24V17Z" fill="#E8CDB8"/>
<path d="M5.5 25.5H7V26H7.5V25.5H8.5V26.5H7V27H6.5V26.5H6V26H5.5V25.5Z" fill="#383D43"/>
</g>
<defs>
<clipPath id="clip0_5942_15853">
<rect width="32" height="32" fill="white"/>
</clipPath>
</defs>
</svg>
