<svg xmlns="http://www.w3.org/2000/svg" fill="none" viewBox="0 0 24 24"><g clip-path="url(#prefix__a)"><path fill="#010202" d="M17.01 14.1c-.16-1.49-1.06-2.61-2.01-2.53a3.6 3.6 0 00-1.04-2.02 3.33 3.33 0 00-2.94-1 1.93 1.93 0 00-1.2-1.2 3.51 3.51 0 00-1.97-.15 3.6 3.6 0 00-1.8.86c-.2.18-.35.4-.47.62-.78-.2-1.78.15-2.59.95-.95.96-1.27 2.17-.83 3A3.11 3.11 0 001 15.18c0 .85.27 1.6.7 2.13-.27.61-.07 1.51.56 2.36.43.57.94.94 1.43 1.1.02.21.08.44.18.66.33.72 1 1.22 1.87 1.38.29.05.54.08.8.08.48 0 .88-.1 1.2-.33.07-.04.12-.1.17-.15.45.5 1.18.77 2.02.77.37 0 .77-.05 1.15-.17 1.24-.36 2.13-1.2 2.33-2.12a3.47 3.47 0 002.45-1.2c.52-.72.65-1.53.66-2.07.02-.24 0-.72-.13-1.11.48-.5.73-1.4.62-2.4z"/><path fill="#E41B6E" d="M5.94 10.23c0 .46-.28 1.07-.77 1.56-.38.37-.8.64-1.22.73-.39.1-.72.04-.92-.16-.2-.2-.25-.52-.16-.91.1-.41.36-.85.73-1.22.5-.5 1.1-.77 1.57-.77.22 0 .42.07.55.2.15.15.22.34.22.57zm-1.26 4.95c0 1.14-.64 2.05-1.41 2.05-.78 0-1.4-.92-1.4-2.05 0-1.14.63-2.05 1.4-2.05.78 0 1.4.93 1.4 2.05zm4.34 3.56c0 .34-.08.64-.24.92-.28.47-.76.8-1.34.91-.6.12-1.24 0-1.8-.33-1.17-.67-1.65-2.03-1.08-3.02.28-.48.75-.8 1.34-.91a2.77 2.77 0 013 1.72c.08.25.12.49.12.71zm1.03-5.61a2.7 2.7 0 01-.7 1.84c-.96 1.07-2.52 1.24-3.5.38-.96-.86-.99-2.43-.03-3.5a2.74 2.74 0 011.75-.92c.66-.07 1.27.12 1.75.53.45.42.72 1.02.73 1.67zm4.13-1.17c0 .44-.15.82-.43 1.09-.69.69-1.99.52-2.9-.4-.92-.91-1.1-2.2-.4-2.88.28-.28.67-.43 1.09-.43.6 0 1.27.28 1.8.8.44.46.73 1 .8 1.56.02.1.04.17.04.26zm-5.72-1.51c-1.1.2-2.09-.17-2.22-.84-.05-.32.08-.65.4-.94.33-.3.8-.55 1.35-.64a2.9 2.9 0 011.5.1c.4.17.65.43.72.75.13.67-.65 1.38-1.75 1.57zm2.37 11.75c-.32.1-.62.13-.92.13-.78 0-1.41-.31-1.57-.84-.1-.32 0-.57.31-.8.35-.25.93-.44 1.44-.58.7-.21 1.23-.3 1.63-.3.48 0 .73.14.82.46.21.73-.56 1.6-1.71 1.93zm4.33-3c-.34.45-1.22.87-1.84.86-.14 0-.31-.03-.4-.16-.07-.12.05-.24.4-.57.26-.24.59-.53.92-.96.3-.38.5-.8.66-1.13.16-.32.32-.64.44-.67.05-.01.13.06.19.1.12.15.36 1.53-.37 2.52zm-1.56-1.14a3 3 0 01-1.81 1 2.13 2.13 0 01-1.78-.5 2.22 2.22 0 01-.72-1.7c.02-.68.3-1.37.78-1.92a3 3 0 011.82-1 2.13 2.13 0 011.78.5c.97.85.94 2.48-.07 3.62zm1.85-1.92c-.21.02-.37-.24-.47-.47-.14-.32-.25-.8-.3-1.36a5.17 5.17 0 01.01-1.38c.07-.33.2-.5.37-.53h.03c.2 0 .44.2.65.52.2.32.37.77.41 1.27.12 1.03-.3 1.9-.7 1.95zM4.4 19.95c-.28.17-.92-.1-1.45-.8-.53-.71-.62-1.41-.36-1.61l.08-.04h.02c.12.03.27.28.45.54.1.17.24.37.4.58.3.4.86 1.14.86 1.33zm3.05 1.58a.52.52 0 01-.23.35c-.18.14-.55.25-1.32.1a1.64 1.64 0 01-1.25-.9c-.12-.26-.12-.5-.08-.57.1 0 .34.15.52.26.32.2.66.41 1 .49l.66.1c.27.02.62.06.69.14 0 0 .02.01 0 .03z"/><path fill="#010202" d="M21.9 11.33l1.79-1.2-2.13-.25c-.33-.1-1.52-.98-2.54-1.9l-.14-.12-.17-.05a6.5 6.5 0 00-1.86-.3c-.66 0-1.2.14-1.64.32A4.6 4.6 0 0015 5.77l-.19-.53h-.24c-.12-.65-.53-1.55-1.7-2.68l-1.02-1-.09.43A8.14 8.14 0 009.8.5L8.92.1l-.22.94c-.04.13-.22.9-.28 1.77l-.6-.58-.2 1.61c0 .04-.08.72.08 1.64l-.57-.37.57 2.04c.01.04.28 1.01.96 1.96.9 1.3 2.08 2.07 3.44 2.07.27 0 .81-.04 1.1-.05l.16-.02v-.04a3.46 3.46 0 002.23 2.3c.85.33 1.6.34 1.7.35l1.38.03-.22-.4a5.17 5.17 0 001.72-.46l2.06-1-.87-.2.55-.35z"/><path fill="#66B32E" d="M13.96 10.24s.78-2.78 4.53-1.67c0 0 2.25 2.02 2.97 2.1 0 0-1.08.72-2.24 1 0 0 .27.41.58.48 0 0-1.3.63-2.57.3 0 0-.02.34.05.45 0 0-2.72-.05-3.21-2.22 0 0 1.88-1.05 3.74-.01 0 0-.16-.32-.48-.61 0 0 .68-.36 2.48.31 0 0-1.54-1.12-3.95-.6 0 0-.05-.3.33-.75 0 0-.24.15-.73.67-.49.51-1.22.62-1.5.55zm-.87-.09s2.01-1.64 1.15-4.13L13.72 6s.6-.95-1.4-2.87l-.12.52S10.6 1.73 9.46 1.2c0 0-.53 2.15-.14 3.23 0 0-.5-.12-.9-.51 0 0-.2 1.57.67 3.21 0 0-.24.04-.63-.22 0 0 1.02 3.67 4.1 3.43 0 0 .04-2.4-.39-3.54 0 0-.6-.77-1.34-1.22 0 0 .33 0 1.25.56 0 0-.25-1.22-1.43-3.07 0 0 1.88 1.79 2.22 4.94 0 0 .6-.7.75-.97 0 0 .12.37-.68 1.33.01 0 .19 1.52.15 1.77z"/></g><defs><clipPath id="prefix__a"><path fill="#fff" d="M0 0h23.08v23.08H0z" transform="translate(.82 .1)"/></clipPath></defs></svg>