<svg width="32" height="32" viewBox="0 0 32 32" fill="none" xmlns="http://www.w3.org/2000/svg">
<g clip-path="url(#clip0_5911_18030)">
<circle cx="16" cy="16" r="16" fill="black"/>
<path fill-rule="evenodd" clip-rule="evenodd" d="M19.0132 9.70347C18.1064 10.2761 17.0814 10.6033 15.9774 10.6033C14.8736 10.6033 13.8485 10.2761 12.9812 9.70347L15.3861 5.3681C15.6621 4.8773 16.3323 4.8773 16.6083 5.3681L19.0132 9.70347ZM20.5706 12.4847C20.6199 12.5665 20.6691 12.6483 20.7086 12.7301C20.0384 12.0757 19.2893 11.5848 18.4219 11.2577C18.8162 11.0941 19.2105 10.9305 19.5653 10.6851L20.4326 12.2393C20.472 12.3211 20.5213 12.4029 20.5706 12.4847ZM22.8769 17.9244C22.8769 18.6605 22.7586 19.3149 22.6009 19.9693C23.074 19.5194 23.5865 19.1513 24.1384 18.8242L23.1134 16.9836C23.0709 16.9103 23.0285 16.8316 22.9842 16.7496C22.9052 16.603 22.8202 16.4457 22.7191 16.2884C22.798 16.8201 22.8769 17.3517 22.8769 17.9244ZM12.4292 10.6851C12.784 10.9305 13.1783 11.0941 13.5725 11.2577C12.7052 11.5848 11.9561 12.0757 11.2859 12.7301C11.4042 12.5665 11.483 12.4028 11.5619 12.2393L12.4292 10.6851ZM9.43293 20.092C9.2358 19.3967 9.11751 18.7014 9.11751 17.9243C9.11751 17.3926 9.19635 16.8609 9.31464 16.3292C9.21354 16.4865 9.12861 16.6439 9.04957 16.7904C9.00526 16.8725 8.96285 16.9511 8.92038 17.0245L7.85591 18.9059C8.44728 19.1922 8.95983 19.6012 9.43293 20.092ZM21.4577 24.9591C21.5366 22.7096 22.8376 20.7873 24.6511 19.8057L26.8983 23.8548C27.1743 24.3456 26.859 24.9591 26.307 24.9591H21.4577ZM20.7086 23.1186C19.6836 24.1002 18.422 24.7546 16.9632 24.9591H18.6585H20.3932C20.4326 24.3456 20.5115 23.7321 20.7086 23.1186ZM5.09624 23.8957L7.34346 19.8466C9.11756 20.8282 10.3792 22.7505 10.458 25H5.68761C5.17509 25 4.82027 24.3865 5.09624 23.8957ZM11.2072 23.0368C11.4043 23.6503 11.4832 24.3047 11.5226 25H13.3362H15.0314C13.5333 24.7546 12.2322 24.0593 11.2072 23.0368ZM16.0058 11.9605C14.4844 11.9605 13.1046 12.5549 12.0667 13.5255H19.933C18.8952 12.5549 17.5154 11.9605 16.0058 11.9605ZM21.7375 16.8983H17.5153V23.7529C20.0038 23.0614 21.8318 20.7321 21.8318 17.9538C21.8318 17.6019 21.8082 17.2501 21.7375 16.8983ZM14.4844 23.7651C11.996 23.0736 10.168 20.7442 10.168 17.9659C10.168 17.6019 10.2033 17.2501 10.2623 16.8983H14.4844V23.7651ZM20.6878 14.3869H11.3002C10.9581 14.8722 10.6869 15.4303 10.4982 16.0248H15.2392V23.9107C15.4869 23.9471 15.7345 23.9592 15.994 23.9592C16.2416 23.9592 16.4775 23.9471 16.7134 23.9107V16.0248H21.4898C21.3011 15.4303 21.0298 14.8722 20.6878 14.3869Z" fill="url(#paint0_linear_5911_18030)"/>
</g>
<defs>
<linearGradient id="paint0_linear_5911_18030" x1="5" y1="12.0258" x2="26.9746" y2="18.0667" gradientUnits="userSpaceOnUse">
<stop stop-color="#4A4A4A"/>
<stop offset="0.849416" stop-color="#0A0A0A"/>
</linearGradient>
<clipPath id="clip0_5911_18030">
<rect width="32" height="32" fill="white"/>
</clipPath>
</defs>
</svg>
