<svg width="32" height="32" viewBox="0 0 32 32" fill="none" xmlns="http://www.w3.org/2000/svg">
<path d="M1.49316 7.23494L16.0845 0.550781L30.5082 7.23494V24.9098L15.8983 31.4487L1.49316 25.2164V7.23494Z" fill="#333333" stroke="white" stroke-width="0.52352" stroke-miterlimit="10"/>
<path d="M6.33301 7.69214L16.0149 3.37598L25.5804 7.6339L15.8984 12.0083L6.33301 7.69214Z" fill="#00FFFF"/>
<path d="M3.76953 9.43555L7.23385 10.9792L11.3497 20.1587L11.4534 20.2048V12.8589L14.9177 14.4026V28.5293L11.4534 26.9856L7.35225 18.0544L7.23385 18.0019V25.1059L3.76953 23.5623V9.43555Z" fill="white"/>
<path d="M28.5067 13.8808C28.5067 11.0558 27.1576 10.0139 24.9547 10.9816L17.1992 14.389V18.0818L17.2024 18.0805V19.6139L17.1992 19.6152V23.2683L17.2024 23.267V24.821L17.1992 24.8222V28.515L24.9547 25.1077C27.157 24.14 28.5067 21.8923 28.5067 19.0667C28.5067 18.0779 28.2584 17.2581 27.8552 16.709C28.2584 15.8258 28.5067 14.8286 28.5067 13.8802V13.8808ZM24.4274 21.6472L21.4853 22.94V21.3861L24.4274 20.0933C24.7685 19.9435 25.0168 20.117 25.0168 20.6014C25.0168 21.0859 24.7685 21.4974 24.4274 21.6478V21.6472ZM24.4274 16.4402L21.4853 17.733V16.1995L24.4274 14.9067C24.7685 14.757 25.0168 14.9099 25.0168 15.3944C25.0168 15.8789 24.7685 16.2904 24.4274 16.4402Z" fill="white"/>
</svg>
