<svg width="32" height="32" fill="none" xmlns="http://www.w3.org/2000/svg"><path d="M14.675 31.191a6.046 6.046 0 01-.524-.221 42.259 42.259 0 01-3.548-1.891 33.3 33.3 0 01-1.471-.925c-1.57-1.037-3.054-2.185-4.383-3.53-1.043-1.054-1.961-2.203-2.638-3.532-.597-1.173-.958-2.404-.959-3.728a40349.007 40349.007 0 01.002-11.356c-.003-.105 0-.21.011-.314.174-1.355.895-2.315 2.158-2.817 1.594-.633 3.245-1.102 4.918-1.48 1.379-.312 2.77-.568 4.183-.669l.168-.011.167-.017c1.08-.11 2.165-.162 3.25-.154a29.878 29.878 0 013.42.17l.167.012c1.413.101 2.804.357 4.183.669 1.673.378 3.323.847 4.918 1.48 1.263.502 1.984 1.462 2.158 2.817.01.105.014.21.01.314V7.46a6598.406 6598.406 0 01.002 9.904c0 1.324-.361 2.555-.958 3.728-.677 1.33-1.595 2.478-2.638 3.533-1.33 1.344-2.812 2.492-4.383 3.529-.482.32-.973.63-1.471.925a42.25 42.25 0 01-3.548 1.89 6.027 6.027 0 01-.524.222c-.419.177-.866.25-1.323.25h-.024c-.457 0-.904-.073-1.323-.25zm.284-27.357c-.385.008-.769.021-1.152.044-.28.02-.56.044-.84.075-.36.04-.722.08-1.083.124a45.159 45.159 0 00-4.658.974c-.868.236-1.717.546-2.576.82-.1.032-.159.082-.186.16a4461.9 4461.9 0 01-.011 11.012c-.004 1.19.371 2.238.996 3.22.74 1.164 1.69 2.141 2.724 3.043 1.146.998 2.38 1.874 3.669 2.677a35.574 35.574 0 003.855 2.076.687.687 0 00.626 0 35.574 35.574 0 003.855-2.076c1.289-.803 2.523-1.679 3.668-2.677 1.035-.901 1.985-1.879 2.725-3.043.624-.982 1-2.03.996-3.22-.013-3.67-.017-7.342-.01-11.012-.028-.078-.086-.128-.187-.16-.859-.274-1.708-.584-2.577-.82a45.183 45.183 0 00-3.36-.782c-.416-.058-.831-.118-1.246-.184l-.051-.008c-.361-.044-.723-.083-1.084-.124a18.977 18.977 0 00-1.991-.12c-.35-.007-.7-.012-1.051-.014-.35.002-.7.007-1.051.015zm-4.22 17.808a17.657 17.657 0 01-.496-.417c-.758-.66-1.455-1.378-1.998-2.232-.393-.617-.651-1.27-.715-1.993a.525.525 0 01-.003-.046l-.007-4.36.002-3.463a.497.497 0 01.35-.476c.18-.055.36-.108.542-.157a39.018 39.018 0 012.899-.675l.29-.041a.499.499 0 01.424.14l3.863 3.864a.195.195 0 00.277 0l3.854-3.854a.497.497 0 01.422-.141l.227.032.153.029c.923.18 1.839.4 2.746.646.181.049.361.102.541.157a.498.498 0 01.352.477c-.003 2.5 0 5 .009 7.499v.028c-.003.86-.278 1.621-.731 2.334-.543.854-1.24 1.571-1.999 2.232-.125.11-.253.218-.382.324a.5.5 0 01-.815-.385v-7.003a.196.196 0 00-.335-.139l-3.98 3.98a.196.196 0 01-.276 0l-4.067-4.068a.195.195 0 00-.335.139v7.181a.498.498 0 01-.812.388z" fill="url(#prefix__paint0_linear_4164_30080)"/><defs><linearGradient id="prefix__paint0_linear_4164_30080" x1="3.084" y1="3.511" x2="28.671" y2="21.865" gradientUnits="userSpaceOnUse"><stop stop-color="#DE33F0"/><stop offset=".498" stop-color="#CD2EEC"/><stop offset="1" stop-color="#AF26E4"/></linearGradient></defs></svg>