<svg width="32" height="32" fill="none" xmlns="http://www.w3.org/2000/svg"><g clip-path="url(#prefix__clip0_1958_11331)"><path d="M32 16c0 4.336-1.728 8.288-4.544 11.168l-.384.384A15.96 15.96 0 0116 32a15.96 15.96 0 01-11.072-4.448l-.016-.016c-.128-.128-.256-.24-.368-.368A15.936 15.936 0 010 16C0 7.168 7.168 0 16 0c4.528 0 8.624 1.888 11.536 4.912A15.941 15.941 0 0132 16z" fill="#F66"/><path d="M32 16c0 4.336-1.728 8.288-4.544 11.168l-.384.384A15.96 15.96 0 0116 32a15.96 15.96 0 01-11.072-4.448l-.016-.016L27.536 4.912A15.941 15.941 0 0132 16z" fill="#D95E59"/><path d="M16 26.256c5.647 0 10.224-4.592 10.224-10.256 0-5.664-4.577-10.256-10.224-10.256-5.646 0-10.224 4.592-10.224 10.256 0 5.664 4.578 10.256 10.224 10.256z" fill="#F5F7E2"/><path fill-rule="evenodd" clip-rule="evenodd" d="M27.072 27.552A15.96 15.96 0 0116 32a15.96 15.96 0 01-11.072-4.448A15.288 15.288 0 0116 22.816c4.352 0 8.288 1.824 11.072 4.736z" fill="#F5F7E2"/><path d="M16 24.736a8.736 8.736 0 100-17.472 8.736 8.736 0 000 17.472z" fill="#F7931A"/><path d="M18.272 14.896c-.272 1.088-1.936.528-2.48.4l.48-1.92c.528.144 2.272.384 2 1.52zm-.304 3.088c-.304 1.184-2.304.544-2.96.384l.528-2.112c.656.176 2.752.496 2.432 1.728zm2.192-3.072c.176-1.168-.72-1.792-1.92-2.208l.4-1.568-.96-.24-.384 1.536c-.256-.064-.512-.128-.768-.176l.384-1.552-.96-.24-.4 1.568c-.208-.048-.416-.096-.608-.144l-1.328-.336-.256 1.024s.72.16.704.176c.384.096.464.352.448.56l-.448 1.792c.032 0 .064.016.096.032-.032 0-.064-.016-.096-.032l-.624 2.512c-.048.112-.176.288-.432.224.016.016-.704-.176-.704-.176l-.48 1.104 1.248.304c.24.064.464.112.688.176l-.4 1.6.96.24.4-1.584c.256.064.512.144.768.192l-.4 1.568.96.24.4-1.584c1.632.304 2.864.192 3.392-1.296.416-1.184-.016-1.872-.88-2.32.608-.128 1.072-.544 1.2-1.392z" fill="#fff"/></g><defs><clipPath id="prefix__clip0_1958_11331"><path fill="#fff" d="M0 0h32v32H0z"/></clipPath></defs></svg>