<svg width="32" height="13" viewBox="0 0 32 13" fill="none" xmlns="http://www.w3.org/2000/svg">
<g clip-path="url(#clip0_5955_15884)">
<path d="M21.2961 3.19411H16.9559C16.7855 3.19411 16.6219 3.25936 16.5014 3.37541L6.50663 13H0V3.73086L3.86989 0.000172081V10.3328H4.42283L14.5221 0.607604C14.9261 0.21849 15.474 0 16.0453 0H21.2961V3.19411ZM32 0H25.4932L15.4986 9.62441C15.3781 9.74047 15.2145 9.80562 15.0441 9.80562H10.7039V12.9998H15.9502C16.5244 12.9998 17.0751 12.7803 17.481 12.3892L27.577 2.66734H28.1299V11.3975H21.8947V13H28.1299L28.7044 12.4463L29.24 11.9299L32 9.26932V0Z" fill="white"/>
</g>
<defs>
<clipPath id="clip0_5955_15884">
<rect width="32" height="13" fill="white"/>
</clipPath>
</defs>
</svg>
