<svg width="32" height="32" fill="none" xmlns="http://www.w3.org/2000/svg"><circle cx="16" cy="16" r="15.875" fill="#000" stroke="#747474" stroke-width=".25"/><path d="M13.454 20.726a7.622 7.622 0 00-1.835.053c.597.2 1.322.426 2.085.701l-.25-.755zM12.931 19.15a7.956 7.956 0 00-1.975.112l-.007.01c.639.183 1.418.389 2.236.645l-.254-.768zM12.42 17.606a8.618 8.618 0 00-.442-.012l-.333.544c.335.08.684.169 1.04.265l-.265-.797zM16.322 23.048a6.819 6.819 0 00-1.646-.588l.324.98c.276.126.552.258.824.4h1.704a6.458 6.458 0 00-1.206-.792zM12.012 16.377l-.092-.28a8.734 8.734 0 00-2.001.134l-.056.22c.566.109 1.206.229 1.874.376l.275-.45zM11.201 11.537c.848.138 1.657.312 2.344.448.19.321.378.646.563.973l.156-.255a40.002 40.002 0 00-.436-.703c.038-1.066-.013-2.446-.08-3.847l-.577.766c.11 1.142.333 2.205.629 3.037-.23-.36-.466-.715-.706-1.065.008-.532-.011-1.15-.045-1.81l-.364.484c.115.488.253.937.409 1.325l-.173-.252a43.407 43.407 0 00-.402-.56l-.026-.258-.07.093c.016.033.032.068.049.1a7.109 7.109 0 00-.061-.083l-.12.159.084.021c.115.177.228.355.341.533a5.22 5.22 0 00-.593-.33l-.282.374c.36.06.7.12 1.013.173.18.284.357.572.532.86a6.147 6.147 0 00-1.722-.798l-.463.615z" fill="#1C6434"/><path d="M11.485 12.837c.839.154 1.648.345 2.376.522l.214-.349a7.415 7.415 0 00-2.91-1.14l.32.967zM12.86 14.824a7.522 7.522 0 00-.762-.141l.321.97.032.008.499-.813-.09-.024zM11.256 14.094l-.302-.912a8.393 8.393 0 00-.266-.013l-.2.796c.255.039.511.082.768.129zM11.973 13.313a7.56 7.56 0 00-.35-.06l.324.977c.41.084.815.18 1.21.28l.427-.698a7.407 7.407 0 00-1.61-.499zM11.721 15.497l-.29-.877a8.906 8.906 0 00-1.11.012l-.147.584c.496.08 1.019.171 1.547.281zM10.176 17.79c.261.064.546.13.847.2l.224-.364c-.37.032-.73.087-1.071.165zM12.14 9.285l.245-.326a70.307 70.307 0 00-.343-2.123c-.214-1.185-.43-2.376-.722-3.28a15.285 15.285 0 00.195 3.494c.143.81.362 1.578.625 2.235zM16.868 24.42c.283.168.558.34.823.514l.17-.514h-.993zM13.696 7.218c-.07-1.169-.156-2.301-.296-3.192-.237 1.17-.349 2.597-.291 3.973l.587-.78zM15.701 4.552c-.014-.18-.03-.357-.047-.527-.068.27-.13.551-.188.84l.235-.313zM14.64 5.963a28.583 28.583 0 00-.209-2.076c-.182.862-.31 1.84-.375 2.852l.584-.776zM12.526 8.772l.47-.624-.06-.898c-.098-1.323-.208-2.66-.395-3.668a15.95 15.95 0 00-.178 3.834c.034.465.09.92.163 1.356zM10.403 11.779a9.172 9.172 0 00-3.79.537c.98.07 2.268.135 3.576.314l.214-.851zM18.811 21.553l1.227-3.7c.093-.6.177-1.193.25-1.76l-.352-.574a27.867 27.867 0 00-.823 3.54 27.384 27.384 0 00-.302 2.494zM8.734 5.74l.205.28a33.79 33.79 0 001.43 1.811 24.242 24.242 0 001.575 1.716l.153-.204a11.265 11.265 0 00-1.317-1.93c-.347-.413-.72-.798-1.1-1.131a7.48 7.48 0 00-.57-.456 5.117 5.117 0 00-.433-.276c-.05-.027-.101-.058-.155-.071.04.033.075.082.11.126l.102.135zM11.658 9.927l.216-.287a5.575 5.575 0 00-1.997-.786 6.194 6.194 0 00-3.126.224c.777.077 1.85.18 2.9.386.7.13 1.39.303 2.007.463zM11.168 10.578l.379-.503a6.182 6.182 0 00-1.457-.323 7.235 7.235 0 00-3.393.486c.86.027 2.032.044 3.189.173.434.043.866.103 1.282.167zM15.938 11.133c.04 1.982.2 4.23.539 5.788a40.194 40.194 0 00-.418-.907 45.471 45.471 0 00-.42-.841c.111-1.1.166-2.444.19-3.862l-.702 1.146c.103.964.262 1.858.465 2.625a38.127 38.127 0 00-.812-1.5l.025.006c-.014-.014-.03-.027-.045-.04a.129.129 0 01-.004-.007c.011-.169.02-.344.028-.525l-.152.25.031.112a11.773 11.773 0 01-.049-.085l-.168.274c.195.359.386.72.573 1.083a6.809 6.809 0 00-.888-.569l-.362.591c.523.143 1.02.288 1.474.42.186.371.37.746.545 1.126l.027.06a7.092 7.092 0 00-2.261-1.255l-.485.792c1.07.28 2.094.633 2.959.927.182.402.358.809.528 1.22a7.03 7.03 0 00-2.87-1.581 7.334 7.334 0 00-.848-.189l-.156.254.22.665c.135.036.27.074.405.113 1.248.346 2.455.827 3.447 1.22.093.23.184.463.272.698.072.186.14.373.21.561a6.916 6.916 0 00-2.786-1.721 7.41 7.41 0 00-1.363-.314l.312.941a24.62 24.62 0 012.657.979c.481.209.939.417 1.357.608.153.434.3.872.44 1.315a6.792 6.792 0 00-2.706-1.884 7.272 7.272 0 00-1.546-.405l.31.933a23.406 23.406 0 012.76 1.162c.473.236.922.47 1.33.685l.06.199c.086.289.166.58.245.874l.178-.535c-.045-.17-.09-.339-.137-.507l-.001-.005c.315-1.336.591-3.07.825-4.82.108-.83.21-1.664.291-2.46l-.419-.684a26.752 26.752 0 00-.61 3.182c-.211 1.597-.266 3.162-.186 4.451-.147-.5-.305-.994-.472-1.483.264-1.334.476-3.058.649-4.798.067-.695.129-1.393.18-2.069l-.474-.774c-.202.94-.357 1.934-.45 2.914-.156 1.585-.15 3.133-.017 4.402a44.963 44.963 0 00-.342-.945c-.063-.165-.13-.328-.195-.491.215-1.331.364-3.044.48-4.773.04-.603.073-1.207.101-1.796l-.52-.849a24.65 24.65 0 00-.329 2.745c-.102 1.58-.041 3.116.145 4.365a41.099 41.099 0 00-.413-.968c.145-1.717.252-4.415.234-6.631l-.001-.105-.23-.375-.655 1.067zM13.932 22.979c.102.041.207.086.312.13l-.255-.769a7.309 7.309 0 00-1.747-.013c.493.19 1.072.403 1.69.652z" fill="#1C6434"/><path d="M15.773 21.316a7.059 7.059 0 00-1.642-.5l.312.943a21.982 21.982 0 012.766 1.333 47 47 0 01.914.537l.138-.416a6.688 6.688 0 00-2.488-1.897zM16.268 9.434V5.695a30.308 30.308 0 00-.338 4.29l.338-.55zM9.875 13.878l.178-.707a9.05 9.05 0 00-2.474.44c.656.075 1.452.154 2.296.267zM8.498 14.959c.325.051.684.104 1.065.162l.105-.417c-.407.06-.8.146-1.17.255zM6.93 11.148c.932.055 2.197.1 3.444.27l.147.02.504-.67a6.517 6.517 0 00-.415-.066c-1.257-.165-2.604.033-3.68.446zM14.02 8.974c.039 1.234.185 2.428.407 3.463l.387-.63c.008-.946-.01-1.978-.04-3.016a94.044 94.044 0 00-.078-1.898l-.684.909c-.007.392-.005.784.008 1.172zM14.99 9.83c-.002.544.016 1.083.05 1.607l.804-1.31.002-.476a81.79 81.79 0 00-.084-4.176l-.517.688a26.338 26.338 0 00-.256 3.667z" fill="#1C6434"/><path d="M14.679 24.42h-5.86l.557.349 6.637 3.675-1.334-4.024zM22.384 12.722l-1.211 3.655 3.612 5.893-2.4-9.548zM16.918 9.434l3.836 6.258 1.332-4.02-5.168-6.868v4.63zM18.508 24.42l-1.334 4.024 7.267-4.024h-5.933zM20.924 17.13l-2.225 6.71h6.338l-4.113-6.71z" fill="#66CAA6"/></svg>