<svg width="32" height="32" viewBox="0 0 32 32" fill="none" xmlns="http://www.w3.org/2000/svg">
<path d="M7.89818 14.4179V20.656L5.19727 22.2133V12.8584L7.89818 14.4179Z" fill="#FFA534"/>
<path d="M29.5035 8.18066V23.7727L26.8026 25.3322L26.8016 12.8582L24.1017 14.4166V26.8917L15.999 31.5681V15.9772L18.7 14.4177V26.8917L21.4008 25.3322V12.8582L29.5035 8.18066Z" fill="#FFA534"/>
<path d="M10.5983 6.62012L7.89746 8.17961L10.5983 9.73909V6.62012Z" fill="#FFA534"/>
<path d="M15.9997 3.50195L13.2988 5.06147L15.9997 6.61995V3.50195Z" fill="#FFA534"/>
<path d="M29.5041 8.18027L26.8032 9.73873L15.9996 3.50176L13.2987 5.06127V5.06233L15.9996 6.61976L24.1022 11.2983L21.4024 12.8578H21.4014V12.8567L10.5988 6.61976L7.89789 8.17925L18.7004 14.4173L15.9996 15.9768L2.49609 8.17925L15.9985 0.383789H15.9996L29.5041 8.18027Z" fill="white"/>
<path d="M13.2989 23.7722V26.8912L5.19727 22.2127L7.89818 20.6553L13.2989 23.7722Z" fill="white"/>
<path d="M18.7002 26.8915L21.4011 25.3319L18.7002 23.7725V26.8915Z" fill="white"/>
<path d="M2.49609 8.17969V23.7727L15.9995 31.5682V15.9751L2.49609 8.17969ZM13.2987 26.8917L5.19594 22.2132V12.8582L13.2987 17.5367V26.8917Z" fill="#FF6C2D"/>
<path d="M26.8034 25.3324L24.1025 23.7729V14.4169L26.8024 12.8584L26.8034 25.3324Z" fill="#FF6C2D"/>
<path d="M26.8026 9.73893L24.1017 11.2985L15.999 6.61995V3.50195L26.8026 9.73893Z" fill="#FF6C2D"/>
<path d="M10.5986 6.62012V9.73909L18.7003 14.4177V23.7726L21.4012 25.3321V12.8581L10.5986 6.62012Z" fill="#FF6C2D"/>
</svg>
