<svg width="32" height="32" fill="none" xmlns="http://www.w3.org/2000/svg"><circle cx="16" cy="16" r="15.875" fill="#000" stroke="#747474" stroke-width=".25"/><path fill-rule="evenodd" clip-rule="evenodd" d="M25.636 18.462H28L20.515 12H18.14l4.627 3.998-1.462 1.257-3.039-3.708h-2.01l-3.652 4.445-.398.486 1.788-4.923h-1.625l-1.184 3.325L10 13.556H8l-1.188 3.331-1.192-3.346H4l1.773 4.913h2.111L9 15.324l1.125 3.154h2.081L10.96 20h1.997l4.305-5.241 1.233 1.508h-1.619l-.833 1.029h3.292l.955 1.16h1.998l1.671-1.43 1.677 1.436z" fill="#fff"/><path d="M25.655 15.49l-1.115-.956 1.113-.948 2.25.002-2.248 1.902z" fill="#F89022"/></svg>