<svg width="32" height="32" viewBox="0 0 32 32" fill="none" xmlns="http://www.w3.org/2000/svg">
<rect width="32" height="32" fill="black"/>
<path fill-rule="evenodd" clip-rule="evenodd" d="M25.636 19.462H28L20.515 13H18.14L22.767 16.998L21.305 18.255L18.266 14.547H16.256L12.604 18.992L12.206 19.478L13.994 14.555H12.369L11.185 17.88L10 14.556H8L6.812 17.887L5.62 14.541H4L5.773 19.454H7.884L9 16.324L10.125 19.478H12.206L10.96 21H12.957L17.262 15.759L18.495 17.267H16.876L16.043 18.296H19.335L20.29 19.456H22.288L23.959 18.026L25.636 19.462Z" fill="white"/>
<path d="M25.655 16.49L24.54 15.534L25.653 14.586L27.903 14.588L25.655 16.49Z" fill="#F89022"/>
</svg>
