<svg width="32" height="32" fill="none" xmlns="http://www.w3.org/2000/svg"><g clip-path="url(#prefix__clip0_1958_11333)"><path d="M4.688 4.688c-6.256 6.256-6.256 16.384 0 22.624L27.312 4.688c-6.24-6.256-16.384-6.256-22.624 0z" fill="#F66"/><path d="M27.313 27.313c-6.24-6.256-16.384-6.256-22.625 0L27.313 4.688c6.256 6.24 6.256 16.385 0 22.625z" fill="#DA5F5A"/><path d="M16 26.256c5.647 0 10.224-4.592 10.224-10.256 0-5.664-4.577-10.256-10.224-10.256-5.646 0-10.224 4.592-10.224 10.256 0 5.664 4.578 10.256 10.224 10.256z" fill="#FFF4C7"/><path d="M27.313 27.312c-6.24 6.256-16.384 6.256-22.625 0 6.24-6.24 16.385-6.24 22.625 0z" fill="#FFF4C7"/><path d="M23.2 16a7.19 7.19 0 01-7.2 7.2A7.19 7.19 0 018.8 16 7.19 7.19 0 0116 8.8a7.19 7.19 0 017.2 7.2z" fill="#345D9D"/><path d="M15.52 18.336l.512-1.952 1.232-.448.304-1.152-.016-.032-1.216.448.88-3.28h-2.464L13.6 16.192l-.96.352-.32 1.184.944-.352-.672 2.528H19.2l.416-1.568H15.52z" fill="#fff"/></g><defs><clipPath id="prefix__clip0_1958_11333"><path fill="#fff" d="M0 0h32v32H0z"/></clipPath></defs></svg>