<svg xmlns="http://www.w3.org/2000/svg" fill="none" viewBox="0 0 128 128"><g clip-path="url(#prefix__a)"><path fill="#D02F44" d="M122.7 11.3H5.3a16 16 0 0113.9-8.1h89.6a16 16 0 0114 8.1z"/><path fill="#fff" d="M124.8 19.2v.2H3.2v-.2c0-2.8.7-5.5 2-7.9h117.5a16 16 0 012.1 7.9z"/><path fill="#D02F44" d="M124.8 19.4H3.2v8.1h121.6v-8z"/><path fill="#fff" d="M124.8 27.5H3.2v8.1h121.6v-8z"/><path fill="#D02F44" d="M124.8 35.6H3.2v8.1h121.6v-8z"/><path fill="#fff" d="M124.8 43.7H3.2v8.1h121.6v-8z"/><path fill="#D02F44" d="M124.8 51.8H3.2V60h121.6v-8z"/><path fill="#fff" d="M124.8 60H3.2v8h121.6v-8z"/><path fill="#D02F44" d="M124.8 68H3.2v8.2h121.6V68z"/><path fill="#fff" d="M124.8 76.2H3.2v8h121.6v-8z"/><path fill="#D02F44" d="M124.8 84.3H3.2v8h121.6v-8z"/><path fill="#fff" d="M124.8 92.4H3.2v8h121.6v-8z"/><path fill="#D02F44" d="M124.8 100.5H3.2v8h121.6v-8z"/><path fill="#fff" d="M124.8 108.6v.2a16 16 0 01-2 7.9H5.2a16 16 0 01-2.1-7.9v-.2h121.6z"/><path fill="#D02F44" d="M122.7 116.7a16 16 0 01-13.9 8.1H19.2a16 16 0 01-14-8.1h117.5z"/><path fill="#46467F" d="M54.4 3.2v56.7H3.2V19.2a16 16 0 0116-16h35.2z"/><path fill="#184579" d="M124.8 8.6a19.2 19.2 0 00-16-8.6H19.2A19.2 19.2 0 000 19.2v89.6A19.2 19.2 0 0019.2 128h89.6a19.2 19.2 0 0019.2-19.2V19.2c0-3.8-1.1-7.5-3.2-10.6zm0 100.2a16 16 0 01-16 16H19.2a16 16 0 01-16-16V19.2a16 16 0 0116-16h89.6a16 16 0 0116 16v89.6z"/><path fill="#fff" d="M12.6 51.6a4 4 0 100-8 4 4 0 000 8zm16 0a4 4 0 100-8 4 4 0 000 8zm16 0a4 4 0 100-8 4 4 0 000 8zm-24-8a4 4 0 100-8 4 4 0 000 8zm16 0a4 4 0 100-8 4 4 0 000 8zm-24-8a4 4 0 100-8 4 4 0 000 8zm16 0a4 4 0 100-8 4 4 0 000 8zm16 0a4 4 0 100-8 4 4 0 000 8zm-24-8a4 4 0 100-8 4 4 0 000 8zm16 0a4 4 0 100-8 4 4 0 000 8zm-24-8a4 4 0 100-8 4 4 0 000 8zm16 0a4 4 0 100-8 4 4 0 000 8zm16 0a4 4 0 100-8 4 4 0 000 8z"/></g><defs><clipPath id="prefix__a"><path fill="#fff" d="M0 0h128v128H0z"/></clipPath></defs></svg>