<svg width="32" height="32" viewBox="0 0 32 32" fill="none" xmlns="http://www.w3.org/2000/svg">
<g clip-path="url(#clip0_5957_15926)">
<path d="M32 16C32 24.8365 24.8365 32 16 32C7.16345 32 0 24.8365 0 16C0 7.16345 7.16345 0 16 0C24.8365 0 32 7.16345 32 16Z" fill="#2E3BFF"/>
<path d="M19.6127 13.5843H16.6288C16.5116 13.5843 16.3992 13.632 16.3163 13.7168L9.4451 20.75H4.97168V13.9764L7.63225 11.25V18.8008H8.01235L14.9555 11.694C15.2333 11.4097 15.6101 11.25 16.0028 11.25H19.6128L19.6127 13.5843ZM26.9715 11.25H22.4981L15.6269 18.2833C15.544 18.3681 15.4316 18.4157 15.3144 18.4157H12.3305V20.7499H15.9373C16.3321 20.7499 16.7107 20.5894 16.9898 20.3037L23.9309 13.1993H24.311V19.579H20.0243V20.75H24.311L24.7059 20.3454L25.0742 19.9681L26.9717 18.0238L26.9715 11.25Z" fill="white"/>
</g>
<defs>
<clipPath id="clip0_5957_15926">
<rect width="32" height="32" fill="white"/>
</clipPath>
</defs>
</svg>
