<svg xmlns="http://www.w3.org/2000/svg" fill="none" viewBox="0 0 128 128"><path fill="#184579" d="M108.8 0H19.2A19.2 19.2 0 000 19.2v89.6A19.2 19.2 0 0019.2 128h89.6a19.2 19.2 0 0019.2-19.2V19.2A19.2 19.2 0 00108.8 0zm16 108.8a16 16 0 01-16 16H19.2a16 16 0 01-16-16V19.2a16 16 0 0116-16h89.6a16 16 0 0116 16v89.6z"/><path fill="#fff" d="M124.8 19.2v24.5H3.2V19.2a16 16 0 0116-16h89.6a16 16 0 0116 16z"/><path fill="#0C47B7" d="M124.8 43.7H3.2v40.6h121.6V43.7z"/><path fill="#E53B35" d="M124.8 84.3v24.5a16 16 0 01-16 16H19.2a16 16 0 01-16-16V84.3h121.6z"/></svg>